<?xml version="1.0" standalone="no"?>
<!DOCTYPE svg PUBLIC "-//W3C//DTD SVG 1.1//EN" "http://www.w3.org/Graphics/SVG/1.1/DTD/svg11.dtd" >
<svg xmlns="http://www.w3.org/2000/svg" xmlns:xlink="http://www.w3.org/1999/xlink" version="1.1">
<metadata>
Created by FontForge 20200427 at Tue Nov 24 07:22:19 2015
 By www
Original Fonts are (c) Bitstream. OpenDyslexic changes and additional glyphs by Abelardo Gonzalez are licensed under a Creative Commons Attribution 3.0 Unported License.
Based on a work at http://dyslexicfonts.com. 2012 by Abelardo Gonzalez. Copying is an act of love. Please copy.
Bitstream license available here: http://opendyslexic.org/legal/
</metadata>
<defs>
<font id="OpenDyslexic-Regular" horiz-adv-x="648" >
  <font-face 
    font-family="OpenDyslexic"
    font-weight="400"
    font-stretch="normal"
    units-per-em="1000"
    panose-1="0 0 5 0 0 0 0 0 0 0"
    ascent="800"
    descent="-200"
    x-height="547"
    cap-height="729"
    bbox="-301 -522 1305 1182"
    underline-thickness="50"
    underline-position="-213"
    unicode-range="U+0020-FB02"
  />
<missing-glyph horiz-adv-x="646" 
d="M573 -177v882h-500v-882h500zM129 649h389v-682h-389v682z" />
    <glyph glyph-name="fi" unicode="fi" horiz-adv-x="679" 
d="M254 547v48q0 95 86 95l86 19v75l-90 -10q-91 -15 -134 -58.5t-43 -130.5v-38h-86v-65h86l-10 -482h120l-15 482h247l-10 -482h115l-15 547h-337zM501 645h90v114h-90v-114z" />
    <glyph glyph-name="fl" unicode="fl" horiz-adv-x="714" 
d="M336 760q-92 0 -134.5 -42t-42.5 -133l-5 -38h-81v-70h81l-14 -477h144l-30 477h143v70h-143l-4 58q0 51 18.5 70.5t66.5 19.5h161v-695h145l-1 103l-54 -1v658h-250z" />
    <glyph glyph-name=".notdef" horiz-adv-x="646" 
d="M573 -177v882h-500v-882h500zM129 649h389v-682h-389v682z" />
    <glyph glyph-name=".null" horiz-adv-x="0" 
 />
    <glyph glyph-name="nonmarkingreturn" horiz-adv-x="333" 
 />
    <glyph glyph-name="NULL" horiz-adv-x="0" 
 />
    <glyph glyph-name="NULL" horiz-adv-x="0" 
 />
    <glyph glyph-name="space" unicode=" " horiz-adv-x="391" 
 />
    <glyph glyph-name="exclam" unicode="!" horiz-adv-x="279" 
d="M83 409l-10 -174h133l-15 174l-4 320h-95zM78 0h123l-10 124h-104z" />
    <glyph glyph-name="quotedbl" unicode="&#x22;" horiz-adv-x="440" 
d="M79 729l-6 -287h98l-5 287h-87zM273 729l-4 -287h98l-6 287h-88z" />
    <glyph glyph-name="numbersign" unicode="#" horiz-adv-x="831" 
d="M355 718l-50 -203h-176v-75h157l-41 -163h-172v-75h154l-51 -202h79l50 202h143l-50 -202h78l51 202h174v75h-155l40 163h171v75h-152l50 203h-78l-51 -203h-143l51 203h-79zM467 277h-143l41 163h142z" />
    <glyph glyph-name="dollar" unicode="$" horiz-adv-x="619" 
d="M342 4q92 6 147.5 53.5t56.5 128.5q-3 76 -52 116t-161 59l4 228q94 -6 170 -48l2 76q-74 27 -171 33l2 113l-48 1l-2 -115q-100 -4 -153.5 -49t-55.5 -125q3 -74 49.5 -117t148.5 -62l-4 -192q-101 2 -200 66l-2 -117q100 -45 200 -48l-12 -147l88 -2zM276 366
q-126 22 -126 109q0 44 35.5 74.5t95.5 36.5zM330 282q120 -22 120 -105q0 -17 -6 -29.5t-14 -20t-26 -13t-30.5 -8t-39.5 -6.5z" />
    <glyph glyph-name="percent" unicode="%" horiz-adv-x="986" 
d="M241 742q-77 0 -122.5 -53.5t-45.5 -144.5q0 -92 45.5 -145.5t122.5 -53.5q78 0 123.5 53.5t45.5 145.5q0 91 -46 144.5t-123 53.5zM226 -14h79l460 756h-78zM241 680q42 0 66.5 -36t24.5 -97q0 -63 -24 -98.5t-67 -35.5q-42 0 -66 35.5t-24 98.5q0 62 24 97.5t66 35.5z
M745 383q-78 0 -123.5 -53.5t-45.5 -145.5q0 -91 45.5 -144.5t123.5 -53.5q77 0 122.5 53.5t45.5 144.5q0 92 -45.5 145.5t-122.5 53.5zM745 321q41 0 65.5 -34.5t24.5 -92.5q0 -59 -24.5 -93t-65.5 -34q-43 0 -67 34t-24 93t24 93t67 34z" />
    <glyph glyph-name="ampersand" unicode="&#x26;" horiz-adv-x="833" 
d="M288 466q-42 44 -59 72q-14 25 -14 49q0 43 32 70.5t83 27.5q64 0 153 -47l34 69q-84 35 -163 35q-89 0 -143.5 -48t-54.5 -127q0 -58 48 -121q-131 -98 -131 -221q0 -105 75 -172t192 -67q127 0 226 86l70 -72h123l-136 139q27 36 42.5 78.5t20.5 76.5t9 81q0 11 1 16
h-91q-3 -64 -13 -106t-36 -82zM491 144q-73 -62 -165 -62q-79 0 -131 47.5t-52 119.5q0 85 87 163z" />
    <glyph glyph-name="quotesingle" unicode="'" horiz-adv-x="229" 
d="M73 729v-271h83v271h-83z" />
    <glyph glyph-name="parenleft" unicode="(" horiz-adv-x="354" 
d="M257 762q-166 -216 -184 -430q0 -226 92 -457l103 -7q-51 107 -70.5 214t-24.5 242q9 215 162 431z" />
    <glyph glyph-name="parenright" unicode=")" horiz-adv-x="354" 
d="M96 775q90 -196 90 -454q-21 -223 -168 -433l112 -7q73 136 111.5 235t38.5 197q0 249 -107 455z" />
    <glyph glyph-name="asterisk" unicode="*" horiz-adv-x="621" 
d="M520 677l-184 -119v184l-75 -19l19 -165l-164 99l-43 -68l190 -75l-175 -95l48 -67l144 118v-184l75 15l-19 169l164 -99l48 67l-195 76l175 95z" />
    <glyph glyph-name="plus" unicode="+" horiz-adv-x="772" 
d="M345 627v-272h-272v-83h272v-272h82v272h272v83h-272v272h-82z" />
    <glyph glyph-name="comma" unicode="," horiz-adv-x="319" 
d="M123 16l-50 -157h63l110 157v103h-123v-103z" />
    <glyph glyph-name="hyphen" unicode="-" horiz-adv-x="413" 
d="M73 234l263 4l4 81l-263 -5z" />
    <glyph glyph-name="period" unicode="." horiz-adv-x="292" 
d="M73 0h146v158h-146v-158z" />
    <glyph glyph-name="slash" unicode="/" horiz-adv-x="502" 
d="M73 -93l113 -4l243 814l-74 3z" />
    <glyph glyph-name="zero" unicode="0" horiz-adv-x="650" 
d="M330 742q-122 0 -187 -96.5t-70 -281.5q0 -185 62.5 -281.5t184.5 -96.5t187 96.5t70 281.5q0 185 -62.5 281.5t-184.5 96.5zM330 703q153 0 153 -268q-10 -136 -49 -202t-114 -66t-109 64t-34 204q0 268 153 268zM327 324q-52 0 -52 86q0 52 10.5 82.5t41.5 30.5
q29 0 40 -28t11 -85q0 -86 -51 -86z" />
    <glyph glyph-name="one" unicode="1" horiz-adv-x="581" 
d="M87 0h420v137h-161v592h-98l-175 -35v-90l176 35v-502h-162v-137z" />
    <glyph glyph-name="two" unicode="2" horiz-adv-x="609" 
d="M294 142q18 63 82 130q56 58 78 82q44 54 61 94t17 86q0 95 -67.5 151.5t-180.5 56.5q-86 0 -206 -48v-100q115 65 208 65q66 0 106.5 -36.5t40.5 -94.5q0 -36 -18 -72q-22 -42 -59.5 -82.5t-118.5 -102.5q-71 -54 -164 -129v-142h463v142h-242z" />
    <glyph glyph-name="three" unicode="3" horiz-adv-x="626" 
d="M403 393q64 16 98.5 58t34.5 102q0 87 -65.5 138t-177.5 51q-87 0 -198 -31v-78q107 36 189 36q74 0 114 -30t40 -86q0 -55 -38.5 -84t-111.5 -29h-89v-81h85q78 0 124.5 -35.5t46.5 -87.5q0 -25 -48 -67q-49 -42 -142 -42q-108 0 -192 49v-154q103 -36 195 -36
q138 0 211.5 59.5t73.5 176.5q0 71 -40.5 118.5t-109.5 52.5z" />
    <glyph glyph-name="four" unicode="4" horiz-adv-x="678" 
d="M73 267v-61h320l-10 -206h132l-10 206h99v82h-99l-5 441h-124zM397 288h-244l249 389z" />
    <glyph glyph-name="five" unicode="5" horiz-adv-x="618" 
d="M104 363q79 36 159 36q86 0 132 -37.5t46 -112.5q0 -43 -50 -84.5t-128 -41.5q-103 0 -190 47v-153q100 -31 192 -31q133 0 206.5 65t73.5 183q0 114 -71.5 181t-193.5 67q-34 0 -95 -15v189h306v73h-387v-366z" />
    <glyph glyph-name="six" unicode="6" horiz-adv-x="650" 
d="M529 713q-82 29 -154 29q-138 0 -220 -102.5t-82 -275.5q0 -184 67 -281t193 -97q110 0 177 68t67 180q0 115 -64 181.5t-174 66.5q-108 0 -168 -88q15 265 208 265q73 0 150 -36v90zM333 404q67 0 106 -45.5t39 -124.5q0 -49 -39 -78t-106 -29q-66 0 -105 29t-39 78
q0 79 39 124.5t105 45.5z" />
    <glyph glyph-name="seven" unicode="7" horiz-adv-x="610" 
d="M73 656h375l-269 -656h176l182 687v42h-464v-73z" />
    <glyph glyph-name="eight" unicode="8" horiz-adv-x="666" 
d="M234 388q-73 -17 -117 -65.5t-44 -117.5q0 -105 69 -162t191 -57t191 57t69 162q0 69 -44 117.5t-117 65.5q124 31 124 165q0 80 -58.5 129.5t-164.5 49.5t-164.5 -49.5t-58.5 -129.5q0 -134 124 -165zM198 573q0 49 36.5 80t98.5 31t98.5 -31.5t36.5 -79.5
q0 -56 -36 -88t-99 -32q-64 0 -99.5 32t-35.5 88zM333 356q71 0 111 -37.5t40 -103.5q0 -39 -42.5 -73t-108.5 -34t-108.5 33.5t-42.5 73.5q0 66 40 103.5t111 37.5z" />
    <glyph glyph-name="nine" unicode="9" horiz-adv-x="649" 
d="M120 15q84 -29 154 -29q138 0 220 102.5t82 275.5q0 184 -66.5 281t-193.5 97q-110 0 -176.5 -67.5t-66.5 -180.5q0 -115 63.5 -181t173.5 -66q109 0 168 87q-4 -66 -18 -107.5t-42 -63t-61.5 -29t-86.5 -7.5q-74 0 -150 37v-149zM308 394q-93 0 -134.5 21.5t-41.5 94.5
q0 79 47.5 124.5t128.5 45.5t128 -45.5t47 -124.5q0 -73 -41 -94.5t-134 -21.5z" />
    <glyph glyph-name="colon" unicode=":" horiz-adv-x="274" 
d="M73 398h128v140h-128v-140zM73 0h128v149h-128v-149z" />
    <glyph glyph-name="semicolon" unicode=";" horiz-adv-x="307" 
d="M115 392h119v143h-119v-143zM118 13l-45 -173h70l89 173v93h-114v-93z" />
    <glyph glyph-name="less" unicode="&#x3c;" horiz-adv-x="799" 
d="M726 570l-643 -171l-10 -110l604 -281l11 118l-487 221l517 135z" />
    <glyph glyph-name="equal" unicode="=" horiz-adv-x="772" 
d="M73 372h626v82h-626v-82zM73 172h626v98h-626v-98z" />
    <glyph glyph-name="greater" unicode="&#x3e;" horiz-adv-x="799" 
d="M600 318l-517 -133l-10 -118l644 171l9 111l-603 280l-8 -88z" />
    <glyph glyph-name="question" unicode="?" horiz-adv-x="531" 
d="M293 256q0 20 2 40q3 31 18 50q10 13 22 36l39 42q44 47 64 79.5t20 66.5q0 78 -52.5 125t-141.5 47q-100 0 -191 -55v-77q98 67 174 67q51 0 83.5 -33.5t32.5 -78.5q-4 -22 -19.5 -39t-57.5 -52l-49 -43q-42 -41 -56.5 -75t-14.5 -85v-75h127v60zM163 -5h129v139h-129
v-139z" />
    <glyph glyph-name="at" unicode="@" horiz-adv-x="1011" 
d="M646 41q137 3 214.5 77t77.5 203q0 121 -76 220q-60 78 -148.5 120.5t-192.5 42.5q-190 0 -320 -128q-128 -126 -128 -311q0 -188 128 -314q130 -125 313 -125q153 0 279 98l-43 88q-99 -77 -236 -77q-161 0 -253 89q-68 72 -93.5 120t-25.5 121q0 94 43 175t120 131
q97 63 217 63q177 0 283 -132q62 -77 62 -183q0 -86 -40 -141t-112 -65v359h-69v-64q-58 74 -156 74q-84 0 -136.5 -61t-52.5 -159q0 -97 52.5 -158t136.5 -61q98 0 156 73v-75zM365 302q0 62 35 98t94 36t94.5 -36.5t35.5 -97.5q0 -62 -34.5 -98t-94.5 -36q-61 0 -95.5 36
t-34.5 98z" />
    <glyph glyph-name="A" unicode="A" horiz-adv-x="814" 
d="M73 0h134l37 119h328l28 -119h141l-287 729h-93zM542 235h-269l134 404z" />
    <glyph glyph-name="B" unicode="B" horiz-adv-x="673" 
d="M73 0h262q124 0 194.5 53.5t70.5 150.5q0 159 -187 189q123 20 123 156q0 86 -61 133t-174 47h-228v-729zM318 663q70 0 106.5 -34t36.5 -91q0 -110 -143 -110h-146v235h146zM330 348q78 0 118 -32q38 -32 38 -57q0 -66 -36.5 -90t-119.5 -24h-158v203h158z" />
    <glyph glyph-name="C" unicode="C" horiz-adv-x="734" 
d="M661 673q-102 69 -232 69q-166 0 -261 -101t-95 -277t95 -277t261 -101q129 0 232 70v172q-99 -93 -226 -93q-129 0 -192.5 52.5t-65.5 176.5q0 144 66.5 220.5t191.5 76.5q128 0 226 -92v104z" />
    <glyph glyph-name="D" unicode="D" horiz-adv-x="759" 
d="M73 0h203q211 0 310.5 88.5t99.5 276.5t-99 276t-311 88h-203v-729zM296 648q149 0 219 -67.5t70 -205.5q-11 -110 -73.5 -150.5t-215.5 -40.5h-119v464h119z" />
    <glyph glyph-name="E" unicode="E" horiz-adv-x="616" 
d="M73 0h470v151h-371v196h347v83h-347v216h362v83h-461v-729z" />
    <glyph glyph-name="F" unicode="F" horiz-adv-x="565" 
d="M73 0h123l-9 329h279v102h-284l9 210h301v88h-399z" />
    <glyph glyph-name="G" unicode="G" horiz-adv-x="783" 
d="M598 182q-36 -37 -153 -37q-139 0 -201 49t-67 180q0 297 268 297q137 0 246 -93v95q-110 69 -254 69q-171 0 -267.5 -100t-96.5 -278t96.5 -278t267.5 -100q158 0 273 82v298h-269v-105h157v-79z" />
    <glyph glyph-name="H" unicode="H" horiz-adv-x="712" 
d="M73 0h114v245h338v-245h114l-10 729h-104v-348h-338v348h-104z" />
    <glyph glyph-name="I" unicode="I" horiz-adv-x="265" 
d="M73 0h118q-5 85 -7.5 186.5t-3.5 174t-1.5 190t-1.5 178.5h-84q-1 -61 -3 -178.5t-3.5 -190t-5 -174t-8.5 -186.5z" />
    <glyph glyph-name="J" unicode="J" horiz-adv-x="452" 
d="M249 37q-1 -35 -33 -62t-93 -30l-50 11l2 -161l57 -6q117 2 167.5 56.5t53.5 185.5l26 692l-104 7z" />
    <glyph glyph-name="K" unicode="K" horiz-adv-x="735" 
d="M73 0h128l-19 351l247 -351h233l-388 389l362 340h-127l-327 -308l9 308h-98z" />
    <glyph glyph-name="L" unicode="L" horiz-adv-x="605" 
d="M73 0h449l10 151h-355l5 578h-99z" />
    <glyph glyph-name="M" unicode="M" horiz-adv-x="833" 
d="M73 0h125l-19 640l178 -524h119l178 524l-20 -640h126l-15 729h-137l-192 -433l-181 433h-147z" />
    <glyph glyph-name="N" unicode="N" horiz-adv-x="708" 
d="M73 0h125l-29 610l323 -610h143v729h-91l-15 -590l-313 575h-123z" />
    <glyph glyph-name="O" unicode="O" horiz-adv-x="821" 
d="M411 742q-154 0 -246 -103t-92 -275q0 -173 92 -275.5t246 -102.5t245.5 103t91.5 275t-91.5 275t-245.5 103zM411 662q107 0 170 -80t63 -218q0 -107 -58.5 -149t-174.5 -42t-175 42t-59 149q0 138 63 218t171 80z" />
    <glyph glyph-name="P" unicode="P" horiz-adv-x="642" 
d="M73 0h118l10 283h119q122 0 185 59.5t63 168.5q0 107 -62.5 162.5t-185.5 55.5h-217zM330 687q74 0 114 -35.5t40 -101.5t-40 -101.5t-114 -35.5h-134l10 274h124z" />
    <glyph glyph-name="Q" unicode="Q" horiz-adv-x="855" 
d="M627 42q55 61 88 134.5t33 187.5q0 172 -91.5 275t-245.5 103t-246 -103t-92 -275t92 -275t241 -103q20 0 41 2l103 -117h232zM411 662q107 0 170 -80t63 -218q0 -114 -92 -164q-56 7 -118 34l-40 -67l-46 6q-21 2 -41 7.5t-44.5 19.5t-42.5 33.5t-30.5 53.5t-12.5 77
q0 138 63 218t171 80z" />
    <glyph glyph-name="R" unicode="R" horiz-adv-x="714" 
d="M419 342q52 18 81 63.5t29 113.5q0 104 -60.5 157t-172.5 53h-223v-729h118v308h74q60 0 93.5 -24.5t68.5 -96.5l74 -187h140l-100 199q-61 123 -122 143zM306 677q66 0 109.5 -36t43.5 -122q0 -43 -48 -76.5t-105 -33.5h-124v268h124z" />
    <glyph glyph-name="S" unicode="S" horiz-adv-x="660" 
d="M542 705q-110 37 -213 37q-120 0 -188 -55.5t-68 -152.5q0 -83 49.5 -130t159.5 -69l60 -12q70 -14 105.5 -43.5t35.5 -61.5q0 -36 -48.5 -67t-127.5 -31q-110 0 -231 68v-156q125 -46 231 -46q137 0 208 54.5t71 160.5q0 89 -52.5 142t-162.5 74l-59 12
q-80 15 -110 39.5t-30 73.5q0 58 44 89t124 31q93 0 202 -53v96z" />
    <glyph glyph-name="T" unicode="T" horiz-adv-x="763" 
d="M73 646l259 10l-19 -656h138l-20 656l259 -10v83h-617v-83z" />
    <glyph glyph-name="U" unicode="U" horiz-adv-x="705" 
d="M73 274q0 -143 70.5 -215.5t209.5 -72.5q137 0 207.5 73t70.5 215v455h-104l10 -375q3 -115 -42.5 -167.5t-141.5 -52.5q-97 0 -142.5 52.5t-43.5 167.5l10 375h-104v-455z" />
    <glyph glyph-name="V" unicode="V" horiz-adv-x="814" 
d="M488 0l253 729h-102l-232 -545l-231 545h-103l254 -729h161z" />
    <glyph glyph-name="W" unicode="W" horiz-adv-x="1069" 
d="M236 0h154l145 394l134 -394h144l183 729h-95l-168 -533l-158 347h-86l-173 -337l-148 523h-95z" />
    <glyph glyph-name="X" unicode="X" horiz-adv-x="771" 
d="M324 340l-251 -340h160l153 261l152 -261h159l-240 340l225 389h-106l-182 -310l-182 310h-106z" />
    <glyph glyph-name="Y" unicode="Y" horiz-adv-x="761" 
d="M312 250v-250h133v250l243 479h-106l-201 -373l-202 373h-106z" />
    <glyph glyph-name="Z" unicode="Z" horiz-adv-x="742" 
d="M84 646h450l-461 -507v-139h595v146h-472l461 508v75h-573v-83z" />
    <glyph glyph-name="bracketleft" unicode="[" horiz-adv-x="329" 
d="M73 -132h207v109h-117v713h117v70h-207v-892z" />
    <glyph glyph-name="backslash" unicode="\" horiz-adv-x="455" 
d="M73 729l206 -830l102 -3l-225 830z" />
    <glyph glyph-name="bracketright" unicode="]" horiz-adv-x="329" 
d="M49 760v-70h117v-718h-117v-104h207v892h-207z" />
    <glyph glyph-name="asciicircum" unicode="^" horiz-adv-x="772" 
d="M348 729l-275 -272h152l161 222l161 -222h152l-275 272h-76z" />
    <glyph glyph-name="underscore" unicode="_" horiz-adv-x="666" 
d="M73 -129v-87h520v87h-520z" />
    <glyph glyph-name="grave" unicode="`" horiz-adv-x="380" 
d="M73 839l101 -183h133l-138 183h-96z" />
    <glyph glyph-name="a" unicode="a" horiz-adv-x="608" 
d="M535 312q0 248 -236 248q-86 0 -186 -38v-73q82 45 177 45q155 -10 155 -140v-9h-126q-246 0 -246 -186q0 -79 50 -126t133 -47q126 0 189 92v-78h90v312zM395 279v-20q0 -84 -27 -110t-98 -26q-38 0 -59.5 3t-39.5 17t-23 41q1 52 36 73.5t130 21.5h81z" />
    <glyph glyph-name="b" unicode="b" horiz-adv-x="636" 
d="M126 99q-9 19 -15 106t-13.5 267t-14.5 288h90l-9 -286q27 47 69 66.5t105 19.5q100 0 162.5 -79t62.5 -208t-62.5 -208t-162.5 -79q-101 0 -146 27t-66 86zM505 293q-6 203 -146 203q-72 0 -112 -54t-40 -153q6 -45 11.5 -66t20.5 -42t43.5 -28t76.5 -7q65 5 100 36
t46 111z" />
    <glyph glyph-name="c" unicode="c" horiz-adv-x="579" 
d="M506 526q-72 34 -158 34q-128 0 -201.5 -77t-73.5 -210q0 -132 73 -209.5t196 -77.5q88 0 164 35l-2 141q-15 -8 -30 -13t-33 -6.5t-29 -2t-33.5 0t-30.5 0.5q-89 5 -128.5 34t-46.5 98q0 101 46 158.5t133 57.5q77 0 154 -42v79z" />
    <glyph glyph-name="d" unicode="d" horiz-adv-x="645" 
d="M472 464q-55 96 -175 96q-99 0 -161.5 -79.5t-62.5 -207.5t62.5 -207.5t161.5 -79.5q120 0 175 96v-82h90l10 760h-90zM138 283q0 99 40.5 155.5t112.5 56.5q136 0 141 -205q-2 -86 -34.5 -113.5t-109.5 -27.5q-71 0 -105 31t-45 103z" />
    <glyph glyph-name="e" unicode="e" 
d="M575 330q-9 116 -65.5 170.5t-167.5 59.5q-122 0 -193 -78t-76 -214q0 -129 76 -203t208 -79q105 0 203 42l-2 124q-30 -16 -67.5 -23.5t-60 -8.5t-70.5 -1q-100 5 -146 40t-47 137h408v34zM177 374q0 53 47 96t118 43q62 0 104.5 -43t50.5 -95z" />
    <glyph glyph-name="f" unicode="f" horiz-adv-x="471" 
d="M312 750q-69 0 -111 -39.5t-42 -125.5l-5 -38h-81v-89h81l-14 -458h129l-15 458h143v89h-143l-4 48q0 49 13 64.5t48 15.5l81 -9v74z" />
    <glyph glyph-name="g" unicode="g" horiz-adv-x="645" 
d="M572 547h-90l-10 -83q-56 96 -175 96q-101 0 -162.5 -77t-61.5 -203t61.5 -203t162.5 -77q57 0 101.5 23t68.5 59v-30q-13 -63 -57.5 -115t-123.5 -52q-80 0 -157 42v-160q81 -29 171 -29q132 0 191.5 72.5t65.5 257.5zM433 285q0 -47 -10.5 -76t-34 -42t-48.5 -17
t-67 -4q-41 0 -62.5 3.5t-41 17.5t-28.5 42t-14 76q0 98 40.5 151.5t112.5 53.5q73 0 113 -53.5t40 -151.5z" />
    <glyph glyph-name="h" unicode="h" horiz-adv-x="624" 
d="M541 330q0 230 -191 230q-113 0 -177 -98l10 298h-90l-20 -760h110l-10 309q0 81 42.5 132t114.5 51q64 0 94.5 -37.5t26.5 -127.5l-14 -327h114z" />
    <glyph glyph-name="i" unicode="i" horiz-adv-x="261" 
d="M83 646h90l-5 114h-80zM73 0h115q-30 282 -20 547h-80q2 -300 -15 -547z" />
    <glyph glyph-name="j" unicode="j" horiz-adv-x="358" 
d="M195 646h90l-5 114h-80zM156 46q-4 -84 -21 -107t-70 -27h-38l-3 -135l49 -1q88 4 129 54.5t43 155.5l19 557l-85 1z" />
    <glyph glyph-name="k" unicode="k" horiz-adv-x="646" 
d="M73 0h120l-15 257l210 -257h185l-302 291l207 256h-115l-185 -216l5 429h-90z" />
    <glyph glyph-name="l" unicode="l" horiz-adv-x="342" 
d="M73 0h196v111h-106q3 294 20 605h-85q-19 -348 -25 -716z" />
    <glyph glyph-name="m" unicode="m" horiz-adv-x="969" 
d="M527 442q-20 57 -66 87.5t-107 30.5q-116 0 -176 -98l10 85h-90l-25 -547h125l-10 309q0 81 43.5 136.5t111.5 55.5q114 0 114 -154l-44 -347h124l15 309q4 84 41 136t105 52q55 0 76.5 -36.5t21.5 -118.5l-34 -342h134l-10 330q0 110 -46.5 170t-131.5 60
q-62 0 -104.5 -28.5t-76.5 -89.5z" />
    <glyph glyph-name="n" unicode="n" horiz-adv-x="639" 
d="M551 330q-11 230 -196 230q-83 0 -177 -74v66h-90l-15 -552h125l-15 314q0 82 40.5 127.5t121.5 45.5q59 0 85 -37.5t26 -117.5l-19 -332h128z" />
    <glyph glyph-name="o" unicode="o" 
d="M324 560q-118 0 -184.5 -76t-66.5 -211q0 -134 66.5 -210.5t184.5 -76.5q117 0 184 76.5t67 210.5q0 135 -67 211t-184 76zM324 494q72 0 114 -55.5t42 -149.5q0 -89 -38 -118.5t-118 -29.5q-81 0 -118.5 29.5t-37.5 118.5q0 95 42 150t114 55z" />
    <glyph glyph-name="p" unicode="p" horiz-adv-x="664" 
d="M192 82q55 -96 175 -96q100 0 162 79t62 208t-62 208t-162 79q-120 0 -175 -96l15 75h-90v-412l-44 -335h115zM533 289q0 -94 -35 -124.5t-113 -30.5q-80 0 -118.5 31t-38.5 124q0 99 40.5 155t111.5 56q72 0 112.5 -56t40.5 -155z" />
    <glyph glyph-name="q" unicode="q" horiz-adv-x="727" 
d="M445 -208l127 1l81 69l-110 106l31 579h-87l-15 -83q-55 96 -175 96q-99 0 -161.5 -79.5t-62.5 -207.5t62.5 -207.5t161.5 -79.5q120 0 175 96zM133 286q0 99 40.5 155.5t112.5 56.5q71 0 112 -56.5t41 -155.5q0 -92 -37.5 -121t-118.5 -29q-80 0 -115 28.5t-35 121.5z
" />
    <glyph glyph-name="r" unicode="r" horiz-adv-x="478" 
d="M404 545q-23 5 -40 5q-88 0 -170 -64v56h-83q6 -177 -1 -275.5t-37 -266.5h141l-20 273q0 192 143 192q48 0 68 -12z" />
    <glyph glyph-name="s" unicode="s" horiz-adv-x="564" 
d="M462 531q-75 29 -175 29q-101 0 -155.5 -42t-54.5 -119q0 -62 36.5 -94t121.5 -50l31 -7q86 -20 95 -32q11 -13 28 -43q0 -73 -122 -73q-94 0 -194 52v-132q105 -34 192 -34q106 0 166 44t60 121q0 66 -40 101.5t-136 55.5l-31 7q-71 16 -98 36t-27 57q0 41 36 64t103 23
q84 0 164 -39v75z" />
    <glyph glyph-name="t" unicode="t" horiz-adv-x="488" 
d="M144 683l-5 -136h-66v-70h66l-5 -297q0 -102 41.5 -141t146.5 -39h93v134h-93q-57 0 -75 19.5t-18 85.5l5 238h127v70h-127l5 136h-95z" />
    <glyph glyph-name="u" unicode="u" horiz-adv-x="609" 
d="M73 216q0 -113 49 -171.5t143 -58.5q112 0 176 98l-4 -84h89l10 547h-99l-10 -232q-5 -82 -45 -127.5t-112 -45.5q-59 0 -88 38t-34 117v250h-75v-331z" />
    <glyph glyph-name="v" unicode="v" horiz-adv-x="679" 
d="M273 0h132l200 547h-95l-171 -401l-171 401h-95z" />
    <glyph glyph-name="w" unicode="w" horiz-adv-x="880" 
d="M216 0h121l103 248l99 -248h125l143 547h-90l-112 -383l-102 202h-126l-102 -202l-112 383h-90z" />
    <glyph glyph-name="x" unicode="x" horiz-adv-x="696" 
d="M512 547l-165 -224l-150 224h-96l190 -285l-218 -262h145l135 190l125 -190h145l-213 256l193 291h-91z" />
    <glyph glyph-name="y" unicode="y" horiz-adv-x="679" 
d="M605 547h-95l-148 -318l-194 318h-95l234 -502l-38 -77q-21 -26 -32 -37t-29.5 -20.5t-41.5 -9.5h-63v-119h82q64 0 104 32.5t86 134.5z" />
    <glyph glyph-name="z" unicode="z" horiz-adv-x="590" 
d="M95 480h326l-348 -349v-131h439v121h-304l309 344v82h-422v-67z" />
    <glyph glyph-name="braceleft" unicode="{" horiz-adv-x="517" 
d="M420 -70q-65 1 -85 21t-24 73l2 122q-3 69 -23 102.5t-72 47.5q54 12 77 46.5t24 110.5l2 121q2 69 20.5 87.5t92.5 22.5l33 -1l1 70h-30q-123 -2 -164.5 -36t-43.5 -140l-1 -117q-1 -72 -27.5 -97.5t-97.5 -29.5l-30 1l-1 -70h30q68 -1 92 -29.5t28 -103.5l-2 -116
q3 -109 42 -145.5t159 -38.5l30 -1l1 100h-33z" />
    <glyph glyph-name="bar" unicode="|" horiz-adv-x="249" 
d="M200 764h-83l-44 -1000h93l15 493z" />
    <glyph glyph-name="braceright" unicode="}" horiz-adv-x="445" 
d="M57 -163h31q122 0 162.5 36t40.5 144v117q0 74 26.5 102t95.5 28h30v70h-30q-69 0 -95.5 28t-26.5 101v117q0 108 -40.5 144t-162.5 36h-31v-70h34q69 0 89.5 -21.5t20.5 -90.5v-121q0 -76 22 -111t76 -47q-54 -13 -76 -48t-22 -106v-121q0 -70 -20.5 -91t-89.5 -21h-34
v-75z" />
    <glyph glyph-name="asciitilde" unicode="~" horiz-adv-x="772" 
d="M699 399q-95 -78 -175 -78q-46 0 -121 30q-12 4 -18 7q-73 29 -126 29q-89 0 -186 -72v-102q44 38 64 53.5t52 32.5t59 17q46 0 122 -40l10 -4q1 0 3.5 -1t4.5 -2q71 -43 125 -43q39 0 77 21t95 64q9 7 14 11v77z" />
    <glyph glyph-name="uni00A0" unicode="&#xa0;" horiz-adv-x="783" 
 />
    <glyph glyph-name="exclamdown" unicode="&#xa1;" horiz-adv-x="293" 
d="M177 749h-89l-15 -134h119zM204 322l-16 174l-99 -4l-4 -174l7 -320l128 4z" />
    <glyph glyph-name="cent" unicode="&#xa2;" horiz-adv-x="584" 
d="M511 518q-63 30 -135 36l2 140l-50 1l-2 -140q-118 -9 -184 -82.5t-69 -199.5q-2 -126 61.5 -202t180.5 -88l-2 -140l50 -1l2 138q72 6 137 33l2 122q-71 -36 -137 -39l8 397q65 -3 135 -44zM317 99q-71 10 -110.5 55.5t-38.5 116.5q2 99 43 156t113 65z" />
    <glyph glyph-name="sterling" unicode="&#xa3;" horiz-adv-x="641" 
d="M568 705q-83 31 -141 31q-115 -3 -168 -59.5t-57 -182.5l-3 -116l-97 1l-2 -60l97 -1l-6 -213l-115 2l-3 -107l485 -8l3 107l-272 5l6 212l191 -3l1 60l-191 3l3 105q3 101 31.5 137t102.5 40q57 0 132 -42z" />
    <glyph glyph-name="currency" unicode="&#xa4;" horiz-adv-x="692" 
d="M462 485q-56 36 -116 36q-62 0 -115 -37l-101 101l-56 -56l101 -101q-37 -53 -37 -115q0 -56 36 -116l-101 -101l55 -56l101 101q60 -36 117 -36q59 0 115 38l102 -101l55 55l-102 101q38 54 38 115q0 59 -35 117l100 101l-56 56zM478 314q0 -95 -132 -95t-132 95
q0 55 38.5 92.5t93.5 37.5q56 0 94 -37.5t38 -92.5z" />
    <glyph glyph-name="yen" unicode="&#xa5;" horiz-adv-x="711" 
d="M612 282h-203v25l41 76h162v60h-129l155 286h-103l-179 -342l-180 342h-103l150 -286h-129v-60h162l51 -76v-25h-203v-79h203l-15 -203h128l-10 203h202v79z" />
    <glyph glyph-name="brokenbar" unicode="&#xa6;" horiz-adv-x="229" 
d="M181 309l19 455h-83l-19 -455h83zM181 257h-83l-25 -493h93z" />
    <glyph glyph-name="section" unicode="&#xa7;" horiz-adv-x="556" 
d="M433 714q-75 28 -149 28q-81 0 -130 -38.5t-49 -102.5q0 -66 58 -110q-90 -49 -90 -138q0 -50 31 -87q32 -38 136 -96l12 -7q108 -60 108 -100q0 -35 -26 -49t-79 -14q-60 0 -143 38v-105q84 -28 154 -28q85 0 134.5 41t49.5 110q0 62 -58 110q90 52 90 138q0 50 -31 87
q-33 38 -136 96q-7 4 -19 11q-101 57 -101 100q0 35 26.5 54.5t73.5 19.5q56 0 138 -38v80zM213 469q123 -67 156 -98q34 -33 34 -70q0 -46 -61 -89q-123 67 -155 99q-35 32 -35 69q0 44 61 89z" />
    <glyph glyph-name="dieresis" unicode="&#xa8;" horiz-adv-x="458" 
d="M73 659h107v106h-107v-106zM278 659h106v106h-106v-106z" />
    <glyph glyph-name="copyright" unicode="&#xa9;" horiz-adv-x="870" 
d="M435 725q-149 0 -256 -107q-106 -106 -106 -256q0 -149 106 -255q107 -107 256 -107t256 107q106 106 106 255q0 150 -106 256q-107 107 -256 107zM435 675q129 0 221 -92q91 -93 91 -221q0 -135 -91 -205q-99 -68 -221 -68q-121 0 -220 68q-93 82 -93 205q0 128 93 221
q92 92 220 92zM581 555q-63 27 -134 27q-105 0 -166.5 -59t-61.5 -161q0 -101 61.5 -161t166.5 -60q71 0 134 28v91q-61 -31 -123 -31q-72 0 -115.5 40.5t-43.5 92.5q0 78 41.5 127.5t112.5 49.5q62 0 128 -32v48z" />
    <glyph glyph-name="ordfeminine" unicode="&#xaa;" horiz-adv-x="494" 
d="M420 569q0 173 -177 173q-70 0 -140 -27v-62q66 33 130 33q114 0 114 -89v-2h-89q-185 0 -185 -133q0 -56 37 -88.5t100 -32.5q92 0 137 64v-55h73v219zM342 571v-14q0 -56 -31.5 -91t-82.5 -35q-40 0 -64 19t-24 50q0 37 31 55q32 16 109 16h62zM85 229h336v60h-336v-60
z" />
    <glyph glyph-name="guillemotleft" unicode="&#xab;" horiz-adv-x="616" 
d="M95 312l-22 -59l222 -211l23 111l-142 137l152 125l3 93zM307 305l-22 -59l222 -212l23 112l-142 136l152 126l2 93z" />
    <glyph glyph-name="logicalnot" unicode="&#xac;" horiz-adv-x="787" 
d="M73 328l544 10l-24 -198h121l-15 281h-626v-93z" />
    <glyph glyph-name="uni00AD" unicode="&#xad;" horiz-adv-x="413" 
d="M73 234l263 4l4 81l-263 -5z" />
    <glyph glyph-name="registered" unicode="&#xae;" horiz-adv-x="870" 
d="M435 725q-149 0 -256 -107q-106 -106 -106 -256q0 -149 106 -255q107 -107 256 -107t256 107q106 106 106 255q0 150 -106 256q-107 107 -256 107zM435 675q128 0 221 -85q91 -85 91 -204t-91 -203q-92 -86 -221 -86q-128 0 -220 86q-93 85 -93 203q0 117 93 204
q93 85 220 85zM286 573v-408h100v174h28q6 0 24 -12q19 -14 47 -60l63 -102h84l-67 109q-21 34 -39 55q-18 19 -28 22q47 8 72.5 35.5t25.5 69.5q0 117 -171 117h-139zM446 547q53 0 74.5 -15t21.5 -53q0 -36 -21 -51t-75 -15h-60v134h60z" />
    <glyph glyph-name="macron" unicode="&#xaf;" horiz-adv-x="438" 
d="M73 673h292v72h-292v-72z" />
    <glyph glyph-name="degree" unicode="&#xb0;" horiz-adv-x="456" 
d="M228 742q-65 0 -110 -45.5t-45 -110.5q0 -66 44 -110t110 -44q65 0 110.5 45t45.5 109q0 66 -45 110q-43 46 -110 46zM228 704q38 0 65.5 -25t27.5 -60t-27 -59.5t-66 -24.5t-66 24.5t-27 59.5t27 60t66 25z" />
    <glyph glyph-name="plusminus" unicode="&#xb1;" horiz-adv-x="772" 
d="M345 627v-189h-272v-83h272v-189h82v189h272v83h-272v189h-82zM73 0h626v93h-626v-93z" />
    <glyph glyph-name="uni00B2" unicode="&#xb2;" horiz-adv-x="438" 
d="M158 407q3 2 43 36q112 97 136 126q25 31 25 56q0 53 -42.5 85t-112.5 32q-56 0 -131 -27v-60q69 34 120 34q41 0 67 -20t26 -52q0 -9 -6 -19t-22.5 -26.5t-31.5 -30t-49 -43t-59 -51.5l-48 -42v-79h292v81h-207z" />
    <glyph glyph-name="uni00B3" unicode="&#xb3;" horiz-adv-x="449" 
d="M281 547q40 9 62 32t22 57q0 49 -41.5 77.5t-111.5 28.5q-51 0 -125 -17v-56q71 20 109 20q96 0 96 -58q0 -60 -94 -60h-46v-53h42q107 0 107 -73q0 -32 -24 -41.5t-83 -9.5q-67 0 -116 25l-5 -80q71 -20 123 -20q87 0 133 32.5t46 93.5q0 40 -24.5 66.5t-69.5 35.5z" />
    <glyph glyph-name="acute" unicode="&#xb4;" horiz-adv-x="407" 
d="M73 645h83l177 204h-107z" />
    <glyph glyph-name="uni00B5" unicode="&#xb5;" horiz-adv-x="698" 
d="M173 -208l-5 270q40 -76 140 -76q93 0 143 77q15 -77 81 -77q17 0 45 17q30 20 48 29v72q-8 -2 -22 -8q-7 -3 -12 -3q-55 4 -55 33l5 421h-90l-5 -216q0 -164 -145 -164q-133 0 -133 143l-5 242l-90 -5l10 -755h90z" />
    <glyph glyph-name="paragraph" unicode="&#xb6;" horiz-adv-x="700" 
d="M305 729q-105 0 -168.5 -57t-63.5 -149q0 -83 53.5 -139.5t112.5 -66.5l-34 -413h157v765h93l-5 -765h176l-107 825h-214z" />
    <glyph glyph-name="periodcentered" unicode="&#xb7;" horiz-adv-x="250" 
d="M73 285h103v124h-103v-124z" />
    <glyph glyph-name="cedilla" unicode="&#xb8;" horiz-adv-x="349" 
d="M164 0q43 -59 43 -87q0 -46 -58 -46q-44 0 -76 16v-64q42 -12 86 -12q116 0 116 88q0 45 -53 105h-58z" />
    <glyph glyph-name="uni00B9" unicode="&#xb9;" horiz-adv-x="426" 
d="M83 326h270v90h-101v318h-66l-113 -19v-57l109 20v-262h-99v-90z" />
    <glyph glyph-name="ordmasculine" unicode="&#xba;" horiz-adv-x="523" 
d="M262 742q-87 0 -138 -54t-51 -147t51 -146.5t138 -53.5q88 0 138 53.5t50 146.5q0 94 -50 147.5t-138 53.5zM262 704q52 0 82.5 -33t30.5 -89t-30.5 -89t-82.5 -33q-51 0 -82 33.5t-31 88.5t31 88.5t82 33.5zM94 229h336v60h-336v-60z" />
    <glyph glyph-name="guillemotright" unicode="&#xbb;" horiz-adv-x="611" 
d="M87 436l140 -139l-154 -123l14 -113l239 191l-16 61l-218 216zM298 424l140 -138l-153 -123l13 -114l240 192l-17 61l-218 216z" />
    <glyph glyph-name="onequarter" unicode="&#xbc;" horiz-adv-x="963" 
d="M244 -14h78l455 756h-78zM83 326h270v54h-101v354h-66l-113 -19v-57l109 20v-298h-99v-54zM551 151v-59h202v-91h71v91h66v53h-66v264h-81zM753 145h-150l150 205v-205z" />
    <glyph glyph-name="onehalf" unicode="&#xbd;" horiz-adv-x="967" 
d="M219 -14h78l455 756h-78zM83 326h270v54h-101v354h-66l-113 -19v-57l109 20v-298h-99v-54zM687 57q5 4 19 16t23 20q162 139 162 207q0 53 -42.5 85t-113.5 32q-55 0 -130 -27v-60q69 34 120 34q41 0 66.5 -20t25.5 -52q0 -46 -168 -195l-47 -42v-54h292v56h-207z" />
    <glyph glyph-name="threequarters" unicode="&#xbe;" horiz-adv-x="957" 
d="M281 547q40 9 62 32t22 57q0 49 -41.5 77.5t-111.5 28.5q-51 0 -125 -17v-56q71 20 109 20q96 0 96 -58q0 -60 -94 -60h-46v-53h42q107 0 107 -73q0 -35 -29.5 -54t-82.5 -19q-67 0 -116 26v-59q71 -20 123 -20q87 0 133 32.5t46 93.5q0 40 -24.5 66.5t-69.5 35.5z
M257 -14h78l456 756h-79zM545 151v-59h203v-91h70v91h66v53h-66v264h-81zM748 145h-151l151 205v-205z" />
    <glyph glyph-name="questiondown" unicode="&#xbf;" horiz-adv-x="536" 
d="M343 729h-98v-124h98v124zM248 473q0 -46 -7 -66q-7 -24 -46 -61l-43 -42q-43 -42 -61 -75t-18 -71q0 -77 55 -124.5t144 -47.5q99 0 190 55v121q-97 -67 -172 -67q-53 0 -85.5 26.5t-32.5 70.5q0 46 54 96l44 43q37 41 46.5 60.5t9.5 65.5v76h-78v-60z" />
    <glyph glyph-name="Agrave" unicode="&#xc0;" horiz-adv-x="814" 
d="M252 1122l101 -183h133l-138 183h-96zM73 0h134l37 119h328l28 -119h141l-287 729h-93zM542 235h-269l134 404z" />
    <glyph glyph-name="Aacute" unicode="&#xc1;" horiz-adv-x="814" 
d="M373 930h83l177 204h-107zM73 0h134l37 119h328l28 -119h141l-287 729h-93zM542 235h-269l134 404z" />
    <glyph glyph-name="Acircumflex" unicode="&#xc2;" horiz-adv-x="814" 
d="M257 733h68l88 120l88 -120h68l-120 184h-72zM73 0h134l37 119h328l28 -119h141l-287 729h-93zM542 235h-269l134 404z" />
    <glyph glyph-name="Atilde" unicode="&#xc3;" horiz-adv-x="814" 
d="M411 950q33 -30 68 -30q44 0 69.5 36t26.5 102h-62q0 -40 -9 -58t-28 -18q-13 0 -33 19l-28 27q-33 30 -68 30q-44 0 -68.5 -36t-26.5 -102h61q2 41 10 58q9 18 27 18q12 0 34 -19zM73 0h134l37 119h328l28 -119h141l-287 729h-93zM542 235h-269l134 404z" />
    <glyph glyph-name="Adieresis" unicode="&#xc4;" horiz-adv-x="814" 
d="M257 793h107v106h-107v-106zM462 793h106v106h-106v-106zM73 0h134l37 119h328l28 -119h141l-287 729h-93zM542 235h-269l134 404z" />
    <glyph glyph-name="Aring" unicode="&#xc5;" horiz-adv-x="814" 
d="M547 878q0 56 -39 95t-95 39t-95 -39t-39 -95t39 -95t95 -39t95 39t39 95zM487 878q0 -31 -21.5 -52.5t-52.5 -21.5t-52.5 21t-21.5 53t21.5 53t52.5 21t52.5 -21.5t21.5 -52.5zM73 0h134l37 119h328l28 -119h141l-287 729h-93zM542 235h-269l134 404z" />
    <glyph glyph-name="AE" unicode="&#xc6;" horiz-adv-x="1061" 
d="M355 729l-305 -729h183l-4 128h257v-128h471v127h-372v137h348v83h-348v299h362v83h-592zM486 652v-442h-224l161 442h63z" />
    <glyph glyph-name="Ccedilla" unicode="&#xc7;" horiz-adv-x="734" 
d="M435 661q-125 0 -191.5 -76.5t-66.5 -220.5q2 -124 65.5 -176.5t192.5 -52.5q127 0 226 93v-172q-98 -67 -219 -70q41 -51 41 -91q0 -88 -116 -88q-44 0 -86 12v64q32 -16 76 -16q58 0 58 46q0 27 -35 75q-144 15 -225.5 114.5t-81.5 261.5q0 176 95 277t261 101
q130 0 232 -69v-104q-98 92 -226 92z" />
    <glyph glyph-name="Egrave" unicode="&#xc8;" horiz-adv-x="616" 
d="M131 1146l101 -183h133l-138 183h-96zM73 0h470v151h-371v196h347v83h-347v216h362v83h-461v-729z" />
    <glyph glyph-name="Eacute" unicode="&#xc9;" horiz-adv-x="616" 
d="M252 954h83l177 204h-107zM73 0h470v151h-371v196h347v83h-347v216h362v83h-461v-729z" />
    <glyph glyph-name="Ecircumflex" unicode="&#xca;" horiz-adv-x="616" 
d="M136 757h68l88 120l88 -120h68l-120 184h-72zM73 0h470v151h-371v196h347v83h-347v216h362v83h-461v-729z" />
    <glyph glyph-name="Edieresis" unicode="&#xcb;" horiz-adv-x="616" 
d="M136 817h107v106h-107v-106zM341 817h106v106h-106v-106zM73 0h470v151h-371v196h347v83h-347v216h362v83h-461v-729z" />
    <glyph glyph-name="Igrave" unicode="&#xcc;" horiz-adv-x="265" 
d="M-24 1170l101 -183h133l-138 183h-96zM73 0h118q-5 85 -7.5 186.5t-3.5 174t-1.5 190t-1.5 178.5h-84q-1 -61 -3 -178.5t-3.5 -190t-5 -174t-8.5 -186.5z" />
    <glyph glyph-name="Iacute" unicode="&#xcd;" horiz-adv-x="265" 
d="M97 978h83l177 204h-107zM73 0h118q-5 85 -7.5 186.5t-3.5 174t-1.5 190t-1.5 178.5h-84q-1 -61 -3 -178.5t-3.5 -190t-5 -174t-8.5 -186.5z" />
    <glyph glyph-name="Icircumflex" unicode="&#xce;" horiz-adv-x="265" 
d="M-19 781h68l88 120l88 -120h68l-120 184h-72zM73 0h118q-5 85 -7.5 186.5t-3.5 174t-1.5 190t-1.5 178.5h-84q-1 -61 -3 -178.5t-3.5 -190t-5 -174t-8.5 -186.5z" />
    <glyph glyph-name="Idieresis" unicode="&#xcf;" horiz-adv-x="265" 
d="M-19 841h107v106h-107v-106zM186 841h106v106h-106v-106zM73 0h118q-5 85 -7.5 186.5t-3.5 174t-1.5 190t-1.5 178.5h-84q-1 -61 -3 -178.5t-3.5 -190t-5 -174t-8.5 -186.5z" />
    <glyph glyph-name="Eth" unicode="&#xd0;" horiz-adv-x="865" 
d="M164 412h-99v-70h99v-342h203q211 0 310 88.5t99 276.5t-99 276t-310 88h-203v-317zM381 648q151 0 221 -68t70 -215q0 -49 -7 -84.5t-24 -59t-38 -38t-57.5 -22t-72.5 -10t-92 -2.5h-118v193h164v70h-164v236h118z" />
    <glyph glyph-name="Ntilde" unicode="&#xd1;" horiz-adv-x="708" 
d="M358 998q33 -30 68 -30q44 0 69.5 36t26.5 102h-62q0 -40 -9 -58t-28 -18q-13 0 -33 19l-28 27q-33 30 -68 30q-44 0 -68.5 -36t-26.5 -102h61q2 41 10 58q9 18 27 18q12 0 34 -19zM73 0h125l-29 610l323 -610h143v729h-91l-15 -590l-313 575h-123z" />
    <glyph glyph-name="Ograve" unicode="&#xd2;" horiz-adv-x="821" 
d="M250 1170l101 -183h133l-138 183h-96zM411 742q-154 0 -246 -103t-92 -275q0 -173 92 -275.5t246 -102.5t245.5 103t91.5 275t-91.5 275t-245.5 103zM411 662q107 0 170 -80t63 -218q0 -107 -58.5 -149t-174.5 -42t-175 42t-59 149q0 138 63 218t171 80z" />
    <glyph glyph-name="Oacute" unicode="&#xd3;" horiz-adv-x="821" 
d="M371 978h83l177 204h-107zM411 742q-154 0 -246 -103t-92 -275q0 -173 92 -275.5t246 -102.5t245.5 103t91.5 275t-91.5 275t-245.5 103zM411 662q107 0 170 -80t63 -218q0 -107 -58.5 -149t-174.5 -42t-175 42t-59 149q0 138 63 218t171 80z" />
    <glyph glyph-name="Ocircumflex" unicode="&#xd4;" horiz-adv-x="821" 
d="M255 781h68l88 120l88 -120h68l-120 184h-72zM411 742q-154 0 -246 -103t-92 -275q0 -173 92 -275.5t246 -102.5t245.5 103t91.5 275t-91.5 275t-245.5 103zM411 662q107 0 170 -80t63 -218q0 -107 -58.5 -149t-174.5 -42t-175 42t-59 149q0 138 63 218t171 80z" />
    <glyph glyph-name="Otilde" unicode="&#xd5;" horiz-adv-x="821" 
d="M409 998q33 -30 68 -30q44 0 69.5 36t26.5 102h-62q0 -40 -9 -58t-28 -18q-13 0 -33 19l-28 27q-33 30 -68 30q-44 0 -68.5 -36t-26.5 -102h61q2 41 10 58q9 18 27 18q12 0 34 -19zM411 742q-154 0 -246 -103t-92 -275q0 -173 92 -275.5t246 -102.5t245.5 103t91.5 275
t-91.5 275t-245.5 103zM411 662q107 0 170 -80t63 -218q0 -107 -58.5 -149t-174.5 -42t-175 42t-59 149q0 138 63 218t171 80z" />
    <glyph glyph-name="Odieresis" unicode="&#xd6;" horiz-adv-x="821" 
d="M255 841h107v106h-107v-106zM460 841h106v106h-106v-106zM411 742q-154 0 -246 -103t-92 -275q0 -173 92 -275.5t246 -102.5t245.5 103t91.5 275t-91.5 275t-245.5 103zM411 662q107 0 170 -80t63 -218q0 -107 -58.5 -149t-174.5 -42t-175 42t-59 149q0 138 63 218
t171 80z" />
    <glyph glyph-name="multiply" unicode="&#xd7;" horiz-adv-x="686" 
d="M530 596l-190 -190l-175 176l-82 -84l174 -175l-184 -184l82 -84l185 185l185 -185l83 84l-184 184l189 190z" />
    <glyph glyph-name="Oslash" unicode="&#xd8;" horiz-adv-x="821" 
d="M584 699q78 -45 121 -132t43 -203q0 -172 -91.5 -275t-245.5 -103q-15 0 -39 2l-9 -29l-113 4l18 51q-92 40 -143.5 131.5t-51.5 218.5q0 172 92 275t246 103q54 0 104 -14l17 48l74 -3zM177 364q0 -85 37.5 -128.5t110.5 -56.5l163 470q-33 13 -77 13q-108 0 -171 -80
t-63 -218zM427 173q108 2 162.5 45t54.5 146q0 165 -87 244z" />
    <glyph glyph-name="Ugrave" unicode="&#xd9;" horiz-adv-x="705" 
d="M191 1170l101 -183h133l-138 183h-96zM73 274q0 -143 70.5 -215.5t209.5 -72.5q137 0 207.5 73t70.5 215v455h-104l10 -375q3 -115 -42.5 -167.5t-141.5 -52.5q-97 0 -142.5 52.5t-43.5 167.5l10 375h-104v-455z" />
    <glyph glyph-name="Uacute" unicode="&#xda;" horiz-adv-x="705" 
d="M312 978h83l177 204h-107zM73 274q0 -143 70.5 -215.5t209.5 -72.5q137 0 207.5 73t70.5 215v455h-104l10 -375q3 -115 -42.5 -167.5t-141.5 -52.5q-97 0 -142.5 52.5t-43.5 167.5l10 375h-104v-455z" />
    <glyph glyph-name="Ucircumflex" unicode="&#xdb;" horiz-adv-x="705" 
d="M196 781h68l88 120l88 -120h68l-120 184h-72zM73 274q0 -143 70.5 -215.5t209.5 -72.5q137 0 207.5 73t70.5 215v455h-104l10 -375q3 -115 -42.5 -167.5t-141.5 -52.5q-97 0 -142.5 52.5t-43.5 167.5l10 375h-104v-455z" />
    <glyph glyph-name="Udieresis" unicode="&#xdc;" horiz-adv-x="705" 
d="M196 841h107v106h-107v-106zM401 841h106v106h-106v-106zM73 274q0 -143 70.5 -215.5t209.5 -72.5q137 0 207.5 73t70.5 215v455h-104l10 -375q3 -115 -42.5 -167.5t-141.5 -52.5q-97 0 -142.5 52.5t-43.5 167.5l10 375h-104v-455z" />
    <glyph glyph-name="Yacute" unicode="&#xdd;" horiz-adv-x="761" 
d="M340 978h83l177 204h-107zM312 250v-250h133v250l243 479h-106l-201 -373l-202 373h-106z" />
    <glyph glyph-name="Thorn" unicode="&#xde;" horiz-adv-x="617" 
d="M73 0h99v165h124q122 0 185 55.5t63 162.5t-63 162t-185 55h-124v129h-99v-729zM296 519q69 0 106.5 -35.5t37.5 -100.5q0 -66 -37.5 -101.5t-106.5 -35.5h-124v273h124z" />
    <glyph glyph-name="germandbls" unicode="&#xdf;" horiz-adv-x="694" 
d="M104 0h135l-24 553q10 83 42.5 117.5t96.5 34.5q62 0 92 -21t66 -104q-92 -13 -126 -52.5t-34 -107.5q0 -27 11.5 -55.5t21.5 -42t32 -41.5l40 -27q50 -31 64 -51q14 -22 14 -41q0 -62 -116 -62q-62 0 -139 29v-119q72 -24 134 -24q103 0 157.5 44.5t54.5 128.5
q0 51 -24.5 85.5t-102.5 84.5l-28 18q-60 39 -60 83q0 47 40.5 75t114.5 32q-2 110 -55 166.5t-155 56.5q-107 0 -165 -53.5t-58 -151.5z" />
    <glyph glyph-name="agrave" unicode="&#xe0;" horiz-adv-x="608" 
d="M157 988l101 -183h133l-138 183h-96zM535 312q0 248 -236 248q-86 0 -186 -38v-73q82 45 177 45q155 -10 155 -140v-9h-126q-246 0 -246 -186q0 -79 50 -126t133 -47q126 0 189 92v-78h90v312zM395 279v-20q0 -84 -27 -110t-98 -26q-38 0 -59.5 3t-39.5 17t-23 41
q1 52 36 73.5t130 21.5h81z" />
    <glyph glyph-name="aacute" unicode="&#xe1;" horiz-adv-x="608" 
d="M278 796h83l177 204h-107zM535 312q0 248 -236 248q-86 0 -186 -38v-73q82 45 177 45q155 -10 155 -140v-9h-126q-246 0 -246 -186q0 -79 50 -126t133 -47q126 0 189 92v-78h90v312zM395 279v-20q0 -84 -27 -110t-98 -26q-38 0 -59.5 3t-39.5 17t-23 41q1 52 36 73.5
t130 21.5h81z" />
    <glyph glyph-name="acircumflex" unicode="&#xe2;" horiz-adv-x="608" 
d="M162 599h68l88 120l88 -120h68l-120 184h-72zM535 312q0 248 -236 248q-86 0 -186 -38v-73q82 45 177 45q155 -10 155 -140v-9h-126q-246 0 -246 -186q0 -79 50 -126t133 -47q126 0 189 92v-78h90v312zM395 279v-20q0 -84 -27 -110t-98 -26q-38 0 -59.5 3t-39.5 17
t-23 41q1 52 36 73.5t130 21.5h81z" />
    <glyph glyph-name="atilde" unicode="&#xe3;" horiz-adv-x="608" 
d="M316 816q33 -30 68 -30q44 0 69.5 36t26.5 102h-62q0 -40 -9 -58t-28 -18q-13 0 -33 19l-28 27q-33 30 -68 30q-44 0 -68.5 -36t-26.5 -102h61q2 41 10 58q9 18 27 18q12 0 34 -19zM535 312q0 248 -236 248q-86 0 -186 -38v-73q82 45 177 45q155 -10 155 -140v-9h-126
q-246 0 -246 -186q0 -79 50 -126t133 -47q126 0 189 92v-78h90v312zM395 279v-20q0 -84 -27 -110t-98 -26q-38 0 -59.5 3t-39.5 17t-23 41q1 52 36 73.5t130 21.5h81z" />
    <glyph glyph-name="adieresis" unicode="&#xe4;" horiz-adv-x="608" 
d="M162 659h107v106h-107v-106zM367 659h106v106h-106v-106zM535 312q0 248 -236 248q-86 0 -186 -38v-73q82 45 177 45q155 -10 155 -140v-9h-126q-246 0 -246 -186q0 -79 50 -126t133 -47q126 0 189 92v-78h90v312zM395 279v-20q0 -84 -27 -110t-98 -26q-38 0 -59.5 3
t-39.5 17t-23 41q1 52 36 73.5t130 21.5h81z" />
    <glyph glyph-name="aring" unicode="&#xe5;" horiz-adv-x="608" 
d="M452 744q0 56 -39 95t-95 39t-95 -39t-39 -95t39 -95t95 -39t95 39t39 95zM392 744q0 -31 -21.5 -52.5t-52.5 -21.5q-32 0 -53 21t-21 53t21 53t53 21q31 0 52.5 -21.5t21.5 -52.5zM535 312q0 248 -236 248q-86 0 -186 -38v-73q82 45 177 45q155 -10 155 -140v-9h-126
q-246 0 -246 -186q0 -79 50 -126t133 -47q126 0 189 92v-78h90v312zM395 279v-20q0 -84 -27 -110t-98 -26q-38 0 -59.5 3t-39.5 17t-23 41q1 52 36 73.5t130 21.5h81z" />
    <glyph glyph-name="ae" unicode="&#xe6;" horiz-adv-x="1083" 
d="M535 470q-26 43 -78 66.5t-122 23.5q-86 0 -186 -38v-64q83 45 177 45q67 0 111 -40.5t44 -79.5v-8h-126q-127 0 -186.5 -49t-59.5 -167q0 -82 51.5 -127.5t143.5 -45.5q140 0 211 117q75 -117 240 -117q68 0 203 56v129q-98 -51 -198 -51q-85 0 -137 46.5t-58 114.5h414
v44q0 97 -66.5 166t-173.5 69q-131 0 -204 -90zM568 351q8 62 55 110.5t117 48.5q64 0 106 -50.5t42 -107.5zM481 304v-16q0 -91 -43.5 -134.5t-121.5 -43.5q-54 0 -85.5 22.5t-31.5 60.5q0 69 40 90t153 21h89z" />
    <glyph glyph-name="ccedilla" unicode="&#xe7;" horiz-adv-x="579" 
d="M352 489q-87 0 -133 -57.5t-46 -158.5q7 -69 46.5 -98t128.5 -34q8 0 30.5 -0.5t33.5 0t29 2t33 6.5t30 13l2 -141q-62 -29 -137 -34q42 -51 42 -92q0 -88 -116 -88q-44 0 -86 12v64q32 -16 76 -16q58 0 58 46q0 25 -34 75q-109 11 -172.5 87t-63.5 198q0 133 73.5 210
t201.5 77q86 0 158 -34v-79q-76 42 -154 42z" />
    <glyph glyph-name="egrave" unicode="&#xe8;" 
d="M168 988l101 -183h133l-138 183h-96zM575 330q-9 116 -65.5 170.5t-167.5 59.5q-122 0 -193 -78t-76 -214q0 -129 76 -203t208 -79q105 0 203 42l-2 124q-30 -16 -67.5 -23.5t-60 -8.5t-70.5 -1q-100 5 -146 40t-47 137h408v34zM177 374q0 53 47 96t118 43
q62 0 104.5 -43t50.5 -95z" />
    <glyph glyph-name="eacute" unicode="&#xe9;" 
d="M289 796h83l177 204h-107zM575 330q-9 116 -65.5 170.5t-167.5 59.5q-122 0 -193 -78t-76 -214q0 -129 76 -203t208 -79q105 0 203 42l-2 124q-30 -16 -67.5 -23.5t-60 -8.5t-70.5 -1q-100 5 -146 40t-47 137h408v34zM177 374q0 53 47 96t118 43q62 0 104.5 -43t50.5 -95
z" />
    <glyph glyph-name="ecircumflex" unicode="&#xea;" 
d="M173 599h68l88 120l88 -120h68l-120 184h-72zM575 330q-9 116 -65.5 170.5t-167.5 59.5q-122 0 -193 -78t-76 -214q0 -129 76 -203t208 -79q105 0 203 42l-2 124q-30 -16 -67.5 -23.5t-60 -8.5t-70.5 -1q-100 5 -146 40t-47 137h408v34zM177 374q0 53 47 96t118 43
q62 0 104.5 -43t50.5 -95z" />
    <glyph glyph-name="edieresis" unicode="&#xeb;" 
d="M173 659h107v106h-107v-106zM378 659h106v106h-106v-106zM575 330q-9 116 -65.5 170.5t-167.5 59.5q-122 0 -193 -78t-76 -214q0 -129 76 -203t208 -79q105 0 203 42l-2 124q-30 -16 -67.5 -23.5t-60 -8.5t-70.5 -1q-100 5 -146 40t-47 137h408v34zM177 374q0 53 47 96
t118 43q62 0 104.5 -43t50.5 -95z" />
    <glyph glyph-name="igrave" unicode="&#xec;" horiz-adv-x="383" 
d="M73 800l101 -183h133l-138 183h-96zM220 0h90v547h-90v-547z" />
    <glyph glyph-name="iacute" unicode="&#xed;" horiz-adv-x="407" 
d="M73 596h83l177 204h-107zM126 0h90v547h-90v-547z" />
    <glyph glyph-name="icircumflex" unicode="&#xee;" horiz-adv-x="458" 
d="M73 616h68l88 120l88 -120h68l-120 184h-72zM211 0h90v547h-90v-547z" />
    <glyph glyph-name="idieresis" unicode="&#xef;" horiz-adv-x="458" 
d="M73 659h107v106h-107v-106zM278 659h106v106h-106v-106zM183 0h90v547h-90v-547z" />
    <glyph glyph-name="eth" unicode="&#xf0;" 
d="M378 648l144 48l-16 47l-163 -54l-62 71h-111l88 -100l-137 -45l16 -48l156 52l78 -88q-35 5 -55 5q-108 0 -175.5 -76t-67.5 -198q0 -124 69 -200t182 -76t182 76t69 200q0 85 -28 155t-89 140zM427 447q53 -68 53 -185q0 -44 -10 -71t-34 -39t-47 -15t-65 -3t-65.5 3
t-47 15t-33.5 39t-10 71q0 95 45 148t127 53q40 0 87 -16z" />
    <glyph glyph-name="ntilde" unicode="&#xf1;" horiz-adv-x="639" 
d="M308 816q33 -30 68 -30q44 0 69.5 36t26.5 102h-62q0 -40 -9 -58t-28 -18q-13 0 -33 19l-28 27q-33 30 -68 30q-44 0 -68.5 -36t-26.5 -102h61q2 41 10 58q9 18 27 18q12 0 34 -19zM551 330q-11 230 -196 230q-83 0 -177 -74v66h-90l-15 -552h125l-15 314
q0 82 40.5 127.5t121.5 45.5q59 0 85 -37.5t26 -117.5l-19 -332h128z" />
    <glyph glyph-name="ograve" unicode="&#xf2;" 
d="M163 988l101 -183h133l-138 183h-96zM324 560q-118 0 -184.5 -76t-66.5 -211q0 -134 66.5 -210.5t184.5 -76.5q117 0 184 76.5t67 210.5q0 135 -67 211t-184 76zM324 494q72 0 114 -55.5t42 -149.5q0 -89 -38 -118.5t-118 -29.5q-81 0 -118.5 29.5t-37.5 118.5
q0 95 42 150t114 55z" />
    <glyph glyph-name="oacute" unicode="&#xf3;" 
d="M284 796h83l177 204h-107zM324 560q-118 0 -184.5 -76t-66.5 -211q0 -134 66.5 -210.5t184.5 -76.5q117 0 184 76.5t67 210.5q0 135 -67 211t-184 76zM324 494q72 0 114 -55.5t42 -149.5q0 -89 -38 -118.5t-118 -29.5q-81 0 -118.5 29.5t-37.5 118.5q0 95 42 150t114 55z
" />
    <glyph glyph-name="ocircumflex" unicode="&#xf4;" 
d="M168 599h68l88 120l88 -120h68l-120 184h-72zM324 560q-118 0 -184.5 -76t-66.5 -211q0 -134 66.5 -210.5t184.5 -76.5q117 0 184 76.5t67 210.5q0 135 -67 211t-184 76zM324 494q72 0 114 -55.5t42 -149.5q0 -89 -38 -118.5t-118 -29.5q-81 0 -118.5 29.5t-37.5 118.5
q0 95 42 150t114 55z" />
    <glyph glyph-name="otilde" unicode="&#xf5;" 
d="M322 816q33 -30 68 -30q44 0 69.5 36t26.5 102h-62q0 -40 -9 -58t-28 -18q-13 0 -33 19l-28 27q-33 30 -68 30q-44 0 -68.5 -36t-26.5 -102h61q2 41 10 58q9 18 27 18q12 0 34 -19zM324 560q-118 0 -184.5 -76t-66.5 -211q0 -134 66.5 -210.5t184.5 -76.5q117 0 184 76.5
t67 210.5q0 135 -67 211t-184 76zM324 494q72 0 114 -55.5t42 -149.5q0 -89 -38 -118.5t-118 -29.5q-81 0 -118.5 29.5t-37.5 118.5q0 95 42 150t114 55z" />
    <glyph glyph-name="odieresis" unicode="&#xf6;" 
d="M168 659h107v106h-107v-106zM373 659h106v106h-106v-106zM324 560q-118 0 -184.5 -76t-66.5 -211q0 -134 66.5 -210.5t184.5 -76.5q117 0 184 76.5t67 210.5q0 135 -67 211t-184 76zM324 494q72 0 114 -55.5t42 -149.5q0 -89 -38 -118.5t-118 -29.5q-81 0 -118.5 29.5
t-37.5 118.5q0 95 42 150t114 55z" />
    <glyph glyph-name="divide" unicode="&#xf7;" horiz-adv-x="797" 
d="M326 434h145v145h-145v-145zM73 248h651v107h-651v-107zM326 24h145v144h-145v-144z" />
    <glyph glyph-name="oslash" unicode="&#xf8;" horiz-adv-x="688" 
d="M73 -8l47 -38l68 82q62 -50 156 -50q117 0 184 76.5t67 210.5q0 119 -52 193l71 87l-46 39l-68 -82q-65 50 -156 50q-117 0 -184 -76t-67 -211q0 -116 53 -192zM207 155q-19 44 -19 111q0 103 41 160.5t115 57.5q61 0 101 -40zM480 391q20 -43 20 -118q0 -97 -42 -154
t-114 -57q-62 0 -102 40z" />
    <glyph glyph-name="ugrave" unicode="&#xf9;" horiz-adv-x="609" 
d="M147 988l101 -183h133l-138 183h-96zM73 216q0 -113 49 -171.5t143 -58.5q112 0 176 98l-4 -84h89l10 547h-99l-10 -232q-5 -82 -45 -127.5t-112 -45.5q-59 0 -88 38t-34 117v250h-75v-331z" />
    <glyph glyph-name="uacute" unicode="&#xfa;" horiz-adv-x="609" 
d="M268 796h83l177 204h-107zM73 216q0 -113 49 -171.5t143 -58.5q112 0 176 98l-4 -84h89l10 547h-99l-10 -232q-5 -82 -45 -127.5t-112 -45.5q-59 0 -88 38t-34 117v250h-75v-331z" />
    <glyph glyph-name="ucircumflex" unicode="&#xfb;" horiz-adv-x="609" 
d="M152 599h68l88 120l88 -120h68l-120 184h-72zM73 216q0 -113 49 -171.5t143 -58.5q112 0 176 98l-4 -84h89l10 547h-99l-10 -232q-5 -82 -45 -127.5t-112 -45.5q-59 0 -88 38t-34 117v250h-75v-331z" />
    <glyph glyph-name="udieresis" unicode="&#xfc;" horiz-adv-x="609" 
d="M152 659h107v106h-107v-106zM357 659h106v106h-106v-106zM73 216q0 -113 49 -171.5t143 -58.5q112 0 176 98l-4 -84h89l10 547h-99l-10 -232q-5 -82 -45 -127.5t-112 -45.5q-59 0 -88 38t-34 117v250h-75v-331z" />
    <glyph glyph-name="yacute" unicode="&#xfd;" horiz-adv-x="679" 
d="M256 796h83l177 204h-107zM605 547h-95l-148 -318l-194 318h-95l234 -502l-38 -77q-21 -26 -32 -37t-29.5 -20.5t-41.5 -9.5h-63v-119h82q64 0 104 32.5t86 134.5z" />
    <glyph glyph-name="thorn" unicode="&#xfe;" horiz-adv-x="624" 
d="M225 82q55 -96 174 -96q100 0 162.5 79t62.5 208t-62.5 208t-162.5 79q-119 0 -174 -96v296h-91v-968h91v290zM530 273q0 -99 -40.5 -155.5t-112.5 -56.5q-71 0 -111.5 56.5t-40.5 155.5t40.5 155.5t111.5 56.5q72 0 112.5 -56.5t40.5 -155.5z" />
    <glyph glyph-name="ydieresis" unicode="&#xff;" horiz-adv-x="679" 
d="M140 659h107v106h-107v-106zM345 659h106v106h-106v-106zM605 547h-95l-148 -318l-194 318h-95l234 -502l-38 -77q-21 -26 -32 -37t-29.5 -20.5t-41.5 -9.5h-63v-119h82q64 0 104 32.5t86 134.5z" />
    <glyph glyph-name="Amacron" unicode="&#x100;" horiz-adv-x="814" 
d="M267 768h292v72h-292v-72zM73 0h134l37 119h328l28 -119h141l-287 729h-93zM542 235h-269l134 404z" />
    <glyph glyph-name="amacron" unicode="&#x101;" horiz-adv-x="608" 
d="M172 634h292v72h-292v-72zM535 312q0 248 -236 248q-86 0 -186 -38v-73q82 45 177 45q155 -10 155 -140v-9h-126q-246 0 -246 -186q0 -79 50 -126t133 -47q126 0 189 92v-78h90v312zM395 279v-20q0 -84 -27 -110t-98 -26q-38 0 -59.5 3t-39.5 17t-23 41q1 52 36 73.5
t130 21.5h81z" />
    <glyph glyph-name="Abreve" unicode="&#x102;" horiz-adv-x="814" 
d="M260 892q11 -140 153 -140q144 0 153 140h-58q-12 -73 -95 -73q-85 0 -95 73h-58zM73 0h134l37 119h328l28 -119h141l-287 729h-93zM542 235h-269l134 404z" />
    <glyph glyph-name="abreve" unicode="&#x103;" horiz-adv-x="608" 
d="M165 758q11 -140 153 -140q144 0 153 140h-58q-12 -73 -95 -73q-85 0 -95 73h-58zM535 312q0 248 -236 248q-86 0 -186 -38v-73q82 45 177 45q155 -10 155 -140v-9h-126q-246 0 -246 -186q0 -79 50 -126t133 -47q126 0 189 92v-78h90v312zM395 279v-20q0 -84 -27 -110
t-98 -26q-38 0 -59.5 3t-39.5 17t-23 41q1 52 36 73.5t130 21.5h81z" />
    <glyph glyph-name="Aogonek" unicode="&#x104;" horiz-adv-x="814" 
d="M626 -88q0 -45 53 -45q31 0 61 15v-65q-42 -10 -66 -10q-60 0 -88 21t-28 67q0 45 53 105h-11l-28 119h-328l-37 -119h-134l288 729h93l287 -729h-72q-43 -59 -43 -88zM273 235h269l-135 404z" />
    <glyph glyph-name="aogonek" unicode="&#x105;" horiz-adv-x="608" 
d="M533 -104q31 0 61 15v-65q-42 -10 -66 -10q-60 0 -88 21t-28 67q0 35 33 80v74q-63 -92 -189 -92q-83 0 -133 47t-50 126q0 186 246 186h126v9q0 130 -155 140q-94 0 -177 -45v73q100 38 186 38q236 0 236 -248v-312h-32q-23 -38 -23 -59q0 -45 53 -45zM395 259v20h-81
q-95 0 -130 -21.5t-36 -73.5q7 -38 36 -49.5t86 -11.5q71 0 98 26t27 110z" />
    <glyph glyph-name="Cacute" unicode="&#x106;" horiz-adv-x="734" 
d="M342 978h83l177 204h-107zM661 673q-102 69 -232 69q-166 0 -261 -101t-95 -277t95 -277t261 -101q129 0 232 70v172q-99 -93 -226 -93q-129 0 -192.5 52.5t-65.5 176.5q0 144 66.5 220.5t191.5 76.5q128 0 226 -92v104z" />
    <glyph glyph-name="cacute" unicode="&#x107;" horiz-adv-x="579" 
d="M270 796h83l177 204h-107zM506 526q-72 34 -158 34q-128 0 -201.5 -77t-73.5 -210q0 -132 73 -209.5t196 -77.5q88 0 164 35l-2 141q-15 -8 -30 -13t-33 -6.5t-29 -2t-33.5 0t-30.5 0.5q-89 5 -128.5 34t-46.5 98q0 101 46 158.5t133 57.5q77 0 154 -42v79z" />
    <glyph glyph-name="Cdotaccent" unicode="&#x10a;" horiz-adv-x="734" 
d="M332 840h100v100h-100v-100zM661 673q-102 69 -232 69q-166 0 -261 -101t-95 -277t95 -277t261 -101q129 0 232 70v172q-99 -93 -226 -93q-129 0 -192.5 52.5t-65.5 176.5q0 144 66.5 220.5t191.5 76.5q128 0 226 -92v104z" />
    <glyph glyph-name="cdotaccent" unicode="&#x10b;" horiz-adv-x="579" 
d="M260 658h100v100h-100v-100zM506 526q-72 34 -158 34q-128 0 -201.5 -77t-73.5 -210q0 -132 73 -209.5t196 -77.5q88 0 164 35l-2 141q-15 -8 -30 -13t-33 -6.5t-29 -2t-33.5 0t-30.5 0.5q-89 5 -128.5 34t-46.5 98q0 101 46 158.5t133 57.5q77 0 154 -42v79z" />
    <glyph glyph-name="Ccaron" unicode="&#x10c;" horiz-adv-x="734" 
d="M418 798l120 184h-68l-88 -120l-88 120h-68l120 -184h72zM661 673q-102 69 -232 69q-166 0 -261 -101t-95 -277t95 -277t261 -101q129 0 232 70v172q-99 -93 -226 -93q-129 0 -192.5 52.5t-65.5 176.5q0 144 66.5 220.5t191.5 76.5q128 0 226 -92v104z" />
    <glyph glyph-name="ccaron" unicode="&#x10d;" horiz-adv-x="579" 
d="M346 616l120 184h-68l-88 -120l-88 120h-68l120 -184h72zM506 526q-72 34 -158 34q-128 0 -201.5 -77t-73.5 -210q0 -132 73 -209.5t196 -77.5q88 0 164 35l-2 141q-15 -8 -30 -13t-33 -6.5t-29 -2t-33.5 0t-30.5 0.5q-89 5 -128.5 34t-46.5 98q0 101 46 158.5t133 57.5
q77 0 154 -42v79z" />
    <glyph glyph-name="Dcaron" unicode="&#x10e;" horiz-adv-x="759" 
d="M390 798l120 184h-68l-88 -120l-88 120h-68l120 -184h72zM73 0h203q211 0 310.5 88.5t99.5 276.5t-99 276t-311 88h-203v-729zM296 648q149 0 219 -67.5t70 -205.5q-11 -110 -73.5 -150.5t-215.5 -40.5h-119v464h119z" />
    <glyph glyph-name="dcaron" unicode="&#x10f;" horiz-adv-x="645" 
d="M656 772l-49 -189h76l98 189v90h-125v-90zM472 464q-55 96 -175 96q-99 0 -161.5 -79.5t-62.5 -207.5t62.5 -207.5t161.5 -79.5q120 0 175 96v-82h90l10 760h-90zM138 283q0 99 40.5 155.5t112.5 56.5q136 0 141 -205q-2 -86 -34.5 -113.5t-109.5 -27.5q-71 0 -105 31
t-45 103z" />
    <glyph glyph-name="Dcroat" unicode="&#x110;" horiz-adv-x="759" 
d="M208 816h292v72h-292v-72zM73 0h203q211 0 310.5 88.5t99.5 276.5t-99 276t-311 88h-203v-729zM296 648q149 0 219 -67.5t70 -205.5q-11 -110 -73.5 -150.5t-215.5 -40.5h-119v464h119z" />
    <glyph glyph-name="dcroat" unicode="&#x111;" horiz-adv-x="710" 
d="M472 464q-55 96 -175 96q-99 0 -161.5 -79.5t-62.5 -207.5t62.5 -207.5t161.5 -79.5q120 0 175 96v-82h90v627h75v61h-75v72h-90v-72h-159v-61h159v-163zM166 294q0 89 41 140t112 51t112 -51t41 -140t-41 -140t-112 -51t-112 51t-41 140z" />
    <glyph glyph-name="Emacron" unicode="&#x112;" horiz-adv-x="616" 
d="M146 792h292v72h-292v-72zM73 0h470v151h-371v196h347v83h-347v216h362v83h-461v-729z" />
    <glyph glyph-name="emacron" unicode="&#x113;" 
d="M183 634h292v72h-292v-72zM575 330q-9 116 -65.5 170.5t-167.5 59.5q-122 0 -193 -78t-76 -214q0 -129 76 -203t208 -79q105 0 203 42l-2 124q-30 -16 -67.5 -23.5t-60 -8.5t-70.5 -1q-100 5 -146 40t-47 137h408v34zM177 374q0 53 47 96t118 43q62 0 104.5 -43t50.5 -95
z" />
    <glyph glyph-name="Edotaccent" unicode="&#x116;" horiz-adv-x="616" 
d="M242 816h100v100h-100v-100zM73 0h470v151h-371v196h347v83h-347v216h362v83h-461v-729z" />
    <glyph glyph-name="edotaccent" unicode="&#x117;" 
d="M279 658h100v100h-100v-100zM575 330q-9 116 -65.5 170.5t-167.5 59.5q-122 0 -193 -78t-76 -214q0 -129 76 -203t208 -79q105 0 203 42l-2 124q-30 -16 -67.5 -23.5t-60 -8.5t-70.5 -1q-100 5 -146 40t-47 137h408v34zM177 374q0 53 47 96t118 43q62 0 104.5 -43
t50.5 -95z" />
    <glyph glyph-name="Eogonek" unicode="&#x118;" horiz-adv-x="616" 
d="M543 0h-179q-43 -59 -43 -88q0 -45 53 -45q31 0 61 15v-65q-42 -10 -66 -10q-60 0 -88 21t-28 67q0 45 53 105h-233v729h461v-83h-362v-216h347v-83h-347v-196h371v-151z" />
    <glyph glyph-name="eogonek" unicode="&#x119;" 
d="M575 330v-34h-408q1 -102 47 -137t146 -40q48 0 70.5 1t60 8.5t67.5 23.5l2 -124q-53 -24 -118 -35h18q-43 -59 -43 -88q0 -45 53 -45q31 0 61 15v-65q-42 -10 -66 -10q-60 0 -88 21t-28 67q0 42 48 100q-26 -2 -40 -2q-132 5 -208 79t-76 203q5 136 76 214t193 78
q111 -5 167.5 -59.5t65.5 -170.5zM177 374l320 1q-8 52 -50.5 95t-104.5 43q-71 0 -118 -43t-47 -96z" />
    <glyph glyph-name="Ecaron" unicode="&#x11a;" horiz-adv-x="616" 
d="M328 774l120 184h-68l-88 -120l-88 120h-68l120 -184h72zM73 0h470v151h-371v196h347v83h-347v216h362v83h-461v-729z" />
    <glyph glyph-name="ecaron" unicode="&#x11b;" 
d="M365 616l120 184h-68l-88 -120l-88 120h-68l120 -184h72zM575 330q-9 116 -65.5 170.5t-167.5 59.5q-122 0 -193 -78t-76 -214q0 -129 76 -203t208 -79q105 0 203 42l-2 124q-30 -16 -67.5 -23.5t-60 -8.5t-70.5 -1q-100 5 -146 40t-47 137h408v34zM177 374q0 53 47 96
t118 43q62 0 104.5 -43t50.5 -95z" />
    <glyph glyph-name="Gbreve" unicode="&#x11e;" horiz-adv-x="783" 
d="M251 940q11 -140 153 -140q144 0 153 140h-58q-12 -73 -95 -73q-85 0 -95 73h-58zM598 182q-36 -37 -153 -37q-139 0 -201 49t-67 180q0 297 268 297q137 0 246 -93v95q-110 69 -254 69q-171 0 -267.5 -100t-96.5 -278t96.5 -278t267.5 -100q158 0 273 82v298h-269v-105
h157v-79z" />
    <glyph glyph-name="gbreve" unicode="&#x11f;" horiz-adv-x="645" 
d="M180 758q11 -140 153 -140q144 0 153 140h-58q-12 -73 -95 -73q-85 0 -95 73h-58zM572 547h-90l-10 -83q-56 96 -175 96q-101 0 -162.5 -77t-61.5 -203t61.5 -203t162.5 -77q57 0 101.5 23t68.5 59v-30q-13 -63 -57.5 -115t-123.5 -52q-80 0 -157 42v-160q81 -29 171 -29
q132 0 191.5 72.5t65.5 257.5zM433 285q0 -47 -10.5 -76t-34 -42t-48.5 -17t-67 -4q-41 0 -62.5 3.5t-41 17.5t-28.5 42t-14 76q0 98 40.5 151.5t112.5 53.5q73 0 113 -53.5t40 -151.5z" />
    <glyph glyph-name="Gdotaccent" unicode="&#x120;" horiz-adv-x="783" 
d="M354 840h100v100h-100v-100zM598 182q-36 -37 -153 -37q-139 0 -201 49t-67 180q0 297 268 297q137 0 246 -93v95q-110 69 -254 69q-171 0 -267.5 -100t-96.5 -278t96.5 -278t267.5 -100q158 0 273 82v298h-269v-105h157v-79z" />
    <glyph glyph-name="gdotaccent" unicode="&#x121;" horiz-adv-x="645" 
d="M283 658h100v100h-100v-100zM572 547h-90l-10 -83q-56 96 -175 96q-101 0 -162.5 -77t-61.5 -203t61.5 -203t162.5 -77q57 0 101.5 23t68.5 59v-30q-13 -63 -57.5 -115t-123.5 -52q-80 0 -157 42v-160q81 -29 171 -29q132 0 191.5 72.5t65.5 257.5zM433 285
q0 -47 -10.5 -76t-34 -42t-48.5 -17t-67 -4q-41 0 -62.5 3.5t-41 17.5t-28.5 42t-14 76q0 98 40.5 151.5t112.5 53.5q73 0 113 -53.5t40 -151.5z" />
    <glyph glyph-name="Gcommaaccent" unicode="&#x122;" horiz-adv-x="783" 
d="M598 182q-36 -37 -153 -37q-139 0 -201 49t-67 180q0 297 268 297q137 0 246 -93v95q-110 69 -254 69q-171 0 -267.5 -100t-96.5 -278t96.5 -278t267.5 -100q158 0 273 82v298h-269v-105h157v-79zM359 -179l-50 -157h63l110 157v103h-123v-103z" />
    <glyph glyph-name="gcommaaccent" unicode="&#x123;" horiz-adv-x="645" 
d="M572 547h-90l-10 -83q-56 96 -175 96q-101 0 -162.5 -77t-61.5 -203t61.5 -203t162.5 -77q57 0 101.5 23t68.5 59v-30q-13 -63 -57.5 -115t-123.5 -52q-80 0 -157 42v-160q81 -29 171 -29q132 0 191.5 72.5t65.5 257.5zM433 285q0 -47 -10.5 -76t-34 -42t-48.5 -17
t-67 -4q-41 0 -62.5 3.5t-41 17.5t-28.5 42t-14 76q0 98 40.5 151.5t112.5 53.5q73 0 113 -53.5t40 -151.5zM237 -365l-50 -157h63l110 157v103h-123v-103z" />
    <glyph glyph-name="Hbar" unicode="&#x126;" horiz-adv-x="712" 
d="M693 542h-61l7 -542h-114v245h-338v-245h-114l7 542h-62l4 70h59l2 117h104v-117h338v117h104l2 -117h57zM525 381v161h-338v-161h338z" />
    <glyph glyph-name="hbar" unicode="&#x127;" horiz-adv-x="624" 
d="M437 0l14 327q4 90 -26.5 127.5t-94.5 37.5q-72 0 -114.5 -51t-42.5 -132l10 -309h-110l16 620h-68l15 60h55l2 80h90l-3 -80h176l10 -60h-188l-5 -158q64 98 177 98q191 0 191 -230l10 -330h-114z" />
    <glyph glyph-name="Itilde" unicode="&#x128;" horiz-adv-x="265" 
d="M135 998q33 -30 68 -30q44 0 69.5 36t26.5 102h-62q0 -40 -9 -58t-28 -18q-13 0 -33 19l-28 27q-33 30 -68 30q-44 0 -68.5 -36t-26.5 -102h61q2 41 10 58q9 18 27 18q12 0 34 -19zM73 0h118q-5 85 -7.5 186.5t-3.5 174t-1.5 190t-1.5 178.5h-84q-1 -61 -3 -178.5
t-3.5 -190t-5 -174t-8.5 -186.5z" />
    <glyph glyph-name="itilde" unicode="&#x129;" horiz-adv-x="261" 
d="M115 816q33 -30 68 -30q44 0 69.5 36t26.5 102h-62q0 -40 -9 -58t-28 -18q-13 0 -33 19l-28 27q-33 30 -68 30q-44 0 -68.5 -36t-26.5 -102h61q2 41 10 58q9 18 27 18q12 0 34 -19zM73 0h115q-30 282 -20 547h-80q2 -300 -15 -547z" />
    <glyph glyph-name="Imacron" unicode="&#x12a;" horiz-adv-x="265" 
d="M-9 816h292v72h-292v-72zM73 0h118q-5 85 -7.5 186.5t-3.5 174t-1.5 190t-1.5 178.5h-84q-1 -61 -3 -178.5t-3.5 -190t-5 -174t-8.5 -186.5z" />
    <glyph glyph-name="imacron" unicode="&#x12b;" horiz-adv-x="261" 
d="M-29 634h292v72h-292v-72zM73 0h115q-30 282 -20 547h-80q2 -300 -15 -547z" />
    <glyph glyph-name="Iogonek" unicode="&#x12e;" horiz-adv-x="265" 
d="M176 -133q31 0 61 15v-65q-42 -10 -66 -10q-60 0 -88 21t-28 67q0 45 53 105h-35q5 85 8.5 186.5t5 174t3.5 190t3 178.5h84q1 -61 1.5 -178.5t1.5 -190t3.5 -174t7.5 -186.5h-25q-43 -59 -43 -88q0 -45 53 -45z" />
    <glyph glyph-name="iogonek" unicode="&#x12f;" horiz-adv-x="261" 
d="M167 758v-100h-100v100h100zM175 -118q31 0 61 15v-65q-42 -10 -66 -10q-60 0 -88 21t-28 67q0 40 40 90h-21q17 247 15 547h80q-10 -265 20 -547h-34q-32 -49 -32 -73q0 -45 53 -45z" />
    <glyph glyph-name="Idotaccent" unicode="&#x130;" horiz-adv-x="265" 
d="M87 840h100v100h-100v-100zM73 0h118q-5 85 -7.5 186.5t-3.5 174t-1.5 190t-1.5 178.5h-84q-1 -61 -3 -178.5t-3.5 -190t-5 -174t-8.5 -186.5z" />
    <glyph glyph-name="dotlessi" unicode="&#x131;" horiz-adv-x="261" 
d="M73 0h115q-30 282 -20 547h-80q2 -300 -15 -547z" />
    <glyph glyph-name="IJ" unicode="&#x132;" horiz-adv-x="668" 
d="M465 37q-1 -35 -33 -62t-93 -30l-50 11l2 -161l57 -6q117 2 167.5 56.5t53.5 185.5l26 692l-104 7zM73 0h118q-5 85 -7.5 186.5t-3.5 174t-1.5 190t-1.5 178.5h-84q-1 -61 -3 -178.5t-3.5 -190t-5 -174t-8.5 -186.5z" />
    <glyph glyph-name="ij" unicode="&#x133;" horiz-adv-x="619" 
d="M83 646h90l-5 114h-80zM456 646h90l-5 114h-80zM73 0h115q-30 282 -20 547h-80q2 -300 -15 -547zM417 46q-4 -84 -21 -107t-70 -27h-38l-3 -135l49 -1q88 4 129 54.5t43 155.5l19 557l-85 1z" />
    <glyph glyph-name="Kcommaaccent" unicode="&#x136;" horiz-adv-x="735" 
d="M73 0h128l-19 351l247 -351h233l-388 389l362 340h-127l-327 -308l9 308h-98zM248 -163l-50 -157h63l110 157v103h-123v-103z" />
    <glyph glyph-name="kcommaaccent" unicode="&#x137;" horiz-adv-x="646" 
d="M73 0h120l-15 257l210 -257h185l-302 291l207 256h-115l-185 -216l5 429h-90zM219 -132l-50 -157h63l110 157v103h-123v-103z" />
    <glyph glyph-name="Lacute" unicode="&#x139;" horiz-adv-x="605" 
d="M110 978h83l177 204h-107zM73 0h449l10 151h-355l5 578h-99z" />
    <glyph glyph-name="lacute" unicode="&#x13a;" horiz-adv-x="342" 
d="M101 934h83l177 204h-107zM73 0h196v111h-106q3 294 20 605h-85q-19 -348 -25 -716z" />
    <glyph glyph-name="Lcommaaccent" unicode="&#x13b;" horiz-adv-x="605" 
d="M73 0h449l10 151h-355l5 578h-99zM231 -160l-50 -157h63l110 157v103h-123v-103z" />
    <glyph glyph-name="lcommaaccent" unicode="&#x13c;" horiz-adv-x="342" 
d="M73 0h196v111h-106q3 294 20 605h-85q-19 -348 -25 -716zM93 -140l-50 -157h63l110 157v103h-123v-103z" />
    <glyph glyph-name="Lcaron" unicode="&#x13d;" horiz-adv-x="605" 
d="M364 700l-49 -189h76l98 189v90h-125v-90zM73 0h449l10 151h-355l5 578h-99z" />
    <glyph glyph-name="lcaron" unicode="&#x13e;" horiz-adv-x="342" 
d="M267 774l-49 -189h76l98 189v90h-125v-90zM73 0h196v111h-106q3 294 20 605h-85q-19 -348 -25 -716z" />
    <glyph glyph-name="Ldot" unicode="&#x13f;" horiz-adv-x="605" 
d="M73 0h449l10 151h-355l5 578h-99zM322 285h103v124h-103v-124z" />
    <glyph glyph-name="ldot" unicode="&#x140;" horiz-adv-x="342" 
d="M73 0h196v111h-106q3 294 20 605h-85q-19 -348 -25 -716zM231 315h103v124h-103v-124z" />
    <glyph glyph-name="Lslash" unicode="&#x141;" horiz-adv-x="710" 
d="M183 358l-110 -77l38 -54l72 52v-279h454v83h-355v264l192 134l-39 54l-153 -107v301h-99v-371z" />
    <glyph glyph-name="lslash" unicode="&#x142;" horiz-adv-x="302" 
d="M106 403l-96 -69l36 -52l60 43v-325h90v389l98 69l-37 52l-61 -44v294h-90v-357z" />
    <glyph glyph-name="Nacute" unicode="&#x143;" horiz-adv-x="708" 
d="M320 978h83l177 204h-107zM73 0h125l-29 610l323 -610h143v729h-91l-15 -590l-313 575h-123z" />
    <glyph glyph-name="nacute" unicode="&#x144;" horiz-adv-x="639" 
d="M270 796h83l177 204h-107zM551 330q-11 230 -196 230q-83 0 -177 -74v66h-90l-15 -552h125l-15 314q0 82 40.5 127.5t121.5 45.5q59 0 85 -37.5t26 -117.5l-19 -332h128z" />
    <glyph glyph-name="Ncommaaccent" unicode="&#x145;" horiz-adv-x="708" 
d="M73 0h125l-29 610l323 -610h143v729h-91l-15 -590l-313 575h-123zM275 -138l-50 -157h63l110 157v103h-123v-103z" />
    <glyph glyph-name="ncommaaccent" unicode="&#x146;" horiz-adv-x="639" 
d="M551 330q-11 230 -196 230q-83 0 -177 -74v66h-90l-15 -552h125l-15 314q0 82 40.5 127.5t121.5 45.5q59 0 85 -37.5t26 -117.5l-19 -332h128zM235 -132l-50 -157h63l110 157v103h-123v-103z" />
    <glyph glyph-name="Ncaron" unicode="&#x147;" horiz-adv-x="708" 
d="M396 798l120 184h-68l-88 -120l-88 120h-68l120 -184h72zM73 0h125l-29 610l323 -610h143v729h-91l-15 -590l-313 575h-123z" />
    <glyph glyph-name="ncaron" unicode="&#x148;" horiz-adv-x="639" 
d="M346 616l120 184h-68l-88 -120l-88 120h-68l120 -184h72zM551 330q-11 230 -196 230q-83 0 -177 -74v66h-90l-15 -552h125l-15 314q0 82 40.5 127.5t121.5 45.5q59 0 85 -37.5t26 -117.5l-19 -332h128z" />
    <glyph glyph-name="Eng" unicode="&#x14a;" horiz-adv-x="708" 
d="M544 729h91v-729h-1l-51 -141l-52 -89q-5 3 -90 33t-100 53q16 15 64.5 51t65.5 51q17 21 21 42l-323 610l29 -610h-125l20 714h123l313 -575z" />
    <glyph glyph-name="eng" unicode="&#x14b;" horiz-adv-x="639" 
d="M551 330q0 31 -3.5 59t-16 60.5t-33 56t-57.5 39t-86 15.5q-83 0 -177 -74v66h-90l-15 -552h125l-15 314q0 82 40.5 127.5t121.5 45.5q59 0 85 -37.5t26 -117.5l-9 -320q0 -11 -65 -33t-70 -33q-12 -21 16 -64t51 -43q4 0 38 13.5t75.5 39t50.5 49.5q15 40 15 130
q0 84 -7 259z" />
    <glyph glyph-name="Omacron" unicode="&#x14c;" horiz-adv-x="821" 
d="M265 816h292v72h-292v-72zM411 742q-154 0 -246 -103t-92 -275q0 -173 92 -275.5t246 -102.5t245.5 103t91.5 275t-91.5 275t-245.5 103zM411 662q107 0 170 -80t63 -218q0 -107 -58.5 -149t-174.5 -42t-175 42t-59 149q0 138 63 218t171 80z" />
    <glyph glyph-name="omacron" unicode="&#x14d;" 
d="M178 634h292v72h-292v-72zM324 560q-118 0 -184.5 -76t-66.5 -211q0 -134 66.5 -210.5t184.5 -76.5q117 0 184 76.5t67 210.5q0 135 -67 211t-184 76zM324 494q72 0 114 -55.5t42 -149.5q0 -89 -38 -118.5t-118 -29.5q-81 0 -118.5 29.5t-37.5 118.5q0 95 42 150t114 55z
" />
    <glyph glyph-name="Ohungarumlaut" unicode="&#x150;" horiz-adv-x="821" 
d="M239 798h67l109 184h-83zM395 798h66l121 184h-87zM411 742q-154 0 -246 -103t-92 -275q0 -173 92 -275.5t246 -102.5t245.5 103t91.5 275t-91.5 275t-245.5 103zM411 662q107 0 170 -80t63 -218q0 -107 -58.5 -149t-174.5 -42t-175 42t-59 149q0 138 63 218t171 80z" />
    <glyph glyph-name="ohungarumlaut" unicode="&#x151;" 
d="M152 616h67l109 184h-83zM308 616h66l121 184h-87zM324 560q-118 0 -184.5 -76t-66.5 -211q0 -134 66.5 -210.5t184.5 -76.5q117 0 184 76.5t67 210.5q0 135 -67 211t-184 76zM324 494q72 0 114 -55.5t42 -149.5q0 -89 -38 -118.5t-118 -29.5q-81 0 -118.5 29.5
t-37.5 118.5q0 95 42 150t114 55z" />
    <glyph glyph-name="OE" unicode="&#x152;" horiz-adv-x="1140" 
d="M524 729q-211 0 -320 -92.5t-109 -271.5q0 -180 109 -272.5t320 -92.5h520v137h-371v244h357v83h-357v202h363v63h-512zM575 137h-63q-148 0 -230.5 67t-82.5 161q0 158 77 229.5t236 71.5h63v-529z" />
    <glyph glyph-name="oe" unicode="&#x153;" horiz-adv-x="1126" 
d="M1022 369q0 58 -69.5 124.5t-169.5 66.5q-143 0 -221 -107q-66 107 -204 107q-117 0 -184 -76t-67 -211q0 -134 67 -210.5t184 -76.5q137 0 205 107q80 -107 236 -107q106 0 202 42v114q-95 -51 -197 -51q-34 0 -55.5 2t-45.5 9.5t-38.5 23t-27.5 41t-19.5 64.5t-8.5 94
h413v44zM612 390q9 40 56.5 79t115.5 39q61 0 104 -40.5t44 -76.5zM358 499q72 0 114 -53t42 -142t-42 -141.5t-114 -52.5q-73 0 -114.5 52t-41.5 142q0 91 42 143t114 52z" />
    <glyph glyph-name="Racute" unicode="&#x154;" horiz-adv-x="714" 
d="M273 978h83l177 204h-107zM419 342q52 18 81 63.5t29 113.5q0 104 -60.5 157t-172.5 53h-223v-729h118v308h74q60 0 93.5 -24.5t68.5 -96.5l74 -187h140l-100 199q-61 123 -122 143zM306 677q66 0 109.5 -36t43.5 -122q0 -43 -48 -76.5t-105 -33.5h-124v268h124z" />
    <glyph glyph-name="racute" unicode="&#x155;" horiz-adv-x="478" 
d="M156 796h83l177 204h-107zM404 545q-23 5 -40 5q-88 0 -170 -64v56h-83q6 -177 -1 -275.5t-37 -266.5h141l-20 273q0 192 143 192q48 0 68 -12z" />
    <glyph glyph-name="Rcommaaccent" unicode="&#x156;" horiz-adv-x="714" 
d="M419 342q52 18 81 63.5t29 113.5q0 104 -60.5 157t-172.5 53h-223v-729h118v308h74q60 0 93.5 -24.5t68.5 -96.5l74 -187h140l-100 199q-61 123 -122 143zM306 677q66 0 109.5 -36t43.5 -122q0 -43 -48 -76.5t-105 -33.5h-124v268h124zM259 -102l-50 -157h63l110 157v103
h-123v-103z" />
    <glyph glyph-name="rcommaaccent" unicode="&#x157;" horiz-adv-x="478" 
d="M404 545q-23 5 -40 5q-88 0 -170 -64v56h-83q6 -177 -1 -275.5t-37 -266.5h141l-20 273q0 192 143 192q48 0 68 -12zM72 -129l-50 -157h63l110 157v103h-123v-103z" />
    <glyph glyph-name="Rcaron" unicode="&#x158;" horiz-adv-x="714" 
d="M349 798l120 184h-68l-88 -120l-88 120h-68l120 -184h72zM419 342q52 18 81 63.5t29 113.5q0 104 -60.5 157t-172.5 53h-223v-729h118v308h74q60 0 93.5 -24.5t68.5 -96.5l74 -187h140l-100 199q-61 123 -122 143zM306 677q66 0 109.5 -36t43.5 -122q0 -43 -48 -76.5
t-105 -33.5h-124v268h124z" />
    <glyph glyph-name="rcaron" unicode="&#x159;" horiz-adv-x="478" 
d="M232 616l120 184h-68l-88 -120l-88 120h-68l120 -184h72zM404 545q-23 5 -40 5q-88 0 -170 -64v56h-83q6 -177 -1 -275.5t-37 -266.5h141l-20 273q0 192 143 192q48 0 68 -12z" />
    <glyph glyph-name="Sacute" unicode="&#x15a;" horiz-adv-x="660" 
d="M281 978h83l177 204h-107zM542 705q-110 37 -213 37q-120 0 -188 -55.5t-68 -152.5q0 -83 49.5 -130t159.5 -69l60 -12q70 -14 105.5 -43.5t35.5 -61.5q0 -36 -48.5 -67t-127.5 -31q-110 0 -231 68v-156q125 -46 231 -46q137 0 208 54.5t71 160.5q0 89 -52.5 142
t-162.5 74l-59 12q-80 15 -110 39.5t-30 73.5q0 58 44 89t124 31q93 0 202 -53v96z" />
    <glyph glyph-name="sacute" unicode="&#x15b;" horiz-adv-x="564" 
d="M234 796h83l177 204h-107zM462 531q-75 29 -175 29q-101 0 -155.5 -42t-54.5 -119q0 -62 36.5 -94t121.5 -50l31 -7q86 -20 95 -32q11 -13 28 -43q0 -73 -122 -73q-94 0 -194 52v-132q105 -34 192 -34q106 0 166 44t60 121q0 66 -40 101.5t-136 55.5l-31 7q-71 16 -98 36
t-27 57q0 41 36 64t103 23q84 0 164 -39v75z" />
    <glyph glyph-name="Scedilla" unicode="&#x15e;" horiz-adv-x="660" 
d="M586 201q0 -184 -209 -211q45 -52 45 -95q0 -88 -116 -88q-44 0 -86 12v64q32 -16 76 -16q58 0 58 46q0 25 -33 73h-14q-106 0 -231 46v156q121 -68 231 -68q79 0 127.5 31t48.5 67q0 32 -35.5 61.5t-105.5 43.5l-60 12q-110 22 -159.5 69t-49.5 130q0 97 68 152.5
t188 55.5q103 0 213 -37v-96q-109 53 -202 53q-80 0 -124 -31t-44 -89q0 -49 30 -73.5t110 -39.5l59 -12q110 -21 162.5 -74t52.5 -142z" />
    <glyph glyph-name="scedilla" unicode="&#x15f;" horiz-adv-x="564" 
d="M491 151q0 -64 -42 -105.5t-119 -54.5q45 -56 45 -96q0 -88 -116 -88q-44 0 -86 12v64q32 -16 76 -16q58 0 58 46q0 25 -33 73h-9q-87 0 -192 34v132q100 -52 194 -52q122 0 122 73q-17 30 -28 43q-9 12 -95 32l-31 7q-85 18 -121.5 50t-36.5 94q0 77 54.5 119t155.5 42
q100 0 175 -29v-75q-80 39 -164 39q-67 0 -103 -23t-36 -64q0 -37 27 -57t98 -36l31 -7q96 -20 136 -55.5t40 -101.5z" />
    <glyph glyph-name="Scaron" unicode="&#x160;" horiz-adv-x="660" 
d="M357 798l120 184h-68l-88 -120l-88 120h-68l120 -184h72zM542 705q-110 37 -213 37q-120 0 -188 -55.5t-68 -152.5q0 -83 49.5 -130t159.5 -69l60 -12q70 -14 105.5 -43.5t35.5 -61.5q0 -36 -48.5 -67t-127.5 -31q-110 0 -231 68v-156q125 -46 231 -46q137 0 208 54.5
t71 160.5q0 89 -52.5 142t-162.5 74l-59 12q-80 15 -110 39.5t-30 73.5q0 58 44 89t124 31q93 0 202 -53v96z" />
    <glyph glyph-name="scaron" unicode="&#x161;" horiz-adv-x="564" 
d="M310 616l120 184h-68l-88 -120l-88 120h-68l120 -184h72zM462 531q-75 29 -175 29q-101 0 -155.5 -42t-54.5 -119q0 -62 36.5 -94t121.5 -50l31 -7q86 -20 95 -32q11 -13 28 -43q0 -73 -122 -73q-94 0 -194 52v-132q105 -34 192 -34q106 0 166 44t60 121q0 66 -40 101.5
t-136 55.5l-31 7q-71 16 -98 36t-27 57q0 41 36 64t103 23q84 0 164 -39v75z" />
    <glyph glyph-name="uni0162" unicode="&#x162;" horiz-adv-x="763" 
d="M690 729v-83l-259 10l20 -656h-22q53 -60 53 -105q0 -88 -116 -88q-44 0 -86 12v64q32 -16 76 -16q58 0 58 46q0 28 -43 87h-58l19 656l-259 -10v83h617z" />
    <glyph glyph-name="uni0163" unicode="&#x163;" horiz-adv-x="488" 
d="M415 134v-134h-85q53 -60 53 -105q0 -88 -116 -88q-44 0 -86 12v64q32 -16 76 -16q58 0 58 46q0 28 -43 87h50q-105 0 -146.5 39t-41.5 141l5 297h-66v70h66l5 136h95l-5 -136h127v-70h-127l-5 -238q0 -66 18 -85.5t75 -19.5h93z" />
    <glyph glyph-name="Tcaron" unicode="&#x164;" horiz-adv-x="763" 
d="M417 798l120 184h-68l-88 -120l-88 120h-68l120 -184h72zM73 646l259 10l-19 -656h138l-20 656l259 -10v83h-617v-83z" />
    <glyph glyph-name="tcaron" unicode="&#x165;" horiz-adv-x="488" 
d="M322 834l-49 -189h76l98 189v90h-125v-90zM144 683l-5 -136h-66v-70h66l-5 -297q0 -102 41.5 -141t146.5 -39h93v134h-93q-57 0 -75 19.5t-18 85.5l5 238h127v70h-127l5 136h-95z" />
    <glyph glyph-name="Tbar" unicode="&#x166;" horiz-adv-x="763" 
d="M235 816h292v72h-292v-72zM73 646l259 10l-19 -656h138l-20 656l259 -10v83h-617v-83z" />
    <glyph glyph-name="tbar" unicode="&#x167;" horiz-adv-x="488" 
d="M44 748h292v72h-292v-72zM144 683l-5 -136h-66v-70h66l-5 -297q0 -102 41.5 -141t146.5 -39h93v134h-93q-57 0 -75 19.5t-18 85.5l5 238h127v70h-127l5 136h-95z" />
    <glyph glyph-name="Utilde" unicode="&#x168;" horiz-adv-x="705" 
d="M350 998q33 -30 68 -30q44 0 69.5 36t26.5 102h-62q0 -40 -9 -58t-28 -18q-13 0 -33 19l-28 27q-33 30 -68 30q-44 0 -68.5 -36t-26.5 -102h61q2 41 10 58q9 18 27 18q12 0 34 -19zM73 274q0 -143 70.5 -215.5t209.5 -72.5q137 0 207.5 73t70.5 215v455h-104l10 -375
q3 -115 -42.5 -167.5t-141.5 -52.5q-97 0 -142.5 52.5t-43.5 167.5l10 375h-104v-455z" />
    <glyph glyph-name="utilde" unicode="&#x169;" horiz-adv-x="609" 
d="M306 816q33 -30 68 -30q44 0 69.5 36t26.5 102h-62q0 -40 -9 -58t-28 -18q-13 0 -33 19l-28 27q-33 30 -68 30q-44 0 -68.5 -36t-26.5 -102h61q2 41 10 58q9 18 27 18q12 0 34 -19zM73 216q0 -113 49 -171.5t143 -58.5q112 0 176 98l-4 -84h89l10 547h-99l-10 -232
q-5 -82 -45 -127.5t-112 -45.5q-59 0 -88 38t-34 117v250h-75v-331z" />
    <glyph glyph-name="Umacron" unicode="&#x16a;" horiz-adv-x="705" 
d="M206 816h292v72h-292v-72zM73 274q0 -143 70.5 -215.5t209.5 -72.5q137 0 207.5 73t70.5 215v455h-104l10 -375q3 -115 -42.5 -167.5t-141.5 -52.5q-97 0 -142.5 52.5t-43.5 167.5l10 375h-104v-455z" />
    <glyph glyph-name="umacron" unicode="&#x16b;" horiz-adv-x="609" 
d="M162 634h292v72h-292v-72zM73 216q0 -113 49 -171.5t143 -58.5q112 0 176 98l-4 -84h89l10 547h-99l-10 -232q-5 -82 -45 -127.5t-112 -45.5q-59 0 -88 38t-34 117v250h-75v-331z" />
    <glyph glyph-name="Uring" unicode="&#x16e;" horiz-adv-x="705" 
d="M486 926q0 56 -39 95t-95 39t-95 -39t-39 -95t39 -95t95 -39t95 39t39 95zM426 926q0 -31 -21.5 -52.5t-52.5 -21.5q-32 0 -53 21t-21 53t21 53t53 21q31 0 52.5 -21.5t21.5 -52.5zM73 274q0 -143 70.5 -215.5t209.5 -72.5q137 0 207.5 73t70.5 215v455h-104l10 -375
q3 -115 -42.5 -167.5t-141.5 -52.5q-97 0 -142.5 52.5t-43.5 167.5l10 375h-104v-455z" />
    <glyph glyph-name="uring" unicode="&#x16f;" horiz-adv-x="609" 
d="M442 744q0 56 -39 95t-95 39t-95 -39t-39 -95t39 -95t95 -39t95 39t39 95zM382 744q0 -31 -21.5 -52.5t-52.5 -21.5q-32 0 -53 21t-21 53t21 53t53 21q31 0 52.5 -21.5t21.5 -52.5zM73 216q0 -113 49 -171.5t143 -58.5q112 0 176 98l-4 -84h89l10 547h-99l-10 -232
q-5 -82 -45 -127.5t-112 -45.5q-59 0 -88 38t-34 117v250h-75v-331z" />
    <glyph glyph-name="Uhungarumlaut" unicode="&#x170;" horiz-adv-x="705" 
d="M180 798h67l109 184h-83zM336 798h66l121 184h-87zM73 274q0 -143 70.5 -215.5t209.5 -72.5q137 0 207.5 73t70.5 215v455h-104l10 -375q3 -115 -42.5 -167.5t-141.5 -52.5q-97 0 -142.5 52.5t-43.5 167.5l10 375h-104v-455z" />
    <glyph glyph-name="uhungarumlaut" unicode="&#x171;" horiz-adv-x="609" 
d="M136 616h67l109 184h-83zM292 616h66l121 184h-87zM73 216q0 -113 49 -171.5t143 -58.5q112 0 176 98l-4 -84h89l10 547h-99l-10 -232q-5 -82 -45 -127.5t-112 -45.5q-59 0 -88 38t-34 117v250h-75v-331z" />
    <glyph glyph-name="Uogonek" unicode="&#x172;" horiz-adv-x="705" 
d="M527 729h104v-455q0 -270 -247 -287q-34 -49 -34 -75q0 -45 53 -45q31 0 61 15v-65q-42 -10 -66 -10q-60 0 -88 21t-28 67q0 41 42 92q-251 15 -251 287v455h104l-10 -375q-2 -115 43.5 -167.5t142.5 -52.5q96 0 141.5 52.5t42.5 167.5z" />
    <glyph glyph-name="uogonek" unicode="&#x173;" horiz-adv-x="609" 
d="M527 -128q31 0 61 15v-65q-42 -10 -66 -10q-60 0 -88 21t-28 67q0 42 49 100h-18l4 84q-64 -98 -176 -98q-94 0 -143 58.5t-49 171.5v331h75v-250q5 -79 34 -117t88 -38q72 0 112 45.5t45 127.5l10 232h99l-10 -547h-13q-39 -56 -39 -83q0 -45 53 -45z" />
    <glyph glyph-name="Wcircumflex" unicode="&#x174;" horiz-adv-x="1069" 
d="M376 781h68l88 120l88 -120h68l-120 184h-72zM236 0h154l145 394l134 -394h144l183 729h-95l-168 -533l-158 347h-86l-173 -337l-148 523h-95z" />
    <glyph glyph-name="wcircumflex" unicode="&#x175;" horiz-adv-x="880" 
d="M284 599h68l88 120l88 -120h68l-120 184h-72zM216 0h121l103 248l99 -248h125l143 547h-90l-112 -383l-102 202h-126l-102 -202l-112 383h-90z" />
    <glyph glyph-name="Ycircumflex" unicode="&#x176;" horiz-adv-x="761" 
d="M224 781h68l88 120l88 -120h68l-120 184h-72zM312 250v-250h133v250l243 479h-106l-201 -373l-202 373h-106z" />
    <glyph glyph-name="ycircumflex" unicode="&#x177;" horiz-adv-x="679" 
d="M140 599h68l88 120l88 -120h68l-120 184h-72zM605 547h-95l-148 -318l-194 318h-95l234 -502l-38 -77q-21 -26 -32 -37t-29.5 -20.5t-41.5 -9.5h-63v-119h82q64 0 104 32.5t86 134.5z" />
    <glyph glyph-name="Ydieresis" unicode="&#x178;" horiz-adv-x="761" 
d="M224 841h107v106h-107v-106zM429 841h106v106h-106v-106zM312 250v-250h133v250l243 479h-106l-201 -373l-202 373h-106z" />
    <glyph glyph-name="Zacute" unicode="&#x179;" horiz-adv-x="742" 
d="M353 978h83l177 204h-107zM84 646h450l-461 -507v-139h595v146h-472l461 508v75h-573v-83z" />
    <glyph glyph-name="zacute" unicode="&#x17a;" horiz-adv-x="590" 
d="M278 796h83l177 204h-107zM95 480h326l-348 -349v-131h439v121h-304l309 344v82h-422v-67z" />
    <glyph glyph-name="Zdotaccent" unicode="&#x17b;" horiz-adv-x="742" 
d="M343 840h100v100h-100v-100zM84 646h450l-461 -507v-139h595v146h-472l461 508v75h-573v-83z" />
    <glyph glyph-name="zdotaccent" unicode="&#x17c;" horiz-adv-x="590" 
d="M268 658h100v100h-100v-100zM95 480h326l-348 -349v-131h439v121h-304l309 344v82h-422v-67z" />
    <glyph glyph-name="Zcaron" unicode="&#x17d;" horiz-adv-x="742" 
d="M429 798l120 184h-68l-88 -120l-88 120h-68l120 -184h72zM84 646h450l-461 -507v-139h595v146h-472l461 508v75h-573v-83z" />
    <glyph glyph-name="zcaron" unicode="&#x17e;" horiz-adv-x="590" 
d="M354 616l120 184h-68l-88 -120l-88 120h-68l120 -184h72zM95 480h326l-348 -349v-131h439v121h-304l309 344v82h-422v-67z" />
    <glyph glyph-name="florin" unicode="&#x192;" horiz-adv-x="757" 
d="M684 742q-45 18 -97 18q-73 0 -122 -48t-66 -137l-31 -161l-136 -10v-70l121 10l-38 -261q-16 -81 -43 -114.5t-74 -33.5q-45 0 -95 32l-30 -154q47 -21 100 -21q28 0 44 1t38.5 5t36 12.5t31 23t28.5 38t23.5 56t22 77.5t17.5 102l32 237l155 10v70l-140 -10l29 162
q12 64 40 94t75 30q42 0 79 -28v70z" />
    <glyph glyph-name="Ohorn" unicode="&#x1a0;" horiz-adv-x="821" 
d="M787 681q5 -20 5 -32q0 -77 -41 -114q-18 -15 -25 -20q22 -71 22 -151q0 -172 -91.5 -275t-245.5 -103t-246 102.5t-92 275.5q0 172 92 275t246 103q102 0 178.5 -47t117.5 -133q15 8 19 12q20 18 20 83q0 13 -7 30zM411 173q116 0 174.5 42t58.5 149q0 138 -63 218
t-170 80q-108 0 -171 -80t-63 -218q0 -107 59 -149t175 -42z" />
    <glyph glyph-name="ohorn" unicode="&#x1a1;" 
d="M620 526q5 -20 5 -32q0 -77 -41 -114q-4 -3 -10 -8t-8 -7q9 -42 9 -92q0 -134 -67 -210.5t-184 -76.5q-118 0 -184.5 76.5t-66.5 210.5q0 135 66.5 211t184.5 76q82 0 140 -38t87 -109l8 6q20 18 20 83q0 12 -7 30zM324 141q80 0 118 29.5t38 118.5q0 94 -42 149.5
t-114 55.5t-114 -55t-42 -150q0 -89 37.5 -118.5t118.5 -29.5z" />
    <glyph glyph-name="Uhorn" unicode="&#x1af;" horiz-adv-x="705" 
d="M713 748q5 -20 5 -32q0 -77 -41 -114q-32 -26 -46 -33v-295q0 -142 -70.5 -215t-207.5 -73q-139 0 -209.5 72.5t-70.5 215.5v455h104l-10 -375q-2 -115 43.5 -167.5t142.5 -52.5q96 0 141.5 52.5t42.5 167.5l-10 375h104v-101q14 7 21 13q20 18 20 83q0 12 -7 30z" />
    <glyph glyph-name="uhorn" unicode="&#x1b0;" horiz-adv-x="609" 
d="M618 580q5 -20 5 -32q0 -77 -41 -114q-31 -25 -49 -34l-7 -400h-89l4 84q-64 -98 -176 -98q-94 0 -143 58.5t-49 171.5v331h75v-250q5 -79 34 -117t88 -38q72 0 112 45.5t45 127.5l10 232h99l-2 -88q19 11 23 14q20 18 20 83q0 12 -7 30z" />
    <glyph glyph-name="uni01CD" unicode="&#x1cd;" horiz-adv-x="814" 
d="M449 750l120 184h-68l-88 -120l-88 120h-68l120 -184h72zM73 0h134l37 119h328l28 -119h141l-287 729h-93zM542 235h-269l134 404z" />
    <glyph glyph-name="uni01CE" unicode="&#x1ce;" horiz-adv-x="608" 
d="M354 616l120 184h-68l-88 -120l-88 120h-68l120 -184h72zM535 312q0 248 -236 248q-86 0 -186 -38v-73q82 45 177 45q155 -10 155 -140v-9h-126q-246 0 -246 -186q0 -79 50 -126t133 -47q126 0 189 92v-78h90v312zM395 279v-20q0 -84 -27 -110t-98 -26q-38 0 -59.5 3
t-39.5 17t-23 41q1 52 36 73.5t130 21.5h81z" />
    <glyph glyph-name="uni01CF" unicode="&#x1cf;" horiz-adv-x="265" 
d="M173 798l120 184h-68l-88 -120l-88 120h-68l120 -184h72zM73 0h118q-5 85 -7.5 186.5t-3.5 174t-1.5 190t-1.5 178.5h-84q-1 -61 -3 -178.5t-3.5 -190t-5 -174t-8.5 -186.5z" />
    <glyph glyph-name="uni01D0" unicode="&#x1d0;" horiz-adv-x="261" 
d="M153 616l120 184h-68l-88 -120l-88 120h-68l120 -184h72zM73 0h115q-30 282 -20 547h-80q2 -300 -15 -547z" />
    <glyph glyph-name="uni01D1" unicode="&#x1d1;" horiz-adv-x="821" 
d="M447 798l120 184h-68l-88 -120l-88 120h-68l120 -184h72zM411 742q-154 0 -246 -103t-92 -275q0 -173 92 -275.5t246 -102.5t245.5 103t91.5 275t-91.5 275t-245.5 103zM411 662q107 0 170 -80t63 -218q0 -107 -58.5 -149t-174.5 -42t-175 42t-59 149q0 138 63 218
t171 80z" />
    <glyph glyph-name="uni01D2" unicode="&#x1d2;" 
d="M360 616l120 184h-68l-88 -120l-88 120h-68l120 -184h72zM324 560q-118 0 -184.5 -76t-66.5 -211q0 -134 66.5 -210.5t184.5 -76.5q117 0 184 76.5t67 210.5q0 135 -67 211t-184 76zM324 494q72 0 114 -55.5t42 -149.5q0 -89 -38 -118.5t-118 -29.5q-81 0 -118.5 29.5
t-37.5 118.5q0 95 42 150t114 55z" />
    <glyph glyph-name="uni01D3" unicode="&#x1d3;" horiz-adv-x="705" 
d="M388 798l120 184h-68l-88 -120l-88 120h-68l120 -184h72zM73 274q0 -143 70.5 -215.5t209.5 -72.5q137 0 207.5 73t70.5 215v455h-104l10 -375q3 -115 -42.5 -167.5t-141.5 -52.5q-97 0 -142.5 52.5t-43.5 167.5l10 375h-104v-455z" />
    <glyph glyph-name="uni01D4" unicode="&#x1d4;" horiz-adv-x="609" 
d="M344 616l120 184h-68l-88 -120l-88 120h-68l120 -184h72zM73 216q0 -113 49 -171.5t143 -58.5q112 0 176 98l-4 -84h89l10 547h-99l-10 -232q-5 -82 -45 -127.5t-112 -45.5q-59 0 -88 38t-34 117v250h-75v-331z" />
    <glyph glyph-name="uni01D5" unicode="&#x1d5;" horiz-adv-x="705" 
d="M206 816v25h-10v106h107v-59h98v59h106v-106h-9v-25h-292zM527 729h104v-455q0 -142 -70.5 -215t-207.5 -73q-139 0 -209.5 72.5t-70.5 215.5v455h104l-10 -375q-2 -115 43.5 -167.5t142.5 -52.5q96 0 141.5 52.5t42.5 167.5z" />
    <glyph glyph-name="uni01D6" unicode="&#x1d6;" horiz-adv-x="609" 
d="M162 634v25h-10v106h107v-59h98v59h106v-106h-9v-25h-292zM437 547h99l-10 -547h-89l4 84q-64 -98 -176 -98q-94 0 -143 58.5t-49 171.5v331h75v-250q5 -79 34 -117t88 -38q72 0 112 45.5t45 127.5z" />
    <glyph glyph-name="uni01D7" unicode="&#x1d7;" horiz-adv-x="705" 
d="M312 978h83l177 204h-107zM196 841h107v106h-107v-106zM401 841h106v106h-106v-106zM73 274q0 -143 70.5 -215.5t209.5 -72.5q137 0 207.5 73t70.5 215v455h-104l10 -375q3 -115 -42.5 -167.5t-141.5 -52.5q-97 0 -142.5 52.5t-43.5 167.5l10 375h-104v-455z" />
    <glyph glyph-name="uni01D8" unicode="&#x1d8;" horiz-adv-x="609" 
d="M268 796h83l177 204h-107zM152 659h107v106h-107v-106zM357 659h106v106h-106v-106zM73 216q0 -113 49 -171.5t143 -58.5q112 0 176 98l-4 -84h89l10 547h-99l-10 -232q-5 -82 -45 -127.5t-112 -45.5q-59 0 -88 38t-34 117v250h-75v-331z" />
    <glyph glyph-name="uni01D9" unicode="&#x1d9;" horiz-adv-x="705" 
d="M316 798l-28 43h-92v106h23l-23 35h68l26 -35h13v-18l49 -67l49 67v18h13l26 35h68l-23 -35h22v-106h-91l-28 -43h-72zM527 729h104v-455q0 -142 -70.5 -215t-207.5 -73q-139 0 -209.5 72.5t-70.5 215.5v455h104l-10 -375q-2 -115 43.5 -167.5t142.5 -52.5
q96 0 141.5 52.5t42.5 167.5z" />
    <glyph glyph-name="uni01DA" unicode="&#x1da;" horiz-adv-x="609" 
d="M272 616l-28 43h-92v106h23l-23 35h68l26 -35h13v-18l49 -67l49 67v18h13l26 35h68l-23 -35h22v-106h-91l-28 -43h-72zM437 547h99l-10 -547h-89l4 84q-64 -98 -176 -98q-94 0 -143 58.5t-49 171.5v331h75v-250q5 -79 34 -117t88 -38q72 0 112 45.5t45 127.5z" />
    <glyph glyph-name="uni01DB" unicode="&#x1db;" horiz-adv-x="705" 
d="M191 1170l101 -183h133l-138 183h-96zM196 841h107v106h-107v-106zM401 841h106v106h-106v-106zM73 274q0 -143 70.5 -215.5t209.5 -72.5q137 0 207.5 73t70.5 215v455h-104l10 -375q3 -115 -42.5 -167.5t-141.5 -52.5q-97 0 -142.5 52.5t-43.5 167.5l10 375h-104v-455z
" />
    <glyph glyph-name="uni01DC" unicode="&#x1dc;" horiz-adv-x="609" 
d="M147 988l101 -183h133l-138 183h-96zM152 659h107v106h-107v-106zM357 659h106v106h-106v-106zM73 216q0 -113 49 -171.5t143 -58.5q112 0 176 98l-4 -84h89l10 547h-99l-10 -232q-5 -82 -45 -127.5t-112 -45.5q-59 0 -88 38t-34 117v250h-75v-331z" />
    <glyph glyph-name="uni01DE" unicode="&#x1de;" horiz-adv-x="814" 
d="M267 768v25h-10v106h107v-59h98v59h106v-106h-9v-25h-292zM454 729l287 -729h-141l-28 119h-328l-37 -119h-134l288 729h93zM273 235h269l-135 404z" />
    <glyph glyph-name="uni01DF" unicode="&#x1df;" horiz-adv-x="608" 
d="M172 634v25h-10v106h107v-59h98v59h106v-106h-9v-25h-292zM299 560q236 0 236 -248v-312h-90v78q-63 -92 -189 -92q-83 0 -133 47t-50 126q0 186 246 186h126v9q0 130 -155 140q-94 0 -177 -45v73q100 38 186 38zM395 259v20h-81q-95 0 -130 -21.5t-36 -73.5
q7 -38 36 -49.5t86 -11.5q71 0 98 26t27 110z" />
    <glyph glyph-name="Gcaron" unicode="&#x1e6;" horiz-adv-x="783" 
d="M440 798l120 184h-68l-88 -120l-88 120h-68l120 -184h72zM598 182q-36 -37 -153 -37q-139 0 -201 49t-67 180q0 297 268 297q137 0 246 -93v95q-110 69 -254 69q-171 0 -267.5 -100t-96.5 -278t96.5 -278t267.5 -100q158 0 273 82v298h-269v-105h157v-79z" />
    <glyph glyph-name="gcaron" unicode="&#x1e7;" horiz-adv-x="645" 
d="M369 616l120 184h-68l-88 -120l-88 120h-68l120 -184h72zM572 547h-90l-10 -83q-56 96 -175 96q-101 0 -162.5 -77t-61.5 -203t61.5 -203t162.5 -77q57 0 101.5 23t68.5 59v-30q-13 -63 -57.5 -115t-123.5 -52q-80 0 -157 42v-160q81 -29 171 -29q132 0 191.5 72.5
t65.5 257.5zM433 285q0 -47 -10.5 -76t-34 -42t-48.5 -17t-67 -4q-41 0 -62.5 3.5t-41 17.5t-28.5 42t-14 76q0 98 40.5 151.5t112.5 53.5q73 0 113 -53.5t40 -151.5z" />
    <glyph glyph-name="Oslashacute" unicode="&#x1fe;" horiz-adv-x="821" 
d="M652 1182l-177 -204h-83l153 204h107zM584 699q78 -45 121 -132t43 -203q0 -172 -91.5 -275t-245.5 -103q-15 0 -39 2l-9 -29l-113 4l18 51q-92 40 -143.5 131.5t-51.5 218.5q0 172 92 275t246 103q54 0 104 -14l17 48l74 -3zM177 364q0 -85 37.5 -128.5t110.5 -56.5
l163 470q-33 13 -77 13q-108 0 -171 -80t-63 -218zM427 173q108 2 162.5 45t54.5 146q0 165 -87 244z" />
    <glyph glyph-name="oslashacute" unicode="&#x1ff;" horiz-adv-x="688" 
d="M304 796h83l177 204h-107zM73 -8l47 -38l68 82q62 -50 156 -50q117 0 184 76.5t67 210.5q0 119 -52 193l71 87l-46 39l-68 -82q-65 50 -156 50q-117 0 -184 -76t-67 -211q0 -116 53 -192zM207 155q-19 44 -19 111q0 103 41 160.5t115 57.5q61 0 101 -40zM480 391
q20 -43 20 -118q0 -97 -42 -154t-114 -57q-62 0 -102 40z" />
    <glyph glyph-name="Scommaaccent" unicode="&#x218;" horiz-adv-x="660" 
d="M542 705q-110 37 -213 37q-120 0 -188 -55.5t-68 -152.5q0 -83 49.5 -130t159.5 -69l60 -12q70 -14 105.5 -43.5t35.5 -61.5q0 -36 -48.5 -67t-127.5 -31q-110 0 -231 68v-156q125 -46 231 -46q137 0 208 54.5t71 160.5q0 89 -52.5 142t-162.5 74l-59 12
q-80 15 -110 39.5t-30 73.5q0 58 44 89t124 31q93 0 202 -53v96zM254 -137l-50 -157h63l110 157v103h-123v-103z" />
    <glyph glyph-name="scommaaccent" unicode="&#x219;" horiz-adv-x="564" 
d="M462 531q-75 29 -175 29q-101 0 -155.5 -42t-54.5 -119q0 -62 36.5 -94t121.5 -50l31 -7q86 -20 95 -32q11 -13 28 -43q0 -73 -122 -73q-94 0 -194 52v-132q105 -34 192 -34q106 0 166 44t60 121q0 66 -40 101.5t-136 55.5l-31 7q-71 16 -98 36t-27 57q0 41 36 64t103 23
q84 0 164 -39v75zM195 -140l-50 -157h63l110 157v103h-123v-103z" />
    <glyph glyph-name="uni021A" unicode="&#x21a;" horiz-adv-x="763" 
d="M73 646l259 10l-19 -656h138l-20 656l259 -10v83h-617v-83zM318 -129l-50 -157h63l110 157v103h-123v-103z" />
    <glyph glyph-name="uni021B" unicode="&#x21b;" horiz-adv-x="488" 
d="M144 683l-5 -136h-66v-70h66l-5 -297q0 -102 41.5 -141t146.5 -39h93v134h-93q-57 0 -75 19.5t-18 85.5l5 238h127v70h-127l5 136h-95zM182 -120l-50 -157h63l110 157v103h-123v-103z" />
    <glyph glyph-name="uni0228" unicode="&#x228;" horiz-adv-x="616" 
d="M543 151v-151h-163q53 -60 53 -105q0 -88 -116 -88q-44 0 -86 12v64q32 -16 76 -16q58 0 58 46q0 28 -43 87h-249v729h461v-83h-362v-216h347v-83h-347v-196h371z" />
    <glyph glyph-name="uni0229" unicode="&#x229;" 
d="M575 330v-34h-408q1 -102 47 -137t146 -40q48 0 70.5 1t60 8.5t67.5 23.5l2 -124q-84 -37 -172 -41q42 -52 42 -92q0 -88 -116 -88q-44 0 -86 12v64q32 -16 76 -16q58 0 58 46q0 25 -34 75q-119 12 -187 85.5t-68 194.5q5 136 76 214t193 78q111 -5 167.5 -59.5
t65.5 -170.5zM177 374l320 1q-8 52 -50.5 95t-104.5 43q-71 0 -118 -43t-47 -96z" />
    <glyph glyph-name="uni022A" unicode="&#x22a;" horiz-adv-x="821" 
d="M265 816v25h-10v106h107v-59h98v59h106v-106h-9v-25h-292zM411 742q154 0 245.5 -103t91.5 -275t-91.5 -275t-245.5 -103t-246 102.5t-92 275.5q0 172 92 275t246 103zM411 173q116 0 174.5 42t58.5 149q0 138 -63 218t-170 80q-108 0 -171 -80t-63 -218q0 -107 59 -149
t175 -42z" />
    <glyph glyph-name="uni022B" unicode="&#x22b;" 
d="M178 634v25h-10v106h107v-59h98v59h106v-106h-9v-25h-292zM324 560q117 0 184 -76t67 -211q0 -134 -67 -210.5t-184 -76.5q-118 0 -184.5 76.5t-66.5 210.5q0 135 66.5 211t184.5 76zM324 141q80 0 118 29.5t38 118.5q0 94 -42 149.5t-114 55.5t-114 -55t-42 -150
q0 -89 37.5 -118.5t118.5 -29.5z" />
    <glyph glyph-name="circumflex" unicode="&#x2c6;" horiz-adv-x="458" 
d="M73 616h68l88 120l88 -120h68l-120 184h-72z" />
    <glyph glyph-name="caron" unicode="&#x2c7;" horiz-adv-x="458" 
d="M265 616l120 184h-68l-88 -120l-88 120h-68l120 -184h72z" />
    <glyph glyph-name="breve" unicode="&#x2d8;" horiz-adv-x="452" 
d="M73 785q11 -140 153 -140q144 0 153 140h-58q-12 -73 -95 -73q-85 0 -95 73h-58z" />
    <glyph glyph-name="dotaccent" unicode="&#x2d9;" horiz-adv-x="246" 
d="M73 658h100v100h-100v-100z" />
    <glyph glyph-name="ring" unicode="&#x2da;" horiz-adv-x="414" 
d="M341 744q0 56 -39 95t-95 39t-95 -39t-39 -95t39 -95t95 -39t95 39t39 95zM281 744q0 -31 -21.5 -52.5t-52.5 -21.5t-52.5 21t-21.5 53t21.5 53t52.5 21t52.5 -21.5t21.5 -52.5z" />
    <glyph glyph-name="ogonek" unicode="&#x2db;" horiz-adv-x="329" 
d="M126 0q-53 -60 -53 -105q0 -46 28 -67t88 -21q24 0 66 10v65q-30 -15 -61 -15q-53 0 -53 45q0 29 43 88h-58z" />
    <glyph glyph-name="tilde" unicode="&#x2dc;" horiz-adv-x="469" 
d="M232 669q33 -30 68 -30q44 0 69.5 36t26.5 102h-62q0 -40 -9 -58t-28 -18q-13 0 -33 19l-28 27q-33 30 -68 30q-44 0 -68.5 -36t-26.5 -102h61q2 41 10 58q9 18 27 18q12 0 34 -19z" />
    <glyph glyph-name="hungarumlaut" unicode="&#x2dd;" horiz-adv-x="489" 
d="M73 616h67l109 184h-83zM229 616h66l121 184h-87z" />
    <glyph glyph-name="hookabovecomb" unicode="&#x309;" horiz-adv-x="0" 
d="M-195 579v-21q26 13 45 13q32 0 32 -14q0 -9 -11 -17l-11 -9q-13 -10 -16 -15q-3 -6 -3 -16v-3h28q0 6 2 12q6 6 9 8l11 7q21 16 21 31t-16 26q-17 10 -40 10q-24 0 -51 -12z" />
    <glyph glyph-name="uni031B" unicode="&#x31b;" horiz-adv-x="0" 
d="M-205 435q18 9 49 34q41 37 41 114q0 12 -5 32l-48 6q7 -17 7 -30q0 -65 -20 -83q-6 -5 -20.5 -12.5t-25.5 -14.5z" />
    <glyph glyph-name="dotbelowcomb" unicode="&#x323;" horiz-adv-x="0" 
d="M-202 0h100v108h-100v-108z" />
    <glyph glyph-name="uni0326" unicode="&#x326;" horiz-adv-x="0" 
d="M-170 16l-50 -157h63l110 157v103h-123v-103z" />
    <glyph glyph-name="uni032D" unicode="&#x32d;" horiz-adv-x="0" 
d="M-301 -220h68l88 120l88 -120h68l-120 184h-72z" />
    <glyph glyph-name="uni0331" unicode="&#x331;" horiz-adv-x="0" 
d="M-279 -129l263 4l4 81l-263 -5z" />
    <glyph glyph-name="pi" unicode="&#x3c0;" horiz-adv-x="745" 
d="M671 523h-434q-80 0 -115 -30.5t-49 -111.5h78q4 38 18.5 54t41.5 16h20l-134 -451h142l80 451h160l-54 -189q-26 -76 -31 -114q-6 -34 -6 -57q0 -50 42.5 -91.5t98.5 -41.5q29 0 54 8l15 103q-30 -5 -49 -5q-26 0 -37.5 12t-11.5 40q0 10 3 33q1 5 3 16t4 21.5t4 21.5
l51 243h89z" />
    <glyph glyph-name="uni1E04" unicode="&#x1e04;" horiz-adv-x="673" 
d="M73 0h262q124 0 194.5 53.5t70.5 150.5q0 159 -187 189q123 20 123 156q0 86 -61 133t-174 47h-228v-729zM318 663q70 0 106.5 -34t36.5 -91q0 -110 -143 -110h-146v235h146zM330 348q78 0 118 -32q38 -32 38 -57q0 -66 -36.5 -90t-119.5 -24h-158v203h158zM247 -146h100
v108h-100v-108z" />
    <glyph glyph-name="uni1E05" unicode="&#x1e05;" horiz-adv-x="636" 
d="M126 99q-9 19 -15 106t-13.5 267t-14.5 288h90l-9 -286q27 47 69 66.5t105 19.5q100 0 162.5 -79t62.5 -208t-62.5 -208t-162.5 -79q-101 0 -146 27t-66 86zM505 293q-6 203 -146 203q-72 0 -112 -54t-40 -153q6 -45 11.5 -66t20.5 -42t43.5 -28t76.5 -7q65 5 100 36
t46 111zM281 -146h100v108h-100v-108z" />
    <glyph glyph-name="uni1E0C" unicode="&#x1e0c;" horiz-adv-x="759" 
d="M73 0h203q211 0 310.5 88.5t99.5 276.5t-99 276t-311 88h-203v-729zM296 648q149 0 219 -67.5t70 -205.5q-11 -110 -73.5 -150.5t-215.5 -40.5h-119v464h119zM286 -146h100v108h-100v-108z" />
    <glyph glyph-name="uni1E0D" unicode="&#x1e0d;" horiz-adv-x="645" 
d="M472 464q-55 96 -175 96q-99 0 -161.5 -79.5t-62.5 -207.5t62.5 -207.5t161.5 -79.5q120 0 175 96v-82h90l10 760h-90zM138 283q0 99 40.5 155.5t112.5 56.5q136 0 141 -205q-2 -86 -34.5 -113.5t-109.5 -27.5q-71 0 -105 31t-45 103zM242 -146h100v108h-100v-108z" />
    <glyph glyph-name="uni1E0E" unicode="&#x1e0e;" horiz-adv-x="759" 
d="M73 0h203q211 0 310.5 88.5t99.5 276.5t-99 276t-311 88h-203v-729zM296 648q149 0 219 -67.5t70 -205.5q-11 -110 -73.5 -150.5t-215.5 -40.5h-119v464h119zM152 -125l263 4l4 81l-263 -5z" />
    <glyph glyph-name="uni1E0F" unicode="&#x1e0f;" horiz-adv-x="645" 
d="M472 464q-55 96 -175 96q-99 0 -161.5 -79.5t-62.5 -207.5t62.5 -207.5t161.5 -79.5q120 0 175 96v-82h90l10 760h-90zM138 283q0 99 40.5 155.5t112.5 56.5q136 0 141 -205q-2 -86 -34.5 -113.5t-109.5 -27.5q-71 0 -105 31t-45 103zM186 -129l263 4l4 81l-263 -5z" />
    <glyph glyph-name="uni1E12" unicode="&#x1e12;" horiz-adv-x="759" 
d="M73 0h203q211 0 310.5 88.5t99.5 276.5t-99 276t-311 88h-203v-729zM296 648q149 0 219 -67.5t70 -205.5q-11 -110 -73.5 -150.5t-215.5 -40.5h-119v464h119zM157 -220h68l88 120l88 -120h68l-120 184h-72z" />
    <glyph glyph-name="uni1E13" unicode="&#x1e13;" horiz-adv-x="645" 
d="M472 464q-55 96 -175 96q-99 0 -161.5 -79.5t-62.5 -207.5t62.5 -207.5t161.5 -79.5q120 0 175 96v-82h90l10 760h-90zM138 283q0 99 40.5 155.5t112.5 56.5q136 0 141 -205q-2 -86 -34.5 -113.5t-109.5 -27.5q-71 0 -105 31t-45 103zM151 -220h68l88 120l88 -120h68
l-120 184h-72z" />
    <glyph glyph-name="uni1E24" unicode="&#x1e24;" horiz-adv-x="712" 
d="M73 0h114v245h338v-245h114l-10 729h-104v-348h-338v348h-104zM293 -146h100v108h-100v-108z" />
    <glyph glyph-name="uni1E25" unicode="&#x1e25;" horiz-adv-x="624" 
d="M541 330q0 230 -191 230q-113 0 -177 -98l10 298h-90l-20 -760h110l-10 309q0 81 42.5 132t114.5 51q64 0 94.5 -37.5t26.5 -127.5l-14 -327h114zM265 -146h100v108h-100v-108z" />
    <glyph glyph-name="uni1E2E" unicode="&#x1e2e;" horiz-adv-x="265" 
d="M97 978h83l177 204h-107zM-19 841h107v106h-107v-106zM186 841h106v106h-106v-106zM73 0h118q-5 85 -7.5 186.5t-3.5 174t-1.5 190t-1.5 178.5h-84q-1 -61 -3 -178.5t-3.5 -190t-5 -174t-8.5 -186.5z" />
    <glyph glyph-name="uni1E2F" unicode="&#x1e2f;" horiz-adv-x="261" 
d="M77 796h83l177 204h-107zM-39 659h107v106h-107v-106zM166 659h106v106h-106v-106zM73 0h115q-30 282 -20 547h-80q2 -300 -15 -547z" />
    <glyph glyph-name="uni1E36" unicode="&#x1e36;" horiz-adv-x="605" 
d="M73 0h449l10 151h-355l5 578h-99zM237 -146h100v108h-100v-108z" />
    <glyph glyph-name="uni1E37" unicode="&#x1e37;" horiz-adv-x="342" 
d="M73 0h196v111h-106q3 294 20 605h-85q-19 -348 -25 -716zM91 -146h100v108h-100v-108z" />
    <glyph glyph-name="uni1E3C" unicode="&#x1e3c;" horiz-adv-x="605" 
d="M73 0h449l10 151h-355l5 578h-99zM151 -220h68l88 120l88 -120h68l-120 184h-72z" />
    <glyph glyph-name="uni1E3D" unicode="&#x1e3d;" horiz-adv-x="342" 
d="M73 0h196v111h-106q3 294 20 605h-85q-19 -348 -25 -716zM-8 -220h68l88 120l88 -120h68l-120 184h-72z" />
    <glyph glyph-name="uni1E3E" unicode="&#x1e3e;" horiz-adv-x="833" 
d="M372 736h83l177 204h-107zM73 0h125l-19 640l178 -524h119l178 524l-20 -640h126l-15 729h-137l-192 -433l-181 433h-147z" />
    <glyph glyph-name="uni1E3F" unicode="&#x1e3f;" horiz-adv-x="969" 
d="M73 645h83l177 204h-107zM527 442q-20 57 -66 87.5t-107 30.5q-116 0 -176 -98l10 85h-90l-25 -547h125l-10 309q0 81 43.5 136.5t111.5 55.5q114 0 114 -154l-44 -347h124l15 309q4 84 41 136t105 52q55 0 76.5 -36.5t21.5 -118.5l-34 -342h134l-10 330q0 110 -46.5 170
t-131.5 60q-62 0 -104.5 -28.5t-76.5 -89.5z" />
    <glyph glyph-name="uni1E44" unicode="&#x1e44;" horiz-adv-x="708" 
d="M310 840h100v100h-100v-100zM73 0h125l-29 610l323 -610h143v729h-91l-15 -590l-313 575h-123z" />
    <glyph glyph-name="uni1E45" unicode="&#x1e45;" horiz-adv-x="639" 
d="M260 658h100v100h-100v-100zM551 330q-11 230 -196 230q-83 0 -177 -74v66h-90l-15 -552h125l-15 314q0 82 40.5 127.5t121.5 45.5q59 0 85 -37.5t26 -117.5l-19 -332h128z" />
    <glyph glyph-name="uni1E46" unicode="&#x1e46;" horiz-adv-x="708" 
d="M73 0h125l-29 610l323 -610h143v729h-91l-15 -590l-313 575h-123zM286 -146h100v108h-100v-108z" />
    <glyph glyph-name="uni1E47" unicode="&#x1e47;" horiz-adv-x="639" 
d="M551 330q-11 230 -196 230q-83 0 -177 -74v66h-90l-15 -552h125l-15 314q0 82 40.5 127.5t121.5 45.5q59 0 85 -37.5t26 -117.5l-19 -332h128zM253 -146h100v108h-100v-108z" />
    <glyph glyph-name="uni1E4A" unicode="&#x1e4a;" horiz-adv-x="708" 
d="M73 0h125l-29 610l323 -610h143v729h-91l-15 -590l-313 575h-123zM215 -220h68l88 120l88 -120h68l-120 184h-72z" />
    <glyph glyph-name="uni1E4B" unicode="&#x1e4b;" horiz-adv-x="639" 
d="M551 330q-11 230 -196 230q-83 0 -177 -74v66h-90l-15 -552h125l-15 314q0 82 40.5 127.5t121.5 45.5q59 0 85 -37.5t26 -117.5l-19 -332h128zM-8 -220h68l88 120l88 -120h68l-120 184h-72z" />
    <glyph glyph-name="uni1E4C" unicode="&#x1e4c;" horiz-adv-x="821" 
d="M371 978h83l177 204h-107zM408 838q33 -30 68 -30q44 0 69.5 36t26.5 102h-62q0 -40 -9 -58t-28 -18q-13 0 -33 19l-28 27q-33 30 -68 30q-44 0 -68.5 -36t-26.5 -102h61q2 41 10 58q9 18 27 18q12 0 34 -19zM411 742q-154 0 -246 -103t-92 -275q0 -173 92 -275.5
t246 -102.5t245.5 103t91.5 275t-91.5 275t-245.5 103zM411 662q107 0 170 -80t63 -218q0 -107 -58.5 -149t-174.5 -42t-175 42t-59 149q0 138 63 218t171 80z" />
    <glyph glyph-name="uni1E4D" unicode="&#x1e4d;" 
d="M234 844q-8 -17 -10 -58h-61q2 66 26.5 102t68.5 36q35 0 68 -30l18 -18l93 124h107l-66 -76h8q-1 -66 -26.5 -102t-69.5 -36q-22 0 -41 10h-65l25 33l-14 14q-22 19 -34 19q-18 0 -27 -18zM324 560q117 0 184 -76t67 -211q0 -134 -67 -210.5t-184 -76.5
q-118 0 -184.5 76.5t-66.5 210.5q0 135 66.5 211t184.5 76zM324 141q80 0 118 29.5t38 118.5q0 94 -42 149.5t-114 55.5t-114 -55t-42 -150q0 -89 37.5 -118.5t118.5 -29.5z" />
    <glyph glyph-name="uni1E50" unicode="&#x1e50;" horiz-adv-x="821" 
d="M250 1170l101 -183h133l-138 183h-96zM264 849h292v72h-292v-72zM411 742q-154 0 -246 -103t-92 -275q0 -173 92 -275.5t246 -102.5t245.5 103t91.5 275t-91.5 275t-245.5 103zM411 662q107 0 170 -80t63 -218q0 -107 -58.5 -149t-174.5 -42t-175 42t-59 149
q0 138 63 218t171 80z" />
    <glyph glyph-name="uni1E51" unicode="&#x1e51;" 
d="M163 988l101 -183h133l-138 183h-96zM178 634h292v72h-292v-72zM324 560q-118 0 -184.5 -76t-66.5 -211q0 -134 66.5 -210.5t184.5 -76.5q117 0 184 76.5t67 210.5q0 135 -67 211t-184 76zM324 494q72 0 114 -55.5t42 -149.5q0 -89 -38 -118.5t-118 -29.5
q-81 0 -118.5 29.5t-37.5 118.5q0 95 42 150t114 55z" />
    <glyph glyph-name="uni1E52" unicode="&#x1e52;" horiz-adv-x="821" 
d="M371 978h83l177 204h-107zM270 845h292v72h-292v-72zM411 742q-154 0 -246 -103t-92 -275q0 -173 92 -275.5t246 -102.5t245.5 103t91.5 275t-91.5 275t-245.5 103zM411 662q107 0 170 -80t63 -218q0 -107 -58.5 -149t-174.5 -42t-175 42t-59 149q0 138 63 218t171 80z
" />
    <glyph glyph-name="uni1E53" unicode="&#x1e53;" 
d="M284 796h83l177 204h-107zM178 634h292v72h-292v-72zM324 560q-118 0 -184.5 -76t-66.5 -211q0 -134 66.5 -210.5t184.5 -76.5q117 0 184 76.5t67 210.5q0 135 -67 211t-184 76zM324 494q72 0 114 -55.5t42 -149.5q0 -89 -38 -118.5t-118 -29.5q-81 0 -118.5 29.5
t-37.5 118.5q0 95 42 150t114 55z" />
    <glyph glyph-name="uni1E62" unicode="&#x1e62;" horiz-adv-x="660" 
d="M542 705q-110 37 -213 37q-120 0 -188 -55.5t-68 -152.5q0 -83 49.5 -130t159.5 -69l60 -12q70 -14 105.5 -43.5t35.5 -61.5q0 -36 -48.5 -67t-127.5 -31q-110 0 -231 68v-156q125 -46 231 -46q137 0 208 54.5t71 160.5q0 89 -52.5 142t-162.5 74l-59 12
q-80 15 -110 39.5t-30 73.5q0 58 44 89t124 31q93 0 202 -53v96zM267 -146h100v108h-100v-108z" />
    <glyph glyph-name="uni1E63" unicode="&#x1e63;" horiz-adv-x="564" 
d="M462 531q-75 29 -175 29q-101 0 -155.5 -42t-54.5 -119q0 -62 36.5 -94t121.5 -50l31 -7q86 -20 95 -32q11 -13 28 -43q0 -73 -122 -73q-94 0 -194 52v-132q105 -34 192 -34q106 0 166 44t60 121q0 66 -40 101.5t-136 55.5l-31 7q-71 16 -98 36t-27 57q0 41 36 64t103 23
q84 0 164 -39v75zM213 -146h100v108h-100v-108z" />
    <glyph glyph-name="uni1E6C" unicode="&#x1e6c;" horiz-adv-x="763" 
d="M73 646l259 10l-19 -656h138l-20 656l259 -10v83h-617v-83zM325 -146h100v108h-100v-108z" />
    <glyph glyph-name="uni1E6D" unicode="&#x1e6d;" horiz-adv-x="488" 
d="M144 683l-5 -136h-66v-70h66l-5 -297q0 -102 41.5 -141t146.5 -39h93v134h-93q-57 0 -75 19.5t-18 85.5l5 238h127v70h-127l5 136h-95zM218 -146h100v108h-100v-108z" />
    <glyph glyph-name="uni1E6E" unicode="&#x1e6e;" horiz-adv-x="763" 
d="M73 646l259 10l-19 -656h138l-20 656l259 -10v83h-617v-83zM248 -129l263 4l4 81l-263 -5z" />
    <glyph glyph-name="uni1E6F" unicode="&#x1e6f;" horiz-adv-x="488" 
d="M144 683l-5 -136h-66v-70h66l-5 -297q0 -102 41.5 -141t146.5 -39h93v134h-93q-57 0 -75 19.5t-18 85.5l5 238h127v70h-127l5 136h-95zM97 -129l263 4l4 81l-263 -5z" />
    <glyph glyph-name="uni1E70" unicode="&#x1e70;" horiz-adv-x="763" 
d="M73 646l259 10l-19 -656h138l-20 656l259 -10v83h-617v-83zM229 -220h68l88 120l88 -120h68l-120 184h-72z" />
    <glyph glyph-name="uni1E71" unicode="&#x1e71;" horiz-adv-x="488" 
d="M144 683l-5 -136h-66v-70h66l-5 -297q0 -102 41.5 -141t146.5 -39h93v134h-93q-57 0 -75 19.5t-18 85.5l5 238h127v70h-127l5 136h-95zM146 -245h68l88 120l88 -120h68l-120 184h-72z" />
    <glyph glyph-name="Wgrave" unicode="&#x1e80;" horiz-adv-x="1069" 
d="M371 1170l101 -183h133l-138 183h-96zM236 0h154l145 394l134 -394h144l183 729h-95l-168 -533l-158 347h-86l-173 -337l-148 523h-95z" />
    <glyph glyph-name="wgrave" unicode="&#x1e81;" horiz-adv-x="880" 
d="M279 988l101 -183h133l-138 183h-96zM216 0h121l103 248l99 -248h125l143 547h-90l-112 -383l-102 202h-126l-102 -202l-112 383h-90z" />
    <glyph glyph-name="Wacute" unicode="&#x1e82;" horiz-adv-x="1069" 
d="M492 978h83l177 204h-107zM236 0h154l145 394l134 -394h144l183 729h-95l-168 -533l-158 347h-86l-173 -337l-148 523h-95z" />
    <glyph glyph-name="wacute" unicode="&#x1e83;" horiz-adv-x="880" 
d="M400 796h83l177 204h-107zM216 0h121l103 248l99 -248h125l143 547h-90l-112 -383l-102 202h-126l-102 -202l-112 383h-90z" />
    <glyph glyph-name="Wdieresis" unicode="&#x1e84;" horiz-adv-x="1069" 
d="M376 841h107v106h-107v-106zM581 841h106v106h-106v-106zM236 0h154l145 394l134 -394h144l183 729h-95l-168 -533l-158 347h-86l-173 -337l-148 523h-95z" />
    <glyph glyph-name="wdieresis" unicode="&#x1e85;" horiz-adv-x="880" 
d="M284 659h107v106h-107v-106zM489 659h106v106h-106v-106zM216 0h121l103 248l99 -248h125l143 547h-90l-112 -383l-102 202h-126l-102 -202l-112 383h-90z" />
    <glyph glyph-name="uni1E92" unicode="&#x1e92;" horiz-adv-x="742" 
d="M84 646h450l-461 -507v-139h595v146h-472l461 508v75h-573v-83zM330 -146h100v108h-100v-108z" />
    <glyph glyph-name="uni1E93" unicode="&#x1e93;" horiz-adv-x="590" 
d="M95 480h326l-348 -349v-131h439v121h-304l309 344v82h-422v-67zM237 -146h100v108h-100v-108z" />
    <glyph glyph-name="uni1EA0" unicode="&#x1ea0;" horiz-adv-x="814" 
d="M73 0h134l37 119h328l28 -119h141l-287 729h-93zM542 235h-269l134 404zM351 -146h100v108h-100v-108z" />
    <glyph glyph-name="uni1EA1" unicode="&#x1ea1;" horiz-adv-x="608" 
d="M535 312q0 248 -236 248q-86 0 -186 -38v-73q82 45 177 45q155 -10 155 -140v-9h-126q-246 0 -246 -186q0 -79 50 -126t133 -47q126 0 189 92v-78h90v312zM395 279v-20q0 -84 -27 -110t-98 -26q-38 0 -59.5 3t-39.5 17t-23 41q1 52 36 73.5t130 21.5h81zM203 -146h100
v108h-100v-108z" />
    <glyph glyph-name="uni1EA2" unicode="&#x1ea2;" horiz-adv-x="814" 
d="M355 842v-21q26 13 45 13q32 0 32 -14q0 -9 -11 -17l-11 -9q-13 -10 -16 -15q-3 -6 -3 -16v-3h28q0 6 2 12q6 6 9 8l11 7q21 17 21 31q0 15 -16 26q-17 10 -40 10q-24 0 -51 -12zM73 0h134l37 119h328l28 -119h141l-287 729h-93zM542 235h-269l134 404z" />
    <glyph glyph-name="uni1EA3" unicode="&#x1ea3;" horiz-adv-x="608" 
d="M240 689v-21q26 13 45 13q32 0 32 -14q0 -9 -11 -17l-11 -9q-13 -10 -16 -15q-3 -6 -3 -16v-3h28q0 6 2 12q6 6 9 8l11 7q21 16 21 31t-16 26q-17 10 -40 10q-24 0 -51 -12zM535 312q0 248 -236 248q-86 0 -186 -38v-73q82 45 177 45q155 -10 155 -140v-9h-126
q-246 0 -246 -186q0 -79 50 -126t133 -47q126 0 189 92v-78h90v312zM395 279v-20q0 -84 -27 -110t-98 -26q-38 0 -59.5 3t-39.5 17t-23 41q1 52 36 73.5t130 21.5h81z" />
    <glyph glyph-name="uni1EA4" unicode="&#x1ea4;" horiz-adv-x="814" 
d="M373 930h83l177 204h-107zM257 733h68l88 120l88 -120h68l-120 184h-72zM73 0h134l37 119h328l28 -119h141l-287 729h-93zM542 235h-269l134 404z" />
    <glyph glyph-name="uni1EA5" unicode="&#x1ea5;" horiz-adv-x="608" 
d="M278 796h83l177 204h-107zM162 599h68l88 120l88 -120h68l-120 184h-72zM535 312q0 248 -236 248q-86 0 -186 -38v-73q82 45 177 45q155 -10 155 -140v-9h-126q-246 0 -246 -186q0 -79 50 -126t133 -47q126 0 189 92v-78h90v312zM395 279v-20q0 -84 -27 -110t-98 -26
q-38 0 -59.5 3t-39.5 17t-23 41q1 52 36 73.5t130 21.5h81z" />
    <glyph glyph-name="uni1EA6" unicode="&#x1ea6;" horiz-adv-x="814" 
d="M252 1122l101 -183h133l-138 183h-96zM257 733h68l88 120l88 -120h68l-120 184h-72zM73 0h134l37 119h328l28 -119h141l-287 729h-93zM542 235h-269l134 404z" />
    <glyph glyph-name="uni1EA7" unicode="&#x1ea7;" horiz-adv-x="608" 
d="M157 988l101 -183h133l-138 183h-96zM162 599h68l88 120l88 -120h68l-120 184h-72zM535 312q0 248 -236 248q-86 0 -186 -38v-73q82 45 177 45q155 -10 155 -140v-9h-126q-246 0 -246 -186q0 -79 50 -126t133 -47q126 0 189 92v-78h90v312zM395 279v-20q0 -84 -27 -110
t-98 -26q-38 0 -59.5 3t-39.5 17t-23 41q1 52 36 73.5t130 21.5h81z" />
    <glyph glyph-name="uni1EA8" unicode="&#x1ea8;" horiz-adv-x="814" 
d="M257 733h68l88 120l88 -120h68l-120 184h-72zM556 876v-21q26 13 45 13q32 0 32 -14q0 -9 -11 -17l-11 -9q-13 -10 -16 -15q-3 -6 -3 -16v-3h28q0 6 2 12q6 6 9 8l11 7q21 17 21 31q0 15 -16 26q-17 10 -40 10q-24 0 -51 -12zM73 0h134l37 119h328l28 -119h141l-287 729
h-93zM542 235h-269l134 404z" />
    <glyph glyph-name="uni1EA9" unicode="&#x1ea9;" horiz-adv-x="608" 
d="M162 599h68l88 120l88 -120h68l-120 184h-72zM443 760v-21q26 13 45 13q32 0 32 -14q0 -9 -11 -17l-11 -9q-13 -10 -16 -15q-3 -6 -3 -16v-3h28q0 6 2 12q6 6 9 8l11 7q21 17 21 31q0 15 -16 26q-17 10 -40 10q-24 0 -51 -12zM535 312q0 248 -236 248q-86 0 -186 -38v-73
q82 45 177 45q155 -10 155 -140v-9h-126q-246 0 -246 -186q0 -79 50 -126t133 -47q126 0 189 92v-78h90v312zM395 279v-20q0 -84 -27 -110t-98 -26q-38 0 -59.5 3t-39.5 17t-23 41q1 52 36 73.5t130 21.5h81z" />
    <glyph glyph-name="uni1EAA" unicode="&#x1eaa;" horiz-adv-x="814" 
d="M411 950q33 -30 68 -30q44 0 69.5 36t26.5 102h-62q0 -40 -9 -58t-28 -18q-13 0 -33 19l-28 27q-33 30 -68 30q-44 0 -68.5 -36t-26.5 -102h61q2 41 10 58q9 18 27 18q12 0 34 -19zM257 733h68l88 120l88 -120h68l-120 184h-72zM73 0h134l37 119h328l28 -119h141
l-287 729h-93zM542 235h-269l134 404z" />
    <glyph glyph-name="uni1EAB" unicode="&#x1eab;" horiz-adv-x="608" 
d="M316 816q33 -30 68 -30q44 0 69.5 36t26.5 102h-62q0 -40 -9 -58t-28 -18q-13 0 -33 19l-28 27q-33 30 -68 30q-44 0 -68.5 -36t-26.5 -102h61q2 41 10 58q9 18 27 18q12 0 34 -19zM162 599h68l88 120l88 -120h68l-120 184h-72zM535 312q0 248 -236 248q-86 0 -186 -38
v-73q82 45 177 45q155 -10 155 -140v-9h-126q-246 0 -246 -186q0 -79 50 -126t133 -47q126 0 189 92v-78h90v312zM395 279v-20q0 -84 -27 -110t-98 -26q-38 0 -59.5 3t-39.5 17t-23 41q1 52 36 73.5t130 21.5h81z" />
    <glyph glyph-name="uni1EAC" unicode="&#x1eac;" horiz-adv-x="814" 
d="M257 733h68l88 120l88 -120h68l-120 184h-72zM73 0h134l37 119h328l28 -119h141l-287 729h-93zM542 235h-269l134 404zM351 -146h100v108h-100v-108z" />
    <glyph glyph-name="uni1EAD" unicode="&#x1ead;" horiz-adv-x="608" 
d="M162 599h68l88 120l88 -120h68l-120 184h-72zM535 312q0 248 -236 248q-86 0 -186 -38v-73q82 45 177 45q155 -10 155 -140v-9h-126q-246 0 -246 -186q0 -79 50 -126t133 -47q126 0 189 92v-78h90v312zM395 279v-20q0 -84 -27 -110t-98 -26q-38 0 -59.5 3t-39.5 17
t-23 41q1 52 36 73.5t130 21.5h81zM203 -146h100v108h-100v-108z" />
    <glyph glyph-name="uni1EAE" unicode="&#x1eae;" horiz-adv-x="814" 
d="M373 930h83l177 204h-107zM260 892q11 -140 153 -140q144 0 153 140h-58q-12 -73 -95 -73q-85 0 -95 73h-58zM73 0h134l37 119h328l28 -119h141l-287 729h-93zM542 235h-269l134 404z" />
    <glyph glyph-name="uni1EAF" unicode="&#x1eaf;" horiz-adv-x="608" 
d="M278 796h83l177 204h-107zM165 758q11 -140 153 -140q144 0 153 140h-58q-12 -73 -95 -73q-85 0 -95 73h-58zM535 312q0 248 -236 248q-86 0 -186 -38v-73q82 45 177 45q155 -10 155 -140v-9h-126q-246 0 -246 -186q0 -79 50 -126t133 -47q126 0 189 92v-78h90v312z
M395 279v-20q0 -84 -27 -110t-98 -26q-38 0 -59.5 3t-39.5 17t-23 41q1 52 36 73.5t130 21.5h81z" />
    <glyph glyph-name="uni1EB0" unicode="&#x1eb0;" horiz-adv-x="814" 
d="M252 1122l101 -183h133l-138 183h-96zM260 892q11 -140 153 -140q144 0 153 140h-58q-12 -73 -95 -73q-85 0 -95 73h-58zM73 0h134l37 119h328l28 -119h141l-287 729h-93zM542 235h-269l134 404z" />
    <glyph glyph-name="uni1EB1" unicode="&#x1eb1;" horiz-adv-x="608" 
d="M157 988l101 -183h133l-138 183h-96zM165 758q11 -140 153 -140q144 0 153 140h-58q-12 -73 -95 -73q-85 0 -95 73h-58zM535 312q0 248 -236 248q-86 0 -186 -38v-73q82 45 177 45q155 -10 155 -140v-9h-126q-246 0 -246 -186q0 -79 50 -126t133 -47q126 0 189 92v-78h90
v312zM395 279v-20q0 -84 -27 -110t-98 -26q-38 0 -59.5 3t-39.5 17t-23 41q1 52 36 73.5t130 21.5h81z" />
    <glyph glyph-name="uni1EB2" unicode="&#x1eb2;" horiz-adv-x="814" 
d="M358 950v-21q26 13 45 13q32 0 32 -14q0 -9 -11 -17l-11 -9q-13 -10 -16 -15q-3 -6 -3 -16v-3h28q0 6 2 12q6 6 9 8l11 7q21 17 21 31q0 15 -16 26q-17 10 -40 10q-24 0 -51 -12zM260 892q11 -140 153 -140q144 0 153 140h-58q-12 -73 -95 -73q-85 0 -95 73h-58zM73 0
h134l37 119h328l28 -119h141l-287 729h-93zM542 235h-269l134 404z" />
    <glyph glyph-name="uni1EB3" unicode="&#x1eb3;" horiz-adv-x="608" 
d="M268 818v-21q26 13 45 13q32 0 32 -14q0 -9 -11 -17l-11 -9q-13 -10 -16 -15q-3 -6 -3 -16v-3h28q0 6 2 12q6 6 9 8l11 7q21 17 21 31q0 15 -16 26q-17 10 -40 10q-24 0 -51 -12zM165 758q11 -140 153 -140q144 0 153 140h-58q-12 -73 -95 -73q-85 0 -95 73h-58zM535 312
q0 248 -236 248q-86 0 -186 -38v-73q82 45 177 45q155 -10 155 -140v-9h-126q-246 0 -246 -186q0 -79 50 -126t133 -47q126 0 189 92v-78h90v312zM395 279v-20q0 -84 -27 -110t-98 -26q-38 0 -59.5 3t-39.5 17t-23 41q1 52 36 73.5t130 21.5h81z" />
    <glyph glyph-name="uni1EB4" unicode="&#x1eb4;" horiz-adv-x="814" 
d="M411 950q33 -30 68 -30q44 0 69.5 36t26.5 102h-62q0 -40 -9 -58t-28 -18q-13 0 -33 19l-28 27q-33 30 -68 30q-44 0 -68.5 -36t-26.5 -102h61q2 41 10 58q9 18 27 18q12 0 34 -19zM260 892q11 -140 153 -140q144 0 153 140h-58q-12 -73 -95 -73q-85 0 -95 73h-58zM73 0
h134l37 119h328l28 -119h141l-287 729h-93zM542 235h-269l134 404z" />
    <glyph glyph-name="uni1EB5" unicode="&#x1eb5;" horiz-adv-x="608" 
d="M316 816q33 -30 68 -30q44 0 69.5 36t26.5 102h-62q0 -40 -9 -58t-28 -18q-13 0 -33 19l-28 27q-33 30 -68 30q-44 0 -68.5 -36t-26.5 -102h61q2 41 10 58q9 18 27 18q12 0 34 -19zM165 758q11 -140 153 -140q144 0 153 140h-58q-12 -73 -95 -73q-85 0 -95 73h-58z
M535 312q0 248 -236 248q-86 0 -186 -38v-73q82 45 177 45q155 -10 155 -140v-9h-126q-246 0 -246 -186q0 -79 50 -126t133 -47q126 0 189 92v-78h90v312zM395 279v-20q0 -84 -27 -110t-98 -26q-38 0 -59.5 3t-39.5 17t-23 41q1 52 36 73.5t130 21.5h81z" />
    <glyph glyph-name="uni1EB6" unicode="&#x1eb6;" horiz-adv-x="814" 
d="M260 892q11 -140 153 -140q144 0 153 140h-58q-12 -73 -95 -73q-85 0 -95 73h-58zM73 0h134l37 119h328l28 -119h141l-287 729h-93zM542 235h-269l134 404zM351 -146h100v108h-100v-108z" />
    <glyph glyph-name="uni1EB7" unicode="&#x1eb7;" horiz-adv-x="608" 
d="M165 758q11 -140 153 -140q144 0 153 140h-58q-12 -73 -95 -73q-85 0 -95 73h-58zM535 312q0 248 -236 248q-86 0 -186 -38v-73q82 45 177 45q155 -10 155 -140v-9h-126q-246 0 -246 -186q0 -79 50 -126t133 -47q126 0 189 92v-78h90v312zM395 279v-20q0 -84 -27 -110
t-98 -26q-38 0 -59.5 3t-39.5 17t-23 41q1 52 36 73.5t130 21.5h81zM237 -146h100v108h-100v-108z" />
    <glyph glyph-name="uni1EB8" unicode="&#x1eb8;" horiz-adv-x="616" 
d="M73 0h470v151h-371v196h347v83h-347v216h362v83h-461v-729zM262 -146h100v108h-100v-108z" />
    <glyph glyph-name="uni1EB9" unicode="&#x1eb9;" 
d="M575 330q-9 116 -65.5 170.5t-167.5 59.5q-122 0 -193 -78t-76 -214q0 -129 76 -203t208 -79q105 0 203 42l-2 124q-30 -16 -67.5 -23.5t-60 -8.5t-70.5 -1q-100 5 -146 40t-47 137h408v34zM177 374q0 53 47 96t118 43q62 0 104.5 -43t50.5 -95zM306 -146h100v108h-100
v-108z" />
    <glyph glyph-name="uni1EBA" unicode="&#x1eba;" horiz-adv-x="616" 
d="M254 850v-21q26 13 45 13q32 0 32 -14q0 -9 -11 -17l-11 -9q-13 -10 -16 -15q-3 -6 -3 -16v-3h28q0 6 2 12q6 6 9 8l11 7q21 16 21 31t-16 26q-17 10 -40 10q-24 0 -51 -12zM73 0h470v151h-371v196h347v83h-347v216h362v83h-461v-729z" />
    <glyph glyph-name="uni1EBB" unicode="&#x1ebb;" 
d="M272 664v-21q26 13 45 13q32 0 32 -14q0 -9 -11 -17l-11 -9q-13 -10 -16 -15q-3 -6 -3 -16v-3h28q0 6 2 12q6 6 9 8l11 7q21 17 21 31q0 15 -16 26q-17 10 -40 10q-24 0 -51 -12zM575 330q-9 116 -65.5 170.5t-167.5 59.5q-122 0 -193 -78t-76 -214q0 -129 76 -203
t208 -79q105 0 203 42l-2 124q-30 -16 -67.5 -23.5t-60 -8.5t-70.5 -1q-100 5 -146 40t-47 137h408v34zM177 374q0 53 47 96t118 43q62 0 104.5 -43t50.5 -95z" />
    <glyph glyph-name="uni1EBC" unicode="&#x1ebc;" horiz-adv-x="616" 
d="M290 974q33 -30 68 -30q44 0 69.5 36t26.5 102h-62q0 -40 -9 -58t-28 -18q-13 0 -33 19l-28 27q-33 30 -68 30q-44 0 -68.5 -36t-26.5 -102h61q2 41 10 58q9 18 27 18q12 0 34 -19zM73 0h470v151h-371v196h347v83h-347v216h362v83h-461v-729z" />
    <glyph glyph-name="uni1EBD" unicode="&#x1ebd;" 
d="M327 816q33 -30 68 -30q44 0 69.5 36t26.5 102h-62q0 -40 -9 -58t-28 -18q-13 0 -33 19l-28 27q-33 30 -68 30q-44 0 -68.5 -36t-26.5 -102h61q2 41 10 58q9 18 27 18q12 0 34 -19zM575 330q-9 116 -65.5 170.5t-167.5 59.5q-122 0 -193 -78t-76 -214q0 -129 76 -203
t208 -79q105 0 203 42l-2 124q-30 -16 -67.5 -23.5t-60 -8.5t-70.5 -1q-100 5 -146 40t-47 137h408v34zM177 374q0 53 47 96t118 43q62 0 104.5 -43t50.5 -95z" />
    <glyph glyph-name="uni1EBE" unicode="&#x1ebe;" horiz-adv-x="616" 
d="M252 954h83l177 204h-107zM136 757h68l88 120l88 -120h68l-120 184h-72zM73 0h470v151h-371v196h347v83h-347v216h362v83h-461v-729z" />
    <glyph glyph-name="uni1EBF" unicode="&#x1ebf;" 
d="M289 796h83l177 204h-107zM173 599h68l88 120l88 -120h68l-120 184h-72zM575 330q-9 116 -65.5 170.5t-167.5 59.5q-122 0 -193 -78t-76 -214q0 -129 76 -203t208 -79q105 0 203 42l-2 124q-30 -16 -67.5 -23.5t-60 -8.5t-70.5 -1q-100 5 -146 40t-47 137h408v34z
M177 374q0 53 47 96t118 43q62 0 104.5 -43t50.5 -95z" />
    <glyph glyph-name="uni1EC0" unicode="&#x1ec0;" horiz-adv-x="616" 
d="M131 1146l101 -183h133l-138 183h-96zM136 757h68l88 120l88 -120h68l-120 184h-72zM73 0h470v151h-371v196h347v83h-347v216h362v83h-461v-729z" />
    <glyph glyph-name="uni1EC1" unicode="&#x1ec1;" 
d="M168 988l101 -183h133l-138 183h-96zM173 599h68l88 120l88 -120h68l-120 184h-72zM575 330q-9 116 -65.5 170.5t-167.5 59.5q-122 0 -193 -78t-76 -214q0 -129 76 -203t208 -79q105 0 203 42l-2 124q-30 -16 -67.5 -23.5t-60 -8.5t-70.5 -1q-100 5 -146 40t-47 137h408
v34zM177 374q0 53 47 96t118 43q62 0 104.5 -43t50.5 -95z" />
    <glyph glyph-name="uni1EC2" unicode="&#x1ec2;" horiz-adv-x="616" 
d="M136 757h68l88 120l88 -120h68l-120 184h-72zM425 895v-21q26 13 45 13q32 0 32 -14q0 -9 -11 -17l-11 -9q-13 -10 -16 -15q-3 -6 -3 -16v-3h28q0 6 2 12q6 6 9 8l11 7q21 17 21 31q0 15 -16 26q-17 10 -40 10q-24 0 -51 -12zM73 0h470v151h-371v196h347v83h-347v216h362
v83h-461v-729z" />
    <glyph glyph-name="uni1EC3" unicode="&#x1ec3;" 
d="M173 599h68l88 120l88 -120h68l-120 184h-72zM496 681v-21q26 13 45 13q32 0 32 -14q0 -9 -11 -17l-11 -9q-13 -10 -16 -15q-3 -6 -3 -16v-3h28q0 6 2 12q6 6 9 8l11 7q21 16 21 31t-16 26q-17 10 -40 10q-24 0 -51 -12zM575 330q-9 116 -65.5 170.5t-167.5 59.5
q-122 0 -193 -78t-76 -214q0 -129 76 -203t208 -79q105 0 203 42l-2 124q-30 -16 -67.5 -23.5t-60 -8.5t-70.5 -1q-100 5 -146 40t-47 137h408v34zM177 374q0 53 47 96t118 43q62 0 104.5 -43t50.5 -95z" />
    <glyph glyph-name="uni1EC4" unicode="&#x1ec4;" horiz-adv-x="616" 
d="M290 974q33 -30 68 -30q44 0 69.5 36t26.5 102h-62q0 -40 -9 -58t-28 -18q-13 0 -33 19l-28 27q-33 30 -68 30q-44 0 -68.5 -36t-26.5 -102h61q2 41 10 58q9 18 27 18q12 0 34 -19zM136 757h68l88 120l88 -120h68l-120 184h-72zM73 0h470v151h-371v196h347v83h-347v216
h362v83h-461v-729z" />
    <glyph glyph-name="uni1EC5" unicode="&#x1ec5;" 
d="M327 816q33 -30 68 -30q44 0 69.5 36t26.5 102h-62q0 -40 -9 -58t-28 -18q-13 0 -33 19l-28 27q-33 30 -68 30q-44 0 -68.5 -36t-26.5 -102h61q2 41 10 58q9 18 27 18q12 0 34 -19zM173 599h68l88 120l88 -120h68l-120 184h-72zM575 330q-9 116 -65.5 170.5t-167.5 59.5
q-122 0 -193 -78t-76 -214q0 -129 76 -203t208 -79q105 0 203 42l-2 124q-30 -16 -67.5 -23.5t-60 -8.5t-70.5 -1q-100 5 -146 40t-47 137h408v34zM177 374q0 53 47 96t118 43q62 0 104.5 -43t50.5 -95z" />
    <glyph glyph-name="uni1EC6" unicode="&#x1ec6;" horiz-adv-x="616" 
d="M136 757h68l88 120l88 -120h68l-120 184h-72zM73 0h470v151h-371v196h347v83h-347v216h362v83h-461v-729zM262 -146h100v108h-100v-108z" />
    <glyph glyph-name="uni1EC7" unicode="&#x1ec7;" 
d="M173 599h68l88 120l88 -120h68l-120 184h-72zM575 330q-9 116 -65.5 170.5t-167.5 59.5q-122 0 -193 -78t-76 -214q0 -129 76 -203t208 -79q105 0 203 42l-2 124q-30 -16 -67.5 -23.5t-60 -8.5t-70.5 -1q-100 5 -146 40t-47 137h408v34zM177 374q0 53 47 96t118 43
q62 0 104.5 -43t50.5 -95zM306 -146h100v108h-100v-108z" />
    <glyph glyph-name="uni1EC8" unicode="&#x1ec8;" horiz-adv-x="265" 
d="M82 850v-21q26 13 45 13q32 0 32 -14q0 -9 -11 -17l-11 -9q-13 -10 -16 -15q-3 -6 -3 -16v-3h28q0 6 2 12q6 6 9 8l11 7q21 16 21 31t-16 26q-17 10 -40 10q-24 0 -51 -12zM73 0h118q-5 85 -7.5 186.5t-3.5 174t-1.5 190t-1.5 178.5h-84q-1 -61 -3 -178.5t-3.5 -190
t-5 -174t-8.5 -186.5z" />
    <glyph glyph-name="uni1EC9" unicode="&#x1ec9;" horiz-adv-x="261" 
d="M80 665v-21q26 13 45 13q32 0 32 -14q0 -9 -11 -17l-11 -9q-13 -10 -16 -15q-3 -6 -3 -16v-3h28q0 6 2 12q6 6 9 8l11 7q21 16 21 31t-16 26q-17 10 -40 10q-24 0 -51 -12zM73 0h115q-30 282 -20 547h-80q2 -300 -15 -547z" />
    <glyph glyph-name="uni1ECA" unicode="&#x1eca;" horiz-adv-x="265" 
d="M73 0h118q-5 85 -7.5 186.5t-3.5 174t-1.5 190t-1.5 178.5h-84q-1 -61 -3 -178.5t-3.5 -190t-5 -174t-8.5 -186.5zM81 -146h100v108h-100v-108z" />
    <glyph glyph-name="uni1ECB" unicode="&#x1ecb;" horiz-adv-x="261" 
d="M83 646h90l-5 114h-80zM73 0h115q-30 282 -20 547h-80q2 -300 -15 -547zM80 -146h100v108h-100v-108z" />
    <glyph glyph-name="uni1ECC" unicode="&#x1ecc;" horiz-adv-x="821" 
d="M411 742q-154 0 -246 -103t-92 -275q0 -173 92 -275.5t246 -102.5t245.5 103t91.5 275t-91.5 275t-245.5 103zM411 662q107 0 170 -80t63 -218q0 -107 -58.5 -149t-174.5 -42t-175 42t-59 149q0 138 63 218t171 80zM354 -146h100v108h-100v-108z" />
    <glyph glyph-name="uni1ECD" unicode="&#x1ecd;" 
d="M324 560q-118 0 -184.5 -76t-66.5 -211q0 -134 66.5 -210.5t184.5 -76.5q117 0 184 76.5t67 210.5q0 135 -67 211t-184 76zM324 494q72 0 114 -55.5t42 -149.5q0 -89 -38 -118.5t-118 -29.5q-81 0 -118.5 29.5t-37.5 118.5q0 95 42 150t114 55zM267 -146h100v108h-100
v-108z" />
    <glyph glyph-name="uni1ECE" unicode="&#x1ece;" horiz-adv-x="821" 
d="M347 854v-21q26 13 45 13q32 0 32 -14q0 -9 -11 -17l-11 -9q-13 -10 -16 -15q-3 -6 -3 -16v-3h28q0 6 2 12q6 6 9 8l11 7q21 17 21 31q0 15 -16 26q-17 10 -40 10q-24 0 -51 -12zM411 742q-154 0 -246 -103t-92 -275q0 -173 92 -275.5t246 -102.5t245.5 103t91.5 275
t-91.5 275t-245.5 103zM411 662q107 0 170 -80t63 -218q0 -107 -58.5 -149t-174.5 -42t-175 42t-59 149q0 138 63 218t171 80z" />
    <glyph glyph-name="uni1ECF" unicode="&#x1ecf;" 
d="M276 675v-21q26 13 45 13q32 0 32 -14q0 -9 -11 -17l-11 -9q-13 -10 -16 -15q-3 -6 -3 -16v-3h28q0 6 2 12q6 6 9 8l11 7q21 16 21 31t-16 26q-17 10 -40 10q-24 0 -51 -12zM324 560q-118 0 -184.5 -76t-66.5 -211q0 -134 66.5 -210.5t184.5 -76.5q117 0 184 76.5
t67 210.5q0 135 -67 211t-184 76zM324 494q72 0 114 -55.5t42 -149.5q0 -89 -38 -118.5t-118 -29.5q-81 0 -118.5 29.5t-37.5 118.5q0 95 42 150t114 55z" />
    <glyph glyph-name="uni1ED0" unicode="&#x1ed0;" horiz-adv-x="821" 
d="M371 978h83l177 204h-107zM255 781h68l88 120l88 -120h68l-120 184h-72zM411 742q-154 0 -246 -103t-92 -275q0 -173 92 -275.5t246 -102.5t245.5 103t91.5 275t-91.5 275t-245.5 103zM411 662q107 0 170 -80t63 -218q0 -107 -58.5 -149t-174.5 -42t-175 42t-59 149
q0 138 63 218t171 80z" />
    <glyph glyph-name="uni1ED1" unicode="&#x1ed1;" 
d="M284 796h83l177 204h-107zM168 599h68l88 120l88 -120h68l-120 184h-72zM324 560q-118 0 -184.5 -76t-66.5 -211q0 -134 66.5 -210.5t184.5 -76.5q117 0 184 76.5t67 210.5q0 135 -67 211t-184 76zM324 494q72 0 114 -55.5t42 -149.5q0 -89 -38 -118.5t-118 -29.5
q-81 0 -118.5 29.5t-37.5 118.5q0 95 42 150t114 55z" />
    <glyph glyph-name="uni1ED2" unicode="&#x1ed2;" horiz-adv-x="821" 
d="M250 1170l101 -183h133l-138 183h-96zM255 781h68l88 120l88 -120h68l-120 184h-72zM411 742q-154 0 -246 -103t-92 -275q0 -173 92 -275.5t246 -102.5t245.5 103t91.5 275t-91.5 275t-245.5 103zM411 662q107 0 170 -80t63 -218q0 -107 -58.5 -149t-174.5 -42t-175 42
t-59 149q0 138 63 218t171 80z" />
    <glyph glyph-name="uni1ED3" unicode="&#x1ed3;" 
d="M163 988l101 -183h133l-138 183h-96zM168 599h68l88 120l88 -120h68l-120 184h-72zM324 560q-118 0 -184.5 -76t-66.5 -211q0 -134 66.5 -210.5t184.5 -76.5q117 0 184 76.5t67 210.5q0 135 -67 211t-184 76zM324 494q72 0 114 -55.5t42 -149.5q0 -89 -38 -118.5
t-118 -29.5q-81 0 -118.5 29.5t-37.5 118.5q0 95 42 150t114 55z" />
    <glyph glyph-name="uni1ED4" unicode="&#x1ed4;" horiz-adv-x="821" 
d="M255 781h68l88 120l88 -120h68l-120 184h-72zM555 929v-21q26 13 45 13q32 0 32 -14q0 -9 -11 -17l-11 -9q-13 -10 -16 -15q-3 -6 -3 -16v-3h28q0 6 2 12q6 6 9 8l11 7q21 16 21 31t-16 26q-17 10 -40 10q-24 0 -51 -12zM411 742q-154 0 -246 -103t-92 -275
q0 -173 92 -275.5t246 -102.5t245.5 103t91.5 275t-91.5 275t-245.5 103zM411 662q107 0 170 -80t63 -218q0 -107 -58.5 -149t-174.5 -42t-175 42t-59 149q0 138 63 218t171 80z" />
    <glyph glyph-name="uni1ED5" unicode="&#x1ed5;" 
d="M168 599h68l88 120l88 -120h68l-120 184h-72zM505 637v-21q26 13 45 13q32 0 32 -14q0 -9 -11 -17l-11 -9q-13 -10 -16 -15q-3 -6 -3 -16v-3h28q0 6 2 12q6 6 9 8l11 7q21 16 21 31t-16 26q-17 10 -40 10q-24 0 -51 -12zM324 560q-118 0 -184.5 -76t-66.5 -211
q0 -134 66.5 -210.5t184.5 -76.5q117 0 184 76.5t67 210.5q0 135 -67 211t-184 76zM324 494q72 0 114 -55.5t42 -149.5q0 -89 -38 -118.5t-118 -29.5q-81 0 -118.5 29.5t-37.5 118.5q0 95 42 150t114 55z" />
    <glyph glyph-name="uni1ED6" unicode="&#x1ed6;" horiz-adv-x="821" 
d="M409 998q33 -30 68 -30q44 0 69.5 36t26.5 102h-62q0 -40 -9 -58t-28 -18q-13 0 -33 19l-28 27q-33 30 -68 30q-44 0 -68.5 -36t-26.5 -102h61q2 41 10 58q9 18 27 18q12 0 34 -19zM255 781h68l88 120l88 -120h68l-120 184h-72zM411 742q-154 0 -246 -103t-92 -275
q0 -173 92 -275.5t246 -102.5t245.5 103t91.5 275t-91.5 275t-245.5 103zM411 662q107 0 170 -80t63 -218q0 -107 -58.5 -149t-174.5 -42t-175 42t-59 149q0 138 63 218t171 80z" />
    <glyph glyph-name="uni1ED7" unicode="&#x1ed7;" 
d="M322 816q33 -30 68 -30q44 0 69.5 36t26.5 102h-62q0 -40 -9 -58t-28 -18q-13 0 -33 19l-28 27q-33 30 -68 30q-44 0 -68.5 -36t-26.5 -102h61q2 41 10 58q9 18 27 18q12 0 34 -19zM168 599h68l88 120l88 -120h68l-120 184h-72zM324 560q-118 0 -184.5 -76t-66.5 -211
q0 -134 66.5 -210.5t184.5 -76.5q117 0 184 76.5t67 210.5q0 135 -67 211t-184 76zM324 494q72 0 114 -55.5t42 -149.5q0 -89 -38 -118.5t-118 -29.5q-81 0 -118.5 29.5t-37.5 118.5q0 95 42 150t114 55z" />
    <glyph glyph-name="uni1ED8" unicode="&#x1ed8;" horiz-adv-x="821" 
d="M255 781h68l88 120l88 -120h68l-120 184h-72zM411 742q-154 0 -246 -103t-92 -275q0 -173 92 -275.5t246 -102.5t245.5 103t91.5 275t-91.5 275t-245.5 103zM411 662q107 0 170 -80t63 -218q0 -107 -58.5 -149t-174.5 -42t-175 42t-59 149q0 138 63 218t171 80zM354 -146
h100v108h-100v-108z" />
    <glyph glyph-name="uni1ED9" unicode="&#x1ed9;" 
d="M168 599h68l88 120l88 -120h68l-120 184h-72zM324 560q-118 0 -184.5 -76t-66.5 -211q0 -134 66.5 -210.5t184.5 -76.5q117 0 184 76.5t67 210.5q0 135 -67 211t-184 76zM324 494q72 0 114 -55.5t42 -149.5q0 -89 -38 -118.5t-118 -29.5q-81 0 -118.5 29.5t-37.5 118.5
q0 95 42 150t114 55zM237 -146h100v108h-100v-108z" />
    <glyph glyph-name="uni1EDA" unicode="&#x1eda;" horiz-adv-x="821" 
d="M631 1182l-177 -204h-83l153 204h107zM787 681q5 -20 5 -32q0 -77 -41 -114q-18 -15 -25 -20q22 -71 22 -151q0 -172 -91.5 -275t-245.5 -103t-246 102.5t-92 275.5q0 172 92 275t246 103q102 0 178.5 -47t117.5 -133q15 8 19 12q20 18 20 83q0 13 -7 30zM411 173
q116 0 174.5 42t58.5 149q0 138 -63 218t-170 80q-108 0 -171 -80t-63 -218q0 -107 59 -149t175 -42z" />
    <glyph glyph-name="uni1EDB" unicode="&#x1edb;" 
d="M544 1000l-177 -204h-83l153 204h107zM620 526q5 -20 5 -32q0 -77 -41 -114q-4 -3 -10 -8t-8 -7q9 -42 9 -92q0 -134 -67 -210.5t-184 -76.5q-118 0 -184.5 76.5t-66.5 210.5q0 135 66.5 211t184.5 76q82 0 140 -38t87 -109l8 6q20 18 20 83q0 12 -7 30zM324 141
q80 0 118 29.5t38 118.5q0 94 -42 149.5t-114 55.5t-114 -55t-42 -150q0 -89 37.5 -118.5t118.5 -29.5z" />
    <glyph glyph-name="uni1EDC" unicode="&#x1edc;" horiz-adv-x="821" 
d="M484 987h-133l-101 183h96zM787 681q5 -20 5 -32q0 -77 -41 -114q-18 -15 -25 -20q22 -71 22 -151q0 -172 -91.5 -275t-245.5 -103t-246 102.5t-92 275.5q0 172 92 275t246 103q102 0 178.5 -47t117.5 -133q15 8 19 12q20 18 20 83q0 13 -7 30zM411 173q116 0 174.5 42
t58.5 149q0 138 -63 218t-170 80q-108 0 -171 -80t-63 -218q0 -107 59 -149t175 -42z" />
    <glyph glyph-name="uni1EDD" unicode="&#x1edd;" 
d="M397 805h-133l-101 183h96zM620 526q5 -20 5 -32q0 -77 -41 -114q-4 -3 -10 -8t-8 -7q9 -42 9 -92q0 -134 -67 -210.5t-184 -76.5q-118 0 -184.5 76.5t-66.5 210.5q0 135 66.5 211t184.5 76q82 0 140 -38t87 -109l8 6q20 18 20 83q0 12 -7 30zM324 141q80 0 118 29.5
t38 118.5q0 94 -42 149.5t-114 55.5t-114 -55t-42 -150q0 -89 37.5 -118.5t118.5 -29.5z" />
    <glyph glyph-name="uni1EDE" unicode="&#x1ede;" horiz-adv-x="821" 
d="M425 842q0 14 -32 14q-19 0 -45 -13v21q27 12 51 12q23 0 40 -10q16 -11 16 -26q0 -14 -21 -31l-11 -7q-3 -2 -9 -8q-2 -6 -2 -12h-28v3q0 10 3 16q3 5 16 15l11 9q11 8 11 17zM787 681q5 -20 5 -32q0 -77 -41 -114q-18 -15 -25 -20q22 -71 22 -151q0 -172 -91.5 -275
t-245.5 -103t-246 102.5t-92 275.5q0 172 92 275t246 103q102 0 178.5 -47t117.5 -133q15 8 19 12q20 18 20 83q0 13 -7 30zM411 173q116 0 174.5 42t58.5 149q0 138 -63 218t-170 80q-108 0 -171 -80t-63 -218q0 -107 59 -149t175 -42z" />
    <glyph glyph-name="uni1EDF" unicode="&#x1edf;" 
d="M358 657q0 14 -32 14q-19 0 -45 -13v21q27 12 51 12q23 0 40 -10q16 -11 16 -26t-21 -31l-11 -7q-3 -2 -9 -8q-2 -6 -2 -12h-28v3q0 10 3 16q3 5 16 15l11 9q11 8 11 17zM620 526q5 -20 5 -32q0 -77 -41 -114q-4 -3 -10 -8t-8 -7q9 -42 9 -92q0 -134 -67 -210.5
t-184 -76.5q-118 0 -184.5 76.5t-66.5 210.5q0 135 66.5 211t184.5 76q82 0 140 -38t87 -109l8 6q20 18 20 83q0 12 -7 30zM324 141q80 0 118 29.5t38 118.5q0 94 -42 149.5t-114 55.5t-114 -55t-42 -150q0 -89 37.5 -118.5t118.5 -29.5z" />
    <glyph glyph-name="uni1EE0" unicode="&#x1ee0;" horiz-adv-x="821" 
d="M321 1026q-8 -17 -10 -58h-61q2 66 26.5 102t68.5 36q35 0 68 -30l28 -27q20 -19 33 -19q19 0 28 18t9 58h62q-1 -66 -26.5 -102t-69.5 -36q-35 0 -68 30l-27 27q-22 19 -34 19q-18 0 -27 -18zM787 681q5 -20 5 -32q0 -77 -41 -114q-18 -15 -25 -20q22 -71 22 -151
q0 -172 -91.5 -275t-245.5 -103t-246 102.5t-92 275.5q0 172 92 275t246 103q102 0 178.5 -47t117.5 -133q15 8 19 12q20 18 20 83q0 13 -7 30zM411 173q116 0 174.5 42t58.5 149q0 138 -63 218t-170 80q-108 0 -171 -80t-63 -218q0 -107 59 -149t175 -42z" />
    <glyph glyph-name="uni1EE1" unicode="&#x1ee1;" 
d="M234 844q-8 -17 -10 -58h-61q2 66 26.5 102t68.5 36q35 0 68 -30l28 -27q20 -19 33 -19q19 0 28 18t9 58h62q-1 -66 -26.5 -102t-69.5 -36q-35 0 -68 30l-27 27q-22 19 -34 19q-18 0 -27 -18zM620 526q5 -20 5 -32q0 -77 -41 -114q-4 -3 -10 -8t-8 -7q9 -42 9 -92
q0 -134 -67 -210.5t-184 -76.5q-118 0 -184.5 76.5t-66.5 210.5q0 135 66.5 211t184.5 76q82 0 140 -38t87 -109l8 6q20 18 20 83q0 12 -7 30zM324 141q80 0 118 29.5t38 118.5q0 94 -42 149.5t-114 55.5t-114 -55t-42 -150q0 -89 37.5 -118.5t118.5 -29.5z" />
    <glyph glyph-name="uni1EE2" unicode="&#x1ee2;" horiz-adv-x="821" 
d="M787 681q5 -20 5 -32q0 -77 -41 -114q-18 -15 -25 -20q22 -71 22 -151q0 -172 -91.5 -275t-245.5 -103t-246 102.5t-92 275.5q0 172 92 275t246 103q102 0 178.5 -47t117.5 -133q15 8 19 12q20 18 20 83q0 13 -7 30zM411 173q116 0 174.5 42t58.5 149q0 138 -63 218
t-170 80q-108 0 -171 -80t-63 -218q0 -107 59 -149t175 -42zM354 -146v108h100v-108h-100z" />
    <glyph glyph-name="uni1EE3" unicode="&#x1ee3;" 
d="M620 526q5 -20 5 -32q0 -77 -41 -114q-4 -3 -10 -8t-8 -7q9 -42 9 -92q0 -134 -67 -210.5t-184 -76.5q-118 0 -184.5 76.5t-66.5 210.5q0 135 66.5 211t184.5 76q82 0 140 -38t87 -109l8 6q20 18 20 83q0 12 -7 30zM324 141q80 0 118 29.5t38 118.5q0 94 -42 149.5
t-114 55.5t-114 -55t-42 -150q0 -89 37.5 -118.5t118.5 -29.5zM267 -146v108h100v-108h-100z" />
    <glyph glyph-name="uni1EE4" unicode="&#x1ee4;" horiz-adv-x="705" 
d="M73 274q0 -143 70.5 -215.5t209.5 -72.5q137 0 207.5 73t70.5 215v455h-104l10 -375q3 -115 -42.5 -167.5t-141.5 -52.5q-97 0 -142.5 52.5t-43.5 167.5l10 375h-104v-455zM296 -146h100v108h-100v-108z" />
    <glyph glyph-name="uni1EE5" unicode="&#x1ee5;" horiz-adv-x="609" 
d="M73 216q0 -113 49 -171.5t143 -58.5q112 0 176 98l-4 -84h89l10 547h-99l-10 -232q-5 -82 -45 -127.5t-112 -45.5q-59 0 -88 38t-34 117v250h-75v-331zM208 -146h100v108h-100v-108z" />
    <glyph glyph-name="uni1EE6" unicode="&#x1ee6;" horiz-adv-x="705" 
d="M289 815v-21q26 13 45 13q32 0 32 -14q0 -9 -11 -17l-11 -9q-13 -10 -16 -15q-3 -6 -3 -16v-3h28q0 6 2 12q6 6 9 8l11 7q21 16 21 31t-16 26q-17 10 -40 10q-24 0 -51 -12zM73 274q0 -143 70.5 -215.5t209.5 -72.5q137 0 207.5 73t70.5 215v455h-104l10 -375
q3 -115 -42.5 -167.5t-141.5 -52.5q-97 0 -142.5 52.5t-43.5 167.5l10 375h-104v-455z" />
    <glyph glyph-name="uni1EE7" unicode="&#x1ee7;" horiz-adv-x="609" 
d="M223 615v-21q26 13 45 13q32 0 32 -14q0 -9 -11 -17l-11 -9q-13 -10 -16 -15q-3 -6 -3 -16v-3h28q0 6 2 12q6 6 9 8l11 7q21 16 21 31t-16 26q-17 10 -40 10q-24 0 -51 -12zM73 216q0 -113 49 -171.5t143 -58.5q112 0 176 98l-4 -84h89l10 547h-99l-10 -232
q-5 -82 -45 -127.5t-112 -45.5q-59 0 -88 38t-34 117v250h-75v-331z" />
    <glyph glyph-name="uni1EE8" unicode="&#x1ee8;" horiz-adv-x="705" 
d="M572 1182l-177 -204h-83l153 204h107zM713 748q5 -20 5 -32q0 -77 -41 -114q-32 -26 -46 -33v-295q0 -142 -70.5 -215t-207.5 -73q-139 0 -209.5 72.5t-70.5 215.5v455h104l-10 -375q-2 -115 43.5 -167.5t142.5 -52.5q96 0 141.5 52.5t42.5 167.5l-10 375h104v-101
q14 7 21 13q20 18 20 83q0 12 -7 30z" />
    <glyph glyph-name="uni1EE9" unicode="&#x1ee9;" horiz-adv-x="609" 
d="M528 1000l-177 -204h-83l153 204h107zM618 580q5 -20 5 -32q0 -77 -41 -114q-31 -25 -49 -34l-7 -400h-89l4 84q-64 -98 -176 -98q-94 0 -143 58.5t-49 171.5v331h75v-250q5 -79 34 -117t88 -38q72 0 112 45.5t45 127.5l10 232h99l-2 -88q19 11 23 14q20 18 20 83
q0 12 -7 30z" />
    <glyph glyph-name="uni1EEA" unicode="&#x1eea;" horiz-adv-x="705" 
d="M425 987h-133l-101 183h96zM713 748q5 -20 5 -32q0 -77 -41 -114q-32 -26 -46 -33v-295q0 -142 -70.5 -215t-207.5 -73q-139 0 -209.5 72.5t-70.5 215.5v455h104l-10 -375q-2 -115 43.5 -167.5t142.5 -52.5q96 0 141.5 52.5t42.5 167.5l-10 375h104v-101q14 7 21 13
q20 18 20 83q0 12 -7 30z" />
    <glyph glyph-name="uni1EEB" unicode="&#x1eeb;" horiz-adv-x="609" 
d="M381 805h-133l-101 183h96zM618 580q5 -20 5 -32q0 -77 -41 -114q-31 -25 -49 -34l-7 -400h-89l4 84q-64 -98 -176 -98q-94 0 -143 58.5t-49 171.5v331h75v-250q5 -79 34 -117t88 -38q72 0 112 45.5t45 127.5l10 232h99l-2 -88q19 11 23 14q20 18 20 83q0 12 -7 30z" />
    <glyph glyph-name="uni1EEC" unicode="&#x1eec;" horiz-adv-x="705" 
d="M375 786q0 14 -32 14q-19 0 -45 -13v21q27 12 51 12q23 0 40 -10q16 -11 16 -26q0 -14 -21 -31l-11 -7q-3 -2 -9 -8q-2 -6 -2 -12h-28v3q0 10 3 16q3 5 16 15l11 9q11 8 11 17zM713 748q5 -20 5 -32q0 -77 -41 -114q-32 -26 -46 -33v-295q0 -142 -70.5 -215t-207.5 -73
q-139 0 -209.5 72.5t-70.5 215.5v455h104l-10 -375q-2 -115 43.5 -167.5t142.5 -52.5q96 0 141.5 52.5t42.5 167.5l-10 375h104v-101q14 7 21 13q20 18 20 83q0 12 -7 30z" />
    <glyph glyph-name="uni1EED" unicode="&#x1eed;" horiz-adv-x="609" 
d="M323 608q0 14 -32 14q-19 0 -45 -13v21q27 12 51 12q23 0 40 -10q16 -11 16 -26q0 -14 -21 -31l-11 -7q-3 -2 -9 -8q-2 -6 -2 -12h-28v3q0 10 3 16q3 5 16 15l11 9q11 8 11 17zM618 580q5 -20 5 -32q0 -77 -41 -114q-31 -25 -49 -34l-7 -400h-89l4 84q-64 -98 -176 -98
q-94 0 -143 58.5t-49 171.5v331h75v-250q5 -79 34 -117t88 -38q72 0 112 45.5t45 127.5l10 232h99l-2 -88q19 11 23 14q20 18 20 83q0 12 -7 30z" />
    <glyph glyph-name="uni1EEE" unicode="&#x1eee;" horiz-adv-x="705" 
d="M262 1026q-8 -17 -10 -58h-61q2 66 26.5 102t68.5 36q35 0 68 -30l28 -27q20 -19 33 -19q19 0 28 18t9 58h62q-1 -66 -26.5 -102t-69.5 -36q-35 0 -68 30l-27 27q-22 19 -34 19q-18 0 -27 -18zM713 748q5 -20 5 -32q0 -77 -41 -114q-32 -26 -46 -33v-295
q0 -142 -70.5 -215t-207.5 -73q-139 0 -209.5 72.5t-70.5 215.5v455h104l-10 -375q-2 -115 43.5 -167.5t142.5 -52.5q96 0 141.5 52.5t42.5 167.5l-10 375h104v-101q14 7 21 13q20 18 20 83q0 12 -7 30z" />
    <glyph glyph-name="uni1EEF" unicode="&#x1eef;" horiz-adv-x="609" 
d="M218 844q-8 -17 -10 -58h-61q2 66 26.5 102t68.5 36q35 0 68 -30l28 -27q20 -19 33 -19q19 0 28 18t9 58h62q-1 -66 -26.5 -102t-69.5 -36q-35 0 -68 30l-27 27q-22 19 -34 19q-18 0 -27 -18zM618 580q5 -20 5 -32q0 -77 -41 -114q-31 -25 -49 -34l-7 -400h-89l4 84
q-64 -98 -176 -98q-94 0 -143 58.5t-49 171.5v331h75v-250q5 -79 34 -117t88 -38q72 0 112 45.5t45 127.5l10 232h99l-2 -88q19 11 23 14q20 18 20 83q0 12 -7 30z" />
    <glyph glyph-name="uni1EF0" unicode="&#x1ef0;" horiz-adv-x="705" 
d="M713 748q5 -20 5 -32q0 -77 -41 -114q-32 -26 -46 -33v-295q0 -142 -70.5 -215t-207.5 -73q-139 0 -209.5 72.5t-70.5 215.5v455h104l-10 -375q-2 -115 43.5 -167.5t142.5 -52.5q96 0 141.5 52.5t42.5 167.5l-10 375h104v-101q14 7 21 13q20 18 20 83q0 12 -7 30z
M296 -146v108h100v-108h-100z" />
    <glyph glyph-name="uni1EF1" unicode="&#x1ef1;" horiz-adv-x="609" 
d="M618 580q5 -20 5 -32q0 -77 -41 -114q-31 -25 -49 -34l-7 -400h-89l4 84q-64 -98 -176 -98q-94 0 -143 58.5t-49 171.5v331h75v-250q5 -79 34 -117t88 -38q72 0 112 45.5t45 127.5l10 232h99l-2 -88q19 11 23 14q20 18 20 83q0 12 -7 30zM208 -146v108h100v-108h-100z
" />
    <glyph glyph-name="Ygrave" unicode="&#x1ef2;" horiz-adv-x="761" 
d="M219 1170l101 -183h133l-138 183h-96zM312 250v-250h133v250l243 479h-106l-201 -373l-202 373h-106z" />
    <glyph glyph-name="ygrave" unicode="&#x1ef3;" horiz-adv-x="679" 
d="M135 988l101 -183h133l-138 183h-96zM605 547h-95l-148 -318l-194 318h-95l234 -502l-38 -77q-21 -26 -32 -37t-29.5 -20.5t-41.5 -9.5h-63v-119h82q64 0 104 32.5t86 134.5z" />
    <glyph glyph-name="uni1EF4" unicode="&#x1ef4;" horiz-adv-x="761" 
d="M312 250v-250h133v250l243 479h-106l-201 -373l-202 373h-106zM330 -146h100v108h-100v-108z" />
    <glyph glyph-name="uni1EF5" unicode="&#x1ef5;" horiz-adv-x="679" 
d="M605 547h-95l-148 -318l-194 318h-95l234 -502l-38 -77q-21 -26 -32 -37t-29.5 -20.5t-41.5 -9.5h-63v-119h82q64 0 104 32.5t86 134.5zM379 -200h100v108h-100v-108z" />
    <glyph glyph-name="uni1EF6" unicode="&#x1ef6;" horiz-adv-x="761" 
d="M334 790v-21q26 13 45 13q32 0 32 -14q0 -9 -11 -17l-11 -9q-13 -10 -16 -15q-3 -6 -3 -16v-3h28q0 6 2 12q6 6 9 8l11 7q21 17 21 31q0 15 -16 26q-17 10 -40 10q-24 0 -51 -12zM312 250v-250h133v250l243 479h-106l-201 -373l-202 373h-106z" />
    <glyph glyph-name="uni1EF7" unicode="&#x1ef7;" horiz-adv-x="679" 
d="M296 634v-21q26 13 45 13q32 0 32 -14q0 -9 -11 -17l-11 -9q-13 -10 -16 -15q-3 -6 -3 -16v-3h28q0 6 2 12q6 6 9 8l11 7q21 17 21 31q0 15 -16 26q-17 10 -40 10q-24 0 -51 -12zM605 547h-95l-148 -318l-194 318h-95l234 -502l-38 -77q-21 -26 -32 -37t-29.5 -20.5
t-41.5 -9.5h-63v-119h82q64 0 104 32.5t86 134.5z" />
    <glyph glyph-name="uni1EF8" unicode="&#x1ef8;" horiz-adv-x="761" 
d="M378 998q33 -30 68 -30q44 0 69.5 36t26.5 102h-62q0 -40 -9 -58t-28 -18q-13 0 -33 19l-28 27q-33 30 -68 30q-44 0 -68.5 -36t-26.5 -102h61q2 41 10 58q9 18 27 18q12 0 34 -19zM312 250v-250h133v250l243 479h-106l-201 -373l-202 373h-106z" />
    <glyph glyph-name="uni1EF9" unicode="&#x1ef9;" horiz-adv-x="679" 
d="M294 816q33 -30 68 -30q44 0 69.5 36t26.5 102h-62q0 -40 -9 -58t-28 -18q-13 0 -33 19l-28 27q-33 30 -68 30q-44 0 -68.5 -36t-26.5 -102h61q2 41 10 58q9 18 27 18q12 0 34 -19zM605 547h-95l-148 -318l-194 318h-95l234 -502l-38 -77q-21 -26 -32 -37t-29.5 -20.5
t-41.5 -9.5h-63v-119h82q64 0 104 32.5t86 134.5z" />
    <glyph glyph-name="endash" unicode="&#x2013;" horiz-adv-x="646" 
d="M73 239h500v70h-500v-70z" />
    <glyph glyph-name="emdash" unicode="&#x2014;" horiz-adv-x="1146" 
d="M73 239h1000v70h-1000v-70z" />
    <glyph glyph-name="quoteleft" unicode="&#x2018;" horiz-adv-x="302" 
d="M200 550l49 192h-78l-98 -192v-104h127v104z" />
    <glyph glyph-name="quoteright" unicode="&#x2019;" horiz-adv-x="288" 
d="M122 647l-49 -189h76l98 189v90h-125v-90z" />
    <glyph glyph-name="quotesinglbase" unicode="&#x201a;" horiz-adv-x="290" 
d="M113 40l-40 -156h63l80 156v84h-103v-84z" />
    <glyph glyph-name="quotedblleft" unicode="&#x201c;" horiz-adv-x="573" 
d="M201 535l50 194h-78l-100 -194v-105h128v105zM450 535l50 194h-78l-100 -194v-105h128v105z" />
    <glyph glyph-name="quotedblright" unicode="&#x201d;" horiz-adv-x="545" 
d="M120 631l-47 -181h73l94 181v98h-120v-98zM353 631l-47 -181h73l93 181v98h-119v-98z" />
    <glyph glyph-name="quotedblbase" unicode="&#x201e;" horiz-adv-x="578" 
d="M124 80l-51 -196h79l101 196v106h-129v-106zM375 80l-50 -196h79l100 196v106h-129v-106z" />
    <glyph glyph-name="dagger" unicode="&#x2020;" horiz-adv-x="591" 
d="M252 524h-179v-75h179v-545h86v545h180v75h-180v205h-86v-205z" />
    <glyph glyph-name="daggerdbl" unicode="&#x2021;" horiz-adv-x="591" 
d="M518 184h-170l-10 265h180v75h-180v205h-86v-205h-179v-75h179l-9 -265h-170v-109h160l-10 -171h145l-10 171h160v109z" />
    <glyph glyph-name="bullet" unicode="&#x2022;" horiz-adv-x="437" 
d="M73 372q0 -61 42 -103t103 -42t103 42t42 103t-41.5 102.5t-102.5 41.5q-62 0 -104 -41.5t-42 -102.5z" />
    <glyph glyph-name="ellipsis" unicode="&#x2026;" horiz-adv-x="970" 
d="M73 0h158v178h-158v-178zM406 0h157v178h-157v-178zM739 0h157v178h-157v-178z" />
    <glyph glyph-name="perthousand" unicode="&#x2030;" horiz-adv-x="1378" 
d="M241 742q-77 0 -122.5 -53.5t-45.5 -144.5q0 -92 45.5 -145.5t122.5 -53.5q78 0 123.5 53.5t45.5 145.5q0 91 -46 144.5t-123 53.5zM192 -14h112l456 756h-78zM241 680q42 0 66.5 -28.5t24.5 -77.5q0 -50 -24 -78.5t-67 -28.5q-42 0 -66 28.5t-24 78.5q0 49 24 77.5
t66 28.5zM745 383q-78 0 -123.5 -53.5t-45.5 -145.5q0 -91 45.5 -144.5t123.5 -53.5q77 0 122.5 53.5t45.5 144.5q0 92 -45.5 145.5t-122.5 53.5zM1137 383q-78 0 -123.5 -53.5t-45.5 -145.5q0 -91 45.5 -144.5t123.5 -53.5q77 0 122.5 53.5t45.5 144.5q0 92 -45.5 145.5
t-122.5 53.5zM745 321q41 0 65.5 -26t24.5 -72q0 -45 -24.5 -71.5t-65.5 -26.5q-43 0 -67 26.5t-24 71.5q0 46 24 72t67 26zM1137 321q41 0 65.5 -26t24.5 -72q0 -45 -24.5 -71.5t-65.5 -26.5q-42 0 -66.5 26.5t-24.5 71.5q0 46 24.5 72t66.5 26z" />
    <glyph glyph-name="guilsinglleft" unicode="&#x2039;" horiz-adv-x="375" 
d="M73 313v-40l229 -204v93l-147 131l147 131v93z" />
    <glyph glyph-name="guilsinglright" unicode="&#x203a;" horiz-adv-x="375" 
d="M73 424l147 -131l-147 -131v-93l229 204v40l-229 204v-93z" />
    <glyph glyph-name="fraction" unicode="&#x2044;" horiz-adv-x="680" 
d="M73 -14h78l455 756h-78z" />
    <glyph glyph-name="Euro" unicode="&#x20ac;" horiz-adv-x="716" 
d="M643 673q-85 69 -181 69q-115 0 -191 -70.5t-95 -196.5h-76l-27 -60h95v-22q-1 -8 -1 -29q0 -20 1 -27v-23h-68l-27 -80h108q15 -109 91.5 -178.5t189.5 -69.5q95 0 181 70v147q-50 -52 -91 -73.5t-91 -21.5q-68 0 -120.5 45t-60.5 81h178l27 80h-217q-2 16 -2 50
q0 35 2 51h262l27 60h-282q16 95 66.5 154t124.5 59q51 0 92 -22t85 -73v80z" />
    <glyph glyph-name="trademark" unicode="&#x2122;" horiz-adv-x="801" 
d="M73 729v-46h98l-14 -236h85l-15 236h99v46h-253zM386 729l-19 -282h85l-15 236l89 -211h47l85 211l-14 -236h84l-10 282h-83l-85 -159l-80 159h-84z" />
    <glyph glyph-name="uni2126" unicode="&#x2126;" horiz-adv-x="834" 
d="M605 116q83 73 115.5 130.5t32.5 148.5q0 151 -94 247t-242 96q-149 0 -242.5 -96.5t-93.5 -251.5q0 -86 33 -144t115 -130h-156v-116h293v116q-86 27 -135 103t-49 176q0 138 63 210.5t172 72.5t171.5 -72.5t62.5 -210.5q0 -100 -49 -176t-134 -103v-116h293v116h-156z
" />
    <glyph glyph-name="partialdiff" unicode="&#x2202;" horiz-adv-x="565" 
d="M392 303q-37 92 -132 92q-79 0 -133 -63t-54 -159q0 -80 49.5 -132.5t124.5 -52.5q104 0 174.5 108t70.5 271q0 129 -52 204.5t-141 75.5q-49 0 -84 -23.5t-35 -54.5q0 -14 6.5 -18t24.5 -4q17 0 26 18q7 18 98 24q71 0 71 -127q0 -70 -14 -159zM349 263
q0 -85 -38 -139.5t-97 -54.5q-44 0 -67 25.5t-23 74.5q0 86 38 140t97 54q43 0 66.5 -26t23.5 -74z" />
    <glyph glyph-name="uni2206" unicode="&#x2206;" horiz-adv-x="821" 
d="M73 0h675l-283 719h-109zM614 146h-408l204 529z" />
    <glyph glyph-name="product" unicode="&#x220f;" horiz-adv-x="750" 
d="M73 -192h151l-44 811h370l10 -811h151l-44 911h-604z" />
    <glyph glyph-name="summation" unicode="&#x2211;" horiz-adv-x="788" 
d="M88 652l437 -380l-452 -352v-112h642v133h-492l437 334l-426 370h468v74h-614v-67z" />
    <glyph glyph-name="minus" unicode="&#x2212;" horiz-adv-x="772" 
d="M73 272h626v83h-626v-83z" />
    <glyph glyph-name="periodcentered.001" unicode="&#x2219;" horiz-adv-x="279" 
d="M73 285h133v160h-133v-160z" />
    <glyph glyph-name="radical" unicode="&#x221a;" horiz-adv-x="754" 
d="M336 130l-125 346l-138 -48l12 -39l61 22l156 -431h32l291 784h56v47h-93z" />
    <glyph glyph-name="infinity" unicode="&#x221e;" horiz-adv-x="765" 
d="M387 236q38 -67 74.5 -96.5t82.5 -29.5q66 0 106.5 52.5t40.5 137.5q0 81 -45.5 136t-111.5 55q-92 0 -158 -131q-34 67 -71.5 98t-84.5 31q-65 0 -106 -53t-41 -138q0 -81 45.5 -135.5t111.5 -54.5q92 0 157 128zM412 317q36 78 68.5 111.5t72.5 33.5q43 0 72 -32.5
t29 -82.5q0 -51 -31.5 -84t-80.5 -33q-81 0 -130 87zM353 315q-14 -31 -29 -51t-25.5 -30t-29 -14.5t-26.5 -5t-32 -0.5q-43 0 -72 32.5t-29 82.5q0 52 31 84t81 32q37 0 68 -36t63 -94z" />
    <glyph glyph-name="integral" unicode="&#x222b;" horiz-adv-x="621" 
d="M202 -128q-9 0 -12 21q-2 21 -7 28q-16 28 -47 28q-29 0 -46 -15t-17 -43q0 -31 25 -51.5t63 -20.5q95 0 142 101q46 100 54 335q2 42 4 148q8 302 59 302q8 0 11 -17q1 -18 5 -25q11 -36 53 -36q27 0 42.5 15.5t15.5 41.5q0 32 -24 52.5t-64 20.5q-99 0 -145 -109
q-46 -111 -52 -359q0 -7 -0.5 -34t-0.5 -47q-7 -336 -59 -336z" />
    <glyph glyph-name="approxequal" unicode="&#x2248;" horiz-adv-x="772" 
d="M699 494q-95 -78 -175 -78q-46 0 -121 30l-11 4q-1 1 -7 3q-70 28 -126 34q-89 0 -186 -72v-87q92 78 175 78q44 0 122 -35l10 -4q2 -1 8 -3q73 -29 125 -29q90 0 186 72v87zM699 304q-95 -78 -175 -78q-46 0 -121 30l-10 4q-1 0 -4 1.5t-4 1.5q-70 28 -126 34
q-89 0 -186 -72v-87q92 78 175 78q44 0 122 -35l10 -4q2 -1 8 -3q73 -29 125 -29q90 0 186 72v87z" />
    <glyph glyph-name="notequal" unicode="&#x2260;" horiz-adv-x="772" 
d="M73 372h309l-95 -117h-214v-83h146l-85 -103l61 -50l126 153h378v83h-310l95 117h215v82h-148l85 104l-61 50l-125 -154h-377v-82z" />
    <glyph glyph-name="lessequal" unicode="&#x2264;" horiz-adv-x="772" 
d="M699 582l-626 -179v-83l626 -180v87l-469 134l469 135v86zM73 0h626v83h-626v-83z" />
    <glyph glyph-name="greaterequal" unicode="&#x2265;" horiz-adv-x="772" 
d="M542 361l-469 -134v-87l626 180v83l-626 179v-86zM73 83v-83h626v83h-626z" />
    <glyph glyph-name="lozenge" unicode="&#x25ca;" horiz-adv-x="635" 
d="M73 289l244 -522l245 522l-245 518zM505 289l-188 -276l-188 276l188 399z" />
    <glyph glyph-name="c6459" horiz-adv-x="437" 
d="M73 632h99v99h-99v-99zM264 632h99v99h-99v-99z" />
    <glyph glyph-name="c6460" horiz-adv-x="333" 
d="M73 616h75l111 129h-90z" />
    <glyph glyph-name="c6461" horiz-adv-x="469" 
d="M232 653q40 -21 71 -21q41 0 66 29t27 78h-62v-3q0 -20 -9.5 -32.5t-25.5 -12.5q-13 0 -35 12l-28 15q-38 21 -70 21q-43 0 -68 -29t-25 -78h61v3q0 46 37 46q11 0 34 -12z" />
    <glyph glyph-name="c6462" horiz-adv-x="333" 
d="M73 745l113 -129h74l-95 129h-92z" />
    <glyph glyph-name="c6463" horiz-adv-x="444" 
d="M73 616h68l81 87l81 -87h68l-103 130h-92z" />
    <glyph glyph-name="c6466" horiz-adv-x="444" 
d="M268 616l103 130h-68l-81 -87l-81 87h-68l103 -130h92z" />
    <glyph glyph-name="c6467" horiz-adv-x="485" 
d="M73 476v-59h202v-91h71v91h66v53h-66v264h-81zM275 470h-150l150 205v-205z" />
    <glyph glyph-name="c6468" horiz-adv-x="452" 
d="M73 746q11 -118 153 -118q144 0 153 118h-58q-15 -54 -95 -54q-83 0 -95 54h-58z" />
    <glyph glyph-name="c6469" horiz-adv-x="246" 
d="M73 632h100v100h-100v-100z" />
    <glyph glyph-name="glyph268" horiz-adv-x="0" 
 />
    <glyph glyph-name="y.001" horiz-adv-x="679" 
d="M377 -25q-5 -67 -31 -112t-71 -68t-95 -32t-117 -9v-155h81q169 0 257 145q69 113 120 383q13 67 37 214q23 135 36 206h-128q-22 -235 -49 -334t-79 -99q-71 0 -108 14t-51 45.5t-14.5 82t2 123t-2.5 168.5h-96v-81q0 -60 -0.5 -115.5t4 -104.5t13 -91t26.5 -75
t44.5 -56.5t66.5 -36t93 -12.5h62z" />
    <glyph glyph-name="brevecy" horiz-adv-x="293" 
 />
    </font>
</defs>
</svg>
